SplineFontDB: 3.0
FontName: CourerMegaUltraLight
FullName: Courer Mega UltraLight
FamilyName: Courer Mega UltraLight
Weight: Extra-Light
Copyright: Copyright (c) 2013 by Richard Alexander Hall. All rights reserved.
Version: 0.001 2013
ItalicAngle: 0
UnderlinePosition: -120
UnderlineWidth: 130
Ascent: 1638
Descent: 410
sfntRevision: 0x00000042
LayerCount: 2
Layer: 0 1 "Back"  1
Layer: 1 1 "Fore"  0
XUID: [1021 724 1758327272 1876797]
FSType: 0
OS2Version: 3
OS2_WeightWidthSlopeOnly: 0
OS2_UseTypoMetrics: 1
CreationTime: 1366113825
ModificationTime: 1366108302
PfmFamily: 17
TTFWeight: 200
TTFWidth: 5
LineGap: 0
VLineGap: 0
Panose: 2 0 5 9 0 0 0 2 0 4
OS2TypoAscent: 1421
OS2TypoAOffset: 0
OS2TypoDescent: -643
OS2TypoDOffset: 0
OS2TypoLinegap: 0
OS2WinAscent: 1797
OS2WinAOffset: 0
OS2WinDescent: 839
OS2WinDOffset: 0
HheadAscent: 1421
HheadAOffset: 0
HheadDescent: -643
HheadDOffset: 0
OS2SubXSize: 1434
OS2SubYSize: 1331
OS2SubXOff: 0
OS2SubYOff: 293
OS2SupXSize: 1434
OS2SupYSize: 1331
OS2SupXOff: 0
OS2SupYOff: 928
OS2StrikeYSize: 130
OS2StrikeYPos: 530
OS2FamilyClass: 1285
OS2Vendor: 'RAH7'
OS2CodePages: 00000093.00000000
OS2UnicodeRanges: a00000af.500068fb.00000000.00000000
DEI: 91125
TtTable: prep
PUSHW_1
 0
CALL
SVTCA[y-axis]
PUSHW_3
 1
 4
 7
CALL
PUSHW_1
 0
DUP
RCVT
RDTG
ROUND[Black]
RTG
WCVTP
EndTTInstrs
TtTable: fpgm
PUSHW_1
 0
FDEF
MPPEM
PUSHW_1
 9
LT
IF
PUSHB_2
 1
 1
INSTCTRL
EIF
PUSHW_1
 511
SCANCTRL
PUSHW_1
 68
SCVTCI
PUSHW_2
 9
 3
SDS
SDB
ENDF
PUSHW_1
 1
FDEF
DUP
DUP
RCVT
ROUND[Black]
WCVTP
PUSHB_1
 1
ADD
ENDF
PUSHW_1
 2
FDEF
PUSHW_1
 1
LOOPCALL
POP
ENDF
PUSHW_1
 3
FDEF
DUP
GC[cur]
PUSHB_1
 3
CINDEX
GC[cur]
GT
IF
SWAP
EIF
DUP
ROLL
DUP
ROLL
MD[grid]
ABS
ROLL
DUP
GC[cur]
DUP
ROUND[Grey]
SUB
ABS
PUSHB_1
 4
CINDEX
GC[cur]
DUP
ROUND[Grey]
SUB
ABS
GT
IF
SWAP
NEG
ROLL
EIF
MDAP[rnd]
DUP
PUSHB_1
 0
GTEQ
IF
ROUND[Black]
DUP
PUSHB_1
 0
EQ
IF
POP
PUSHB_1
 64
EIF
ELSE
ROUND[Black]
DUP
PUSHB_1
 0
EQ
IF
POP
PUSHB_1
 64
NEG
EIF
EIF
MSIRP[no-rp0]
ENDF
PUSHW_1
 4
FDEF
DUP

StartChar: exclam
Encoding: 261 33 5
Width: 1228
Flags: W
LayerCount: 2
Fore
SplineSet
587 401 m 1,0,-1
 550 1169 l 1,1,-1
 677 1169 l 1,2,-1
 639 401 l 1,3,-1
 587 401 l 1,0,-1
524 -5 m 1,4,5
 489 27 489 27 489 71.5 c 128,-1,6
 489 116 489 116 523.5 147.5 c 128,-1,7
 558 179 558 179 612.5 179 c 128,-1,8
 667 179 667 179 702 147 c 128,-1,9
 737 115 737 115 737 71 c 128,-1,10
 737 27 737 27 710 3.5 c 0,11,12
 663.468 -37 663.468 -37 612.234 -37 c 128,-1,13
 561 -37 561 -37 524 -5 c 1,4,5
EndSplineSet
EndChar

StartChar: quotedbl
Encoding: 262 34 6
Width: 1228
Flags: W
LayerCount: 2
Fore
SplineSet
363 595 m 1,0,1
 351.871 917.742 351.871 917.742 342 1153 c 1,2,-1
 496 1153 l 1,3,-1
 475 595 l 1,4,-1
 363 595 l 1,0,1
755 595 m 1,5,-1
 734 1153 l 1,6,-1
 887 1153 l 1,7,-1
 866 595 l 1,8,-1
 755 595 l 1,5,-1
EndSplineSet
EndChar

StartChar: numbersign
Encoding: 263 35 7
Width: 1228
Flags: W
LayerCount: 2
Fore
SplineSet
832 933 m 1,0,-1
 858 1377 l 1,1,-1
 909 1377 l 1,2,-1
 882 933 l 1,3,-1
 1088 933 l 1,4,-1
 1088 843 l 1,5,-1
 878 843 l 1,6,-1
 855 430 l 1,7,-1
 1088 430 l 1,8,-1
 1088 341 l 1,9,-1
 851 341 l 1,10,-1
 824 -124 l 1,11,-1
 773 -124 l 1,12,-1
 800 341 l 1,13,-1
 433 341 l 1,14,15
 430.115 263.115 430.115 263.115 409 -124 c 1,16,-1
 358 -124 l 1,17,-1
 381 341 l 1,18,-1
 177 341 l 1,19,-1
 177 430 l 1,20,-1
 387 430 l 1,21,-1
 413 843 l 1,22,-1
 177 843 l 1,23,-1
 177 933 l 1,24,-1
 416 933 l 1,25,-1
 442 1377 l 1,26,-1
 493 1377 l 1,27,-1
 466 933 l 1,28,-1
 832 933 l 1,0,-1
804 430 m 1,29,-1
 827 843 l 1,30,-1
 462 843 l 1,31,-1
 439 430 l 1,32,-1
 804 430 l 1,29,-1
EndSplineSet
EndChar

StartChar: dollar
Encoding: 264 36 8
Width: 1228
Flags: W
LayerCount: 2
Fore
SplineSet
1004 763 m 1,0,1
 969.333 758.667 969.333 758.667 956 756 c 1,2,3
 914.238 960.171 914.238 960.171 802 1046 c 0,4,5
 771 1070 771 1070 654 1095 c 1,6,-1
 654 603 l 1,7,8
 684 594 684 594 704 589 c 128,-1,9
 724 584 724 584 741.5 579 c 0,10,11
 780 568 780 568 820 552 c 1,12,13
 1021 483.086 1021 483.086 1021 310 c 0,14,15
 1021 189.421 1021 189.421 923.5 114.5 c 0,16,17
 825.185 38.9526 825.185 38.9526 654 29 c 1,18,-1
 654 -295 l 1,19,-1
 601 -295 l 1,20,-1
 601 30 l 1,21,22
 516.584 34.0198 516.584 34.0198 454.099 55.3762 c 5,23,24
 350 109 350 109 294.5 183.5 c 0,25,26
 287.49 193.995 287.49 193.995 294 71.667 c 0,27,28
 297.374 46.7418 297.374 46.7418 294 19 c 1,29,-1
 243 19 l 1,30,-1
 244 50 l 1,31,-1
 244 82 l 2,32,33
 244 225 244 225 224 389 c 1,34,-1
 276 389 l 1,35,36
 276 386 276 386 278 382 c 1,37,-1
 277 383 l 1,38,39
 307.088 220.523 307.088 220.523 403 150 c 0,40,41
 476.886 95.672 476.886 95.672 601 79 c 1,42,-1
 601 561 l 1,43,44
 509.748 582.221 509.748 582.221 489.374 590.611 c 128,-1,45
 469 599 469 599 440.5 609.5 c 128,-1,46
 412 620 412 620 377 641.5 c 128,-1,47
 342 663 342 663 316.5 693 c 0,48,49
 263.606 755.229 263.606 755.229 258 858 c 1,50,51
 258 983 258 983 346 1057.5 c 128,-1,52
 434 1132 434 1132 601 1146 c 1,53,-1
 601 1370 l 1,54,-1
 654 1370 l 1,55,-1
 654 1148 l 1,56,57
 822 1116 822 1116 869.5 1064.5 c 0,58,59
 928.237 1000.82 928.237 1000.82 928.5 998.75 c 0,60,61
 930.27 984.867 930.27 984.867 929 1070 c 0,62,63
 928.708 1089.58 928.708 1089.58 934 1134 c 1,64,-1
 986 1134 l 1,65,66
 984 1117 984 1117 984 1106 c 2,67,-1
 984 1085 l 2,68,69
 984 931.333 984 931.333 1004 763 c 1,0,1
601 1096 m 1,70,71
 454.258 1081.14 454.258 1081.14 389 1022 c 1,72,73
 319 960.077 319 960.077 319 861 c 0,74,75
 319 707.188 319 707.188 499.5 650 c 0,76,77
 550 634 550 634 601 618 c 1,78,-1
 601 1096 l 1,70,71
654 80 m 1,79,80
 787.766 94.8629 787.766 94.8629 845.883 128.931 c 128,-1,81
 904 163 904 163 931.5 204.5 c 128,-1,82
 959 246 959 246 959 300 c 128,-1,83
 959 354 959 354 943 388 c 128,-1,84
 927 422 927 422 900.5 446.5 c 128,-1,85
 874 471 874 471 841 487 c 128,-1,86
 808 503 808 503 774 514.5 c 128,-1,87
 740 526 740 526 708.5 533.5 c 128,-1,88
 677 541 677 541 654 548 c 1,89,-1
 654 80 l 1,79,80
EndSplineSet
EndChar

StartChar: percent
Encoding: 265 37 9
Width: 1228
Flags: W
LayerCount: 2
Fore
SplineSet
1103 243 m 0,0,1
 1103 99.5 1103 99.5 975 21.5 c 0,2,3
 905.256 -21 905.256 -21 830.628 -21 c 128,-1,4
 756 -21 756 -21 704.5 2 c 128,-1,5
 653 25 653 25 616.5 62.5 c 0,6,7
 541 140.068 541 140.068 541 243 c 0,8,9
 541 340.873 541 340.873 613.5 419.5 c 0,10,11
 694.182 507 694.182 507 821 507 c 0,12,13
 954 507 954 507 1034.5 416 c 0,14,15
 1103 338.565 1103 338.565 1103 243 c 0,0,1
607 245 m 256,16,17
 607 158.123 607 158.123 667.5 95.5 c 0,18,19
 729.814 31 729.814 31 823.573 31 c 128,-1,20
 917.333 31 917.333 31 977.167 95.1071 c 128,-1,21
 1037 159.214 1037 159.214 1037 244.277 c 128,-1,22
 1037 329.339 1037 329.339 976.89 392.67 c 128,-1,23
 916.78 456 916.78 456 821.525 456 c 128,-1,24
 726.271 456 726.271 456 666.636 393.17 c 128,-1,25
 607 330.339 607 330.339 607 245 c 256,16,17
663 982.75 m 128,-1,27
 663 881 663 881 586.975 801.5 c 128,-1,28
 510.95 722 510.95 722 384.171 722 c 128,-1,29
 257.392 722 257.392 722 178.696 801.774 c 128,-1,30
 100 881.548 100 881.548 100 983.473 c 128,-1,31
 100 1085.4 100 1085.4 178.572 1167.2 c 128,-1,32
 257.145 1249 257.145 1249 383.163 1249 c 128,-1,33
 509.182 1249 509.182 1249 586.091 1166.75 c 128,-1,26
 663 1084.5 663 1084.5 663 982.75 c 128,-1,27
381.993 773 m 128,-1,35
 475.172 773 475.172 773 535.586 835.571 c 128,-1,36
 596 898.143 596 898.143 596 986.018 c 128,-1,37
 596 1073.89 596 1073.89 536.086 1135.95 c 128,-1,38
 476.172 1198 476.172 1198 381.671 1198 c 128,-1,39
 287.169 1198 287.169 1198 227.085 1134.7 c 128,-1,40
 167 1071.39 167 1071.39 167 985.24 c 128,-1,41
 167 899.088 167 899.088 227.907 836.044 c 128,-1,34
 288.814 773 288.814 773 381.993 773 c 128,-1,35
193 476 m 1,42,-1
 1012 839 l 1,43,-1
 1036 785 l 1,44,-1
 217 421 l 1,45,-1
 193 476 l 1,42,-1
EndSplineSet
EndChar

StartChar: ampersand
Encoding: 266 38 10
Width: 1228
Flags: W
LayerCount: 2
Fore
SplineSet
980 504 m 1,0,1
 928.058 354.166 928.058 354.166 855 212 c 1,2,-1
 966 51 l 1,3,-1
 1117 51 l 1,4,-1
 1117 0 l 1,5,-1
 909 0 l 1,6,-1
 808 146 l 1,7,8
 743.423 72.1972 743.423 72.1972 724.211 59.0986 c 128,-1,9
 705 46 705 46 686 33 c 1,10,-1
 685 33 l 1,11,12
 612.083 -17 612.083 -17 526.542 -17 c 0,13,14
 430.178 -17 430.178 -17 387.5 8 c 0,15,16
 332.13 41.6196 332.13 41.6196 295.875 84 c 0,17,18
 231.125 159.631 231.125 159.631 224.875 293 c 0,19,20
 219.292 410.134 219.292 410.134 280.875 488 c 1,21,-1
 279.875 488 l 1,22,23
 349.955 579.716 349.955 579.716 479.875 636 c 1,24,25
 410.403 714.754 410.403 714.754 374.437 791.892 c 0,26,27
 351 842.158 351 842.158 351 893.579 c 128,-1,28
 351 945 351 945 370 986 c 128,-1,29
 389 1027 389 1027 422.5 1056.5 c 0,30,31
 493.475 1119 493.475 1119 606.04 1119 c 128,-1,32
 718.605 1119 718.605 1119 872 1032 c 1,33,-1
 872 913 l 1,34,-1
 815 913 l 1,35,-1
 815 993 l 1,36,37
 778.875 1023 778.875 1023 667.5 1053.5 c 0,38,39
 641.152 1060 641.152 1060 598.5 1060 c 0,40,41
 510.026 1060 510.026 1060 471 1016.5 c 1,42,43
 428 971.5 428 971.5 428 906 c 0,44,45
 428 845.388 428 845.388 475.875 764 c 1,46,-1
 814.875 268 l 1,47,48
 873.179 392.383 873.179 392.383 898.027 453.191 c 128,-1,49
 922.875 514 922.875 514 931.875 556 c 1,50,-1
 1101 555 l 1,51,-1
 1101 504 l 1,52,-1
 980 504 l 1,0,1
520 577 m 1,53,54
 303.875 495.49 303.875 495.49 303.875 301 c 0,55,56
 303.875 190.303 303.875 190.303 360.875 124 c 0,57,58
 428.79 45 428.79 45 533 44 c 0,59,60
 621.875 44 621.875 44 721.875 144 c 0,61,62
 748.375 170.5 748.375 170.5 774.375 200.5 c 1,63,-1
 520 577 l 1,53,54
EndSplineSet
EndChar

StartChar: quotesingle
Encoding: 267 39 11
Width: 1228
Flags: W
LayerCount: 2
Fore
SplineSet
556 592 m 1,0,1
 535.333 891.667 535.333 891.667 519 1153 c 1,2,-1
 710 1153 l 1,3,-1
 671 592 l 1,4,-1
 556 592 l 1,0,1
EndSplineSet
EndChar

StartChar: parenleft
Encoding: 268 40 12
Width: 1228
Flags: W
LayerCount: 2
Fore
SplineSet
883 -208 m 1,0,1
 771.74 -39.1231 771.74 -39.1231 698 178 c 1,2,3
 625 401.171 625 401.171 625 572 c 0,4,5
 625 739.372 625 739.372 697 965 c 1,6,7
 773.512 1188.33 773.512 1188.33 884 1355 c 1,8,-1
 941 1355 l 1,9,10
 928 1329 928 1329 922 1319 c 128,-1,11
 916 1309 916 1309 911.5 1300.5 c 128,-1,12
 907 1292 907 1292 902.5 1284.5 c 128,-1,13
 898 1277 898 1277 890.5 1261.5 c 0,14,15
 813.634 1102.64 813.634 1102.64 777.317 987.822 c 0,16,17
 705 759.181 705 759.181 705 572 c 256,18,19
 705 250.034 705 250.034 895 -123 c 1,20,-1
 913 -160 l 2,21,22
 918 -171 918 -171 925 -182.5 c 128,-1,23
 932 -194 932 -194 939 -208 c 1,24,-1
 883 -208 l 1,0,1
EndSplineSet
EndChar

StartChar: parenright
Encoding: 269 41 13
Width: 1228
Flags: W
LayerCount: 2
Fore
SplineSet
327 -208 m 1,0,1
 339 -187 339 -187 346 -173 c 0,2,3
 358.5 -148 358.5 -148 367.75 -129.5 c 128,-1,4
 377 -111 377 -111 389.5 -85.5 c 0,5,6
 406.96 -49.881 406.96 -49.881 458.48 77.5595 c 0,7,8
 562 333.628 562 333.628 562 572 c 0,9,10
 562 813.75 562 813.75 463 1053 c 1,11,12
 407.914 1195.72 407.914 1195.72 326 1355 c 1,13,-1
 382 1355 l 1,14,15
 566.221 1065.08 566.221 1065.08 623.5 752.5 c 0,16,17
 641 657 641 657 641 572 c 256,18,19
 641 401.057 641 401.057 569 183 c 0,20,21
 499.381 -25.8571 499.381 -25.8571 382 -208 c 1,22,-1
 327 -208 l 1,0,1
EndSplineSet
EndChar

StartChar: asterisk
Encoding: 270 42 14
Width: 1228
Flags: W
LayerCount: 2
Fore
SplineSet
647 820 m 1,0,-1
 960 934 l 1,1,-1
 989 845 l 1,2,-1
 667 755 l 1,3,-1
 876 495 l 1,4,-1
 799 438 l 1,5,-1
 613 718 l 1,6,7
 566.548 650.645 566.548 650.645 427 438 c 1,8,9
 387.227 466.636 387.227 466.636 350 495 c 1,10,-1
 559 755 l 1,11,-1
 235 846 l 1,12,-1
 265 934 l 1,13,-1
 579 820 l 1,14,15
 570.571 971.715 570.571 971.715 566 1150 c 1,16,-1
 660 1150 l 1,17,-1
 647 820 l 1,0,-1
EndSplineSet
EndChar

StartChar: plus
Encoding: 271 43 15
Width: 1228
Flags: W
LayerCount: 2
Fore
SplineSet
1097 590 m 1,0,-1
 644 590 l 1,1,-1
 644 147 l 1,2,-1
 586 147 l 1,3,-1
 586 590 l 1,4,-1
 133 590 l 1,5,-1
 133 648 l 1,6,-1
 586 648 l 1,7,-1
 586 1092 l 1,8,-1
 644 1092 l 1,9,-1
 644 648 l 1,10,-1
 1097 648 l 1,11,-1
 1097 590 l 1,0,-1
EndSplineSet
EndChar

StartChar: comma
Encoding: 272 44 16
Width: 1228
Flags: W
LayerCount: 2
Fore
SplineSet
390 -201 m 1,0,-1
 538 272 l 1,1,-1
 706 272 l 1,2,-1
 493 -201 l 1,3,-1
 390 -201 l 1,0,-1
EndSplineSet
EndChar

StartChar: hyphen
Encoding: 273 45 17
Width: 1228
Flags: W
LayerCount: 2
Fore
SplineSet
816 581 m 1,0,-1
 408 581 l 1,1,-1
 408 649 l 1,2,-1
 816 649 l 1,3,-1
 816 581 l 1,0,-1
EndSplineSet
EndChar

StartChar: period
Encoding: 274 46 18
Width: 1228
Flags: W
LayerCount: 2
Fore
SplineSet
754 105 m 256,0,1
 754 54.1053 754 54.1053 713 18.5 c 128,-1,2
 672.121 -17 672.121 -17 614 -17 c 256,3,4
 555.879 -17 555.879 -17 525.939 9 c 0,5,6
 474 54.1053 474 54.1053 474 105 c 256,7,8
 474 155.895 474 155.895 515 191.5 c 128,-1,9
 555.879 227 555.879 227 614 227 c 256,10,11
 672.121 227 672.121 227 702.061 201 c 0,12,13
 754 155.895 754 155.895 754 105 c 256,0,1
EndSplineSet
EndChar

StartChar: slash
Encoding: 275 47 19
Width: 1228
Flags: W
LayerCount: 2
Fore
SplineSet
220 -242 m 1,0,-1
 984 1420 l 1,1,-1
 1031 1401 l 1,2,-1
 266 -264 l 1,3,-1
 220 -242 l 1,0,-1
EndSplineSet
EndChar

StartChar: zero
Encoding: 276 48 20
Width: 1228
Flags: W
LayerCount: 2
Fore
SplineSet
1000 635 m 0,0,1
 1000 311.75 1000 311.75 900 143 c 1,2,3
 804.8 -27 804.8 -27 613 -27 c 0,4,5
 424.75 -27 424.75 -27 325 144 c 1,6,7
 227 316.345 227 316.345 227 640 c 0,8,9
 227 1052 227 1052 393 1218 c 1,10,11
 485.912 1299 485.912 1299 613 1299 c 0,12,13
 672.727 1299 672.727 1299 725.364 1280 c 128,-1,14
 778 1261 778 1261 811 1235 c 128,-1,15
 844 1209 844 1209 870 1175.5 c 0,16,17
 917.606 1114.16 917.606 1114.16 958.803 985.883 c 128,-1,18
 1000 857.604 1000 857.604 1000 635 c 0,0,1
935 638 m 0,19,20
 935 839.333 935 839.333 901 964 c 1,21,22
 893 998 893 998 881 1027 c 1,23,24
 803.414 1252 803.414 1252 613 1252 c 0,25,26
 356.097 1252 356.097 1252 305 856 c 0,27,28
 291 747.5 291 747.5 291 664.25 c 0,29,30
 291 360.043 291 360.043 364 195 c 1,31,32
 402.975 112.719 402.975 112.719 446.488 79.3595 c 0,33,34
 523.913 20 523.913 20 601.957 20 c 128,-1,35
 680 20 680 20 727.5 47.5 c 128,-1,36
 775 75 775 75 804.5 109 c 128,-1,37
 834 143 834 143 855.5 185.5 c 0,38,39
 935 342.651 935 342.651 935 638 c 0,19,20
315 -97 m 1,40,41
 555.484 533.001 555.484 533.001 864 1330 c 1,42,-1
 915 1311 l 1,43,-1
 367 -118 l 1,44,-1
 315 -97 l 1,40,41
EndSplineSet
EndChar

StartChar: one
Encoding: 277 49 21
Width: 1228
Flags: W
LayerCount: 2
Fore
SplineSet
223 1094 m 1,0,-1
 624 1272 l 1,1,-1
 662 1272 l 1,2,-1
 662 51 l 1,3,-1
 1032 51 l 1,4,-1
 1032 0 l 1,5,-1
 227 0 l 1,6,-1
 227 51 l 1,7,-1
 605 51 l 1,8,-1
 605 1211 l 1,9,-1
 245 1044 l 1,10,11
 226.333 1086.67 226.333 1086.67 223 1094 c 1,0,-1
EndSplineSet
EndChar

StartChar: two
Encoding: 278 50 22
Width: 1228
Flags: W
LayerCount: 2
Fore
SplineSet
392 1167 m 1,0,1
 285.02 1110.23 285.02 1110.23 275 990 c 1,2,-1
 214 990 l 1,3,-1
 214 1098 l 1,4,5
 344.029 1247.73 344.029 1247.73 519.5 1269 c 0,6,7
 536 1271 536 1271 544 1272.5 c 128,-1,8
 552 1274 552 1274 562.5 1274 c 2,9,-1
 581 1274 l 2,10,11
 679 1274 679 1274 766 1229 c 128,-1,12
 853 1184 853 1184 910 1096 c 128,-1,13
 967 1008 967 1008 967 898 c 0,14,15
 967 806.333 967 806.333 929.5 735.5 c 0,16,17
 916 710 916 710 894 675.5 c 128,-1,18
 872 641 872 641 812.5 583 c 128,-1,19
 753 525 753 525 689 463 c 128,-1,20
 625 401 625 401 573.5 353 c 128,-1,21
 522 305 522 305 466.5 255 c 0,22,23
 341.281 142.19 341.281 142.19 239 60 c 1,24,-1
 239 51 l 1,25,-1
 913 51 l 1,26,-1
 913 265 l 1,27,-1
 965 265 l 1,28,-1
 965 0 l 1,29,-1
 171 0 l 1,30,-1
 171 78 l 1,31,32
 283.865 175.297 283.865 175.297 419.932 299.149 c 0,33,34
 718.447 570.862 718.447 570.862 828.5 692.5 c 0,35,36
 857 724 857 724 871 757.5 c 0,37,38
 900 826.893 900 826.893 900 904.946 c 128,-1,39
 900 983 900 983 867 1046 c 128,-1,40
 834 1109 834 1109 781 1147 c 1,41,-1
 781 1146 l 1,42,43
 686.579 1215 686.579 1215 576 1215 c 0,44,45
 478.429 1215 478.429 1215 391 1167 c 1,46,-1
 392 1167 l 1,0,1
EndSplineSet
EndChar

StartChar: three
Encoding: 279 51 23
Width: 1228
Flags: W
LayerCount: 2
Fore
SplineSet
199 112 m 1,0,1
 401.222 21 401.222 21 542.111 21 c 128,-1,2
 683 21 683 21 786.5 106.5 c 128,-1,3
 890 192 890 192 890 341 c 0,4,5
 890 487.811 890 487.811 770 576 c 1,6,7
 724.361 605.902 724.361 605.902 691 615 c 1,8,-1
 693 615 l 1,9,10
 629 637 629 637 532 637 c 2,11,-1
 500 637 l 1,12,-1
 500 687 l 1,13,14
 630 692 630 692 693.5 734 c 0,15,16
 820 817.669 820 817.669 820 946.335 c 128,-1,17
 820 1075 820 1075 738 1149 c 1,18,19
 652.909 1221 652.909 1221 538 1221 c 1,20,21
 430.265 1223.51 430.265 1223.51 303 1147.5 c 0,22,23
 267 1126 267 1126 233 1104 c 1,24,25
 230 1108.67 230 1108.67 207 1147 c 1,26,27
 284.143 1196.71 284.143 1196.71 368.571 1234.36 c 128,-1,28
 453 1272 453 1272 528.5 1272 c 128,-1,29
 604 1272 604 1272 665.5 1251 c 128,-1,30
 727 1230 727 1230 775.5 1190 c 0,31,32
 883 1101.34 883 1101.34 883 961 c 0,33,34
 883 815.693 883 815.693 774.5 726 c 0,35,36
 737 695 737 695 685 673 c 1,37,38
 775.75 648.25 775.75 648.25 835.5 588.5 c 0,39,40
 854 570 854 570 880.5 541.5 c 0,41,42
 949 467.83 949 467.83 949 345 c 0,43,44
 949 176 949 176 833 72.5 c 128,-1,45
 717 -31 717 -31 540 -31 c 0,46,47
 430.059 -31 430.059 -31 311 13 c 1,48,-1
 312 12 l 1,49,50
 251.71 34.9677 251.71 34.9677 179 65 c 1,51,-1
 199 112 l 1,0,1
EndSplineSet
EndChar

StartChar: four
Encoding: 280 52 24
Width: 1228
Flags: W
LayerCount: 2
Fore
SplineSet
186 373 m 1,0,1
 677.636 1202.64 677.636 1202.64 719 1272 c 1,2,-1
 777 1272 l 1,3,-1
 777 369 l 1,4,-1
 972 369 l 1,5,-1
 972 316 l 1,6,-1
 777 316 l 1,7,-1
 777 51 l 1,8,-1
 972 51 l 1,9,-1
 972 0 l 1,10,-1
 431 0 l 1,11,-1
 431 51 l 1,12,-1
 723 51 l 1,13,-1
 723 316 l 1,14,-1
 186 316 l 1,15,-1
 186 373 l 1,0,1
723 369 m 1,16,-1
 723 1178 l 1,17,-1
 719 1178 l 1,18,-1
 244 369 l 1,19,-1
 723 369 l 1,16,-1
EndSplineSet
EndChar

StartChar: five
Encoding: 281 53 25
Width: 1228
Flags: W
LayerCount: 2
Fore
SplineSet
310 708 m 1,0,1
 484.389 781 484.389 781 597 781 c 0,2,3
 778 781 778 781 888 665.5 c 128,-1,4
 998 550 998 550 998 382 c 0,5,6
 998 189.727 998 189.727 863 67 c 1,7,8
 751 -31 751 -31 569 -31 c 0,9,10
 469 -31 469 -31 408 -14.5 c 0,11,12
 278.284 20.587 278.284 20.587 193 55 c 1,13,-1
 214 106 l 1,14,15
 396 27 396 27 569 27 c 128,-1,16
 742 27 742 27 837.5 124.5 c 128,-1,17
 933 222 933 222 933 373 c 128,-1,18
 933 524 933 524 837.089 627 c 128,-1,19
 741.178 730 741.178 730 586.089 730 c 128,-1,20
 431 730 431 730 290 630 c 1,21,22
 279 636 279 636 263 646 c 1,23,-1
 263 1241 l 1,24,-1
 936 1241 l 1,25,-1
 936 1188 l 1,26,-1
 310 1188 l 1,27,-1
 310 708 l 1,0,1
EndSplineSet
EndChar

StartChar: six
Encoding: 282 54 26
Width: 1228
Flags: W
LayerCount: 2
Fore
SplineSet
991 1218 m 1,0,1
 943.5 1221 l 1,2,3
 921.75 1221 921.75 1221 900 1221 c 0,4,5
 288.931 1225.24 288.931 1225.24 274 516 c 1,6,-1
 256 489 l 1,7,8
 307.736 614.645 307.736 614.645 423.5 688 c 0,9,10
 522.922 751 522.922 751 612.461 751 c 128,-1,11
 702 751 702 751 766.5 718.5 c 128,-1,12
 831 686 831 686 878 631.5 c 0,13,14
 978 515.543 978 515.543 978 355 c 0,15,16
 978 198.729 978 198.729 875 85 c 0,17,18
 769.943 -31 769.943 -31 620 -31 c 0,19,20
 472 -31 472 -31 356.5 84.5 c 0,21,22
 210 231 210 231 210 537 c 0,23,24
 210 980.843 210 980.843 495 1180 c 1,25,26
 578 1236 578 1236 658.5 1252 c 0,27,28
 798.874 1279.9 798.874 1279.9 911 1278 c 1,29,-1
 950 1278 l 2,30,31
 969 1278 969 1278 991 1277 c 1,32,-1
 991 1218 l 1,0,1
352 561 m 1,33,34
 312 515 312 515 281 438 c 1,35,36
 294.791 158.733 294.791 158.733 484 61.5 c 0,37,38
 551.135 27 551.135 27 615.568 27 c 128,-1,39
 680 27 680 27 733 50.5 c 128,-1,40
 786 74 786 74 825.5 117.5 c 0,41,42
 911 211.658 911 211.658 911 355 c 0,43,44
 911 491.158 911 491.158 829 591.5 c 0,45,46
 746.054 693 746.054 693 625 693 c 0,47,48
 525.889 693 525.889 693 431 632 c 0,49,50
 389 605 389 605 351 559 c 1,51,-1
 352 561 l 1,33,34
EndSplineSet
EndChar

StartChar: seven
Encoding: 283 55 27
Width: 1228
Flags: W
LayerCount: 2
Fore
SplineSet
600 0 m 1,0,-1
 531 0 l 1,1,-1
 962 1190 l 1,2,-1
 269 1190 l 1,3,-1
 269 1011 l 1,4,-1
 214 1011 l 1,5,-1
 214 1241 l 1,6,-1
 1014 1241 l 1,7,-1
 1014 1191 l 1,8,-1
 600 0 l 1,0,-1
EndSplineSet
EndChar

StartChar: eight
Encoding: 284 56 28
Width: 1228
Flags: W
LayerCount: 2
Fore
SplineSet
333 752 m 1,0,1
 264 834.8 264 834.8 264 957.9 c 128,-1,2
 264 1081 264 1081 369 1178 c 128,-1,3
 474 1275 474 1275 631 1275 c 128,-1,4
 788 1275 788 1275 895 1176 c 1,5,6
 1001 1082 1001 1082 1001 945 c 0,7,8
 1001 872.826 1001 872.826 954 787 c 256,9,10
 910.271 707.148 910.271 707.148 774 633 c 1,11,12
 917.726 569.76 917.726 569.76 972 480 c 1,13,14
 1025 389 1025 389 1025 319 c 0,15,16
 1025 197.298 1025 197.298 929 87 c 0,17,18
 883 34 883 34 806 1.5 c 128,-1,19
 729 -31 729 -31 632 -31 c 256,20,21
 438.642 -31 438.642 -31 334 87 c 1,22,23
 239 201 239 201 239 301.5 c 128,-1,24
 239 402 239 402 295 487 c 1,25,-1
 295 486 l 1,26,27
 353.954 573.415 353.954 573.415 491 633 c 1,28,29
 397.717 681.67 397.717 681.67 333 754 c 1,30,-1
 333 752 l 1,0,1
843 741 m 0,31,32
 935 823.213 935 823.213 935 948.606 c 128,-1,33
 935 1074 935 1074 842.5 1149 c 128,-1,34
 750 1224 750 1224 650 1224 c 128,-1,35
 550 1224 550 1224 492.5 1196 c 128,-1,36
 435 1168 435 1168 398.5 1126 c 0,37,38
 329 1046.03 329 1046.03 329 942 c 0,39,40
 329 838.93 329 838.93 414 748 c 1,41,42
 500 659 500 659 625 659 c 128,-1,43
 750 659 750 659 843 741 c 0,31,32
870 517 m 1,44,45
 780 609 780 609 632 609 c 0,46,47
 471.8 609 471.8 609 386 510 c 1,48,49
 306 419.744 306 419.744 306 308 c 0,50,51
 306 197.062 306 197.062 400.5 109.031 c 128,-1,52
 495 21 495 21 632 21 c 256,53,54
 769 21 769 21 862 108 c 0,55,56
 958 198 958 198 958 311.5 c 128,-1,57
 958 425 958 425 870 517 c 1,44,45
EndSplineSet
EndChar

StartChar: nine
Encoding: 285 57 29
Width: 1228
Flags: W
LayerCount: 2
Fore
SplineSet
169 28 m 1,0,1
 193 25 193 25 209.5 25 c 0,2,3
 234.75 25 234.75 25 260 25 c 0,4,5
 559.513 22.92 559.513 22.92 713 186 c 0,6,7
 878.285 361.615 878.285 361.615 886 730 c 1,8,-1
 904 757 l 1,9,10
 849.732 629.751 849.732 629.751 736.5 558 c 0,11,12
 637.078 495 637.078 495 547.539 495 c 128,-1,13
 458 495 458 495 393.5 527.5 c 128,-1,14
 329 560 329 560 282 614.5 c 0,15,16
 182 730.457 182 730.457 182 891 c 0,17,18
 182 1048.38 182 1048.38 284 1161 c 0,19,20
 389.057 1277 389.057 1277 540 1277 c 0,21,22
 688 1277 688 1277 803.5 1161.5 c 0,23,24
 950 1015 950 1015 950 709 c 0,25,26
 950 400.692 950 400.692 800 193 c 1,27,28
 748 124 748 124 665 67 c 128,-1,29
 582 10 582 10 501.5 -6 c 0,30,31
 361.126 -33.9004 361.126 -33.9004 249 -32 c 1,32,-1
 210 -32 l 2,33,34
 191 -32 191 -32 169 -31 c 1,35,-1
 169 28 l 1,0,1
808 685 m 1,36,37
 848.897 731.74 848.897 731.74 879 808 c 1,38,39
 861.648 1089.1 861.648 1089.1 676 1184.5 c 0,40,41
 608.865 1219 608.865 1219 544.432 1219 c 128,-1,42
 480 1219 480 1219 427 1195.5 c 128,-1,43
 374 1172 374 1172 334.5 1128.5 c 0,44,45
 249 1034.34 249 1034.34 249 891 c 0,46,47
 249 754.842 249 754.842 331 654.5 c 0,48,49
 413.946 553 413.946 553 535 553 c 0,50,51
 633.113 553 633.113 553 729 613.5 c 0,52,53
 771 640 771 640 809 687 c 1,54,-1
 808 685 l 1,36,37
EndSplineSet
EndChar

StartChar: colon
Encoding: 286 58 30
Width: 1228
Flags: W
LayerCount: 2
Fore
SplineSet
754 105 m 256,0,1
 754 54.1053 754 54.1053 713 18.5 c 128,-1,2
 672.121 -17 672.121 -17 614 -17 c 256,3,4
 555.879 -17 555.879 -17 525.939 9 c 0,5,6
 474 54.1053 474 54.1053 474 105 c 256,7,8
 474 155.895 474 155.895 515 191.5 c 128,-1,9
 555.879 227 555.879 227 614 227 c 256,10,11
 672.121 227 672.121 227 702.061 201 c 0,12,13
 754 155.895 754 155.895 754 105 c 256,0,1
754 659 m 256,14,15
 754 608.105 754 608.105 713 572.5 c 128,-1,16
 672.121 537 672.121 537 614 537 c 256,17,18
 555.879 537 555.879 537 525.939 563 c 0,19,20
 474 608.105 474 608.105 474 659 c 256,21,22
 474 709.895 474 709.895 515 745.5 c 128,-1,23
 555.879 781 555.879 781 614 781 c 256,24,25
 672.121 781 672.121 781 702.061 755 c 0,26,27
 754 709.895 754 709.895 754 659 c 256,14,15
EndSplineSet
EndChar

StartChar: semicolon
Encoding: 287 59 31
Width: 1228
Flags: W
LayerCount: 2
Fore
SplineSet
392 -221 m 1,0,-1
 542 252 l 1,1,-1
 707 252 l 1,2,-1
 493 -221 l 1,3,-1
 392 -221 l 1,0,-1
754 660 m 256,4,5
 754 609.105 754 609.105 713 573.5 c 128,-1,6
 672.121 538 672.121 538 614 538 c 256,7,8
 555.879 538 555.879 538 525.939 564 c 0,9,10
 474 609.105 474 609.105 474 660 c 256,11,12
 474 710.895 474 710.895 515 746.5 c 128,-1,13
 555.879 782 555.879 782 614 782 c 256,14,15
 672.121 782 672.121 782 702.061 756 c 0,16,17
 754 710.895 754 710.895 754 660 c 256,4,5
EndSplineSet
EndChar

StartChar: less
Encoding: 288 60 32
Width: 1228
Flags: W
LayerCount: 2
Fore
SplineSet
267 631 m 1,0,1
 947.935 317.5 947.935 317.5 1096 250 c 1,2,-1
 1073 201 l 1,3,4
 920.544 270.52 920.544 270.52 709.772 369.26 c 0,5,6
 310.944 556.098 310.944 556.098 148 631 c 1,7,-1
 1064 1068 l 1,8,9
 1074.67 1045.33 1074.67 1045.33 1088 1016 c 1,10,-1
 267 631 l 1,0,1
EndSplineSet
EndChar

StartChar: equal
Encoding: 289 61 33
Width: 1228
Flags: W
LayerCount: 2
Fore
SplineSet
1080 800 m 1,0,-1
 146 800 l 1,1,-1
 146 857 l 1,2,-1
 1080 857 l 1,3,-1
 1080 800 l 1,0,-1
1080 407 m 1,4,-1
 146 407 l 1,5,-1
 146 464 l 1,6,-1
 1080 464 l 1,7,-1
 1080 407 l 1,4,-1
EndSplineSet
EndChar

StartChar: greater
Encoding: 290 62 34
Width: 1228
Flags: W
LayerCount: 2
Fore
SplineSet
134 1021 m 1,0,-1
 156 1070 l 1,1,-1
 1105 630 l 1,2,-1
 156 178 l 1,3,4
 144.625 205.625 144.625 205.625 134 229 c 1,5,-1
 986 630 l 1,6,7
 336 929 336 929 134 1021 c 1,0,-1
EndSplineSet
EndChar

StartChar: question
Encoding: 291 63 35
Width: 1228
Flags: W
LayerCount: 2
Fore
SplineSet
575 368 m 1,0,-1
 520 368 l 1,1,-1
 520 532 l 1,2,3
 555 541 555 541 582.5 548 c 128,-1,4
 610 555 610 555 657.5 569 c 128,-1,5
 705 583 705 583 753 607.5 c 128,-1,6
 801 632 801 632 834.5 666.5 c 0,7,8
 905 739.104 905 739.104 905 847 c 0,9,10
 905 1014.11 905 1014.11 741 1087 c 0,11,12
 678 1115 678 1115 567.5 1115 c 128,-1,13
 457 1115 457 1115 308 1054 c 1,14,-1
 308 924 l 1,15,-1
 251 924 l 1,16,-1
 251 1101 l 1,17,18
 434.563 1161.18 434.563 1161.18 483.782 1165.59 c 128,-1,19
 533 1170 533 1170 600 1170 c 128,-1,20
 667 1170 667 1170 739 1143 c 128,-1,21
 811 1116 811 1116 861 1071 c 0,22,23
 964.916 977.476 964.916 977.476 967 842 c 1,24,25
 959.14 637.642 959.14 637.642 723 541.5 c 0,26,27
 653 513 653 513 575 491 c 1,28,-1
 575 368 l 1,0,-1
611 -19.5 m 0,29,30
 580 -37 580 -37 548 -37 c 128,-1,31
 516 -37 516 -37 493.5 -28.5 c 128,-1,32
 471 -20 471 -20 454 -5.5 c 0,33,34
 417 26.0588 417 26.0588 417 60.0294 c 128,-1,35
 417 94 417 94 427 114 c 128,-1,36
 437 134 437 134 454.5 148 c 0,37,38
 493.25 179 493.25 179 530.625 179 c 128,-1,39
 568 179 568 179 591 170.5 c 128,-1,40
 614 162 614 162 630.5 148 c 0,41,42
 666 117.879 666 117.879 666 64.7136 c 128,-1,43
 666 11.5484 666 11.5484 611 -19.5 c 0,29,30
EndSplineSet
EndChar

StartChar: at
Encoding: 292 64 36
Width: 1228
Flags: W
LayerCount: 2
Fore
SplineSet
780 679 m 1,0,1
 802.857 759 802.857 759 814 811 c 1,2,-1
 874 811 l 1,3,-1
 789 506 l 1,4,5
 766 414 766 414 766 397.5 c 128,-1,6
 766 381 766 381 765.5 371.5 c 128,-1,7
 765 362 765 362 767.5 351.5 c 0,8,9
 773.532 326.165 773.532 326.165 793.266 308.083 c 0,10,11
 829.37 275 829.37 275 887 275 c 0,12,13
 1001.43 275 1001.43 275 1071.5 438.5 c 0,14,15
 1098.99 502.643 1098.99 502.643 1101.49 609.821 c 0,16,17
 1107.3 858.392 1107.3 858.392 890.5 993.5 c 0,18,19
 785.395 1059 785.395 1059 645.698 1059 c 128,-1,20
 506 1059 506 1059 408 1012.5 c 128,-1,21
 310 966 310 966 247 889.5 c 0,22,23
 125 741.357 125 741.357 125 517 c 0,24,25
 125 318.661 125 318.661 241 183 c 0,26,27
 371.826 30 371.826 30 607 30 c 0,28,29
 808.233 30 808.233 30 1038 152 c 1,30,31
 1050 160 1050 160 1060 165 c 1,32,-1
 1084 120 l 1,33,34
 832.065 -22 832.065 -22 600 -22 c 0,35,36
 469 -22 469 -22 365.5 24.5 c 128,-1,37
 262 71 262 71 199 150 c 0,38,39
 131.955 233.806 131.955 233.806 109.978 296.903 c 0,40,41
 72 405.935 72 405.935 72 523.468 c 0,42,43
 72 771.671 72 771.671 221 937 c 1,44,45
 374.778 1110 374.778 1110 646 1110 c 0,46,47
 942 1110 942 1110 1082 874 c 0,48,49
 1151 759 1151 759 1151 596 c 0,50,51
 1151 456 1151 456 1081 348 c 0,52,53
 980.37 192.742 980.37 192.742 815.5 238 c 0,54,55
 761.326 252.871 761.326 252.871 727.5 304.5 c 0,56,57
 705.387 338.252 705.387 338.252 709 378 c 1,58,59
 682.196 312.479 682.196 312.479 618 261.5 c 0,60,61
 572.037 225 572.037 225 504 225 c 0,62,63
 458.5 225 458.5 225 413 260 c 1,64,65
 358 305.833 358 305.833 358 417 c 0,66,67
 358 508.579 358 508.579 387.5 578.289 c 0,68,69
 490.633 822 490.633 822 651 822 c 0,70,71
 703.136 822 703.136 822 744.5 770 c 0,72,73
 782.289 722.494 782.289 722.494 780 679 c 1,0,1
512 278 m 0,74,75
 574 278 574 278 629 339.5 c 128,-1,76
 684 401 684 401 705 462 c 0,77,78
 742 569.476 742 569.476 742 615.238 c 128,-1,79
 742 661 742 661 733.5 685.5 c 128,-1,80
 725 710 725 710 710.5 727.5 c 0,81,82
 679.429 765 679.429 765 644.214 765 c 0,83,84
 568.273 765 568.273 765 520 706 c 0,85,86
 413 578.423 413 578.423 413 408 c 0,87,88
 413 318.951 413 318.951 465.5 289.5 c 0,89,90
 486 278 486 278 512 278 c 0,74,75
EndSplineSet
EndChar

StartChar: A
Encoding: 293 65 37
Width: 1228
Flags: W
LayerCount: 2
Fore
SplineSet
1208 0 m 1,0,-1
 820 0 l 1,1,-1
 820 50 l 1,2,-1
 1049 50 l 1,3,-1
 909 398 l 1,4,-1
 322 398 l 1,5,-1
 182 50 l 1,6,-1
 407 50 l 1,7,-1
 407 0 l 1,8,-1
 19 0 l 1,9,-1
 19 50 l 1,10,-1
 124 50 l 1,11,-1
 557 1103 l 1,12,-1
 239 1103 l 1,13,-1
 239 1153 l 1,14,-1
 657 1153 l 1,15,-1
 1108 50 l 1,16,-1
 1208 50 l 1,17,-1
 1208 0 l 1,0,-1
893 441 m 1,18,-1
 618 1103 l 1,19,-1
 613 1103 l 1,20,-1
 340 441 l 1,21,-1
 893 441 l 1,18,-1
EndSplineSet
EndChar

StartChar: B
Encoding: 294 66 38
Width: 1228
Flags: W
LayerCount: 2
Fore
SplineSet
271 50 m 1,0,-1
 271 1103 l 1,1,-1
 94 1103 l 1,2,-1
 94 1153 l 1,3,-1
 652 1153 l 2,4,5
 847.55 1153 847.55 1153 943 1070 c 1,6,7
 1035 986.178 1035 986.178 1035 868 c 0,8,9
 1035 766.577 1035 766.577 978 703 c 1,10,11
 902.478 621.884 902.478 621.884 800 602 c 1,12,13
 948.975 580.718 948.975 580.718 1032 494.5 c 0,14,15
 1110 413.5 1110 413.5 1110 304 c 0,16,17
 1110 180.12 1110 180.12 1029 97.5 c 0,18,19
 966.364 33.6117 966.364 33.6117 842 11 c 1,20,21
 767.2 1.79515e-06 767.2 1.79515e-06 633 0 c 2,22,-1
 94 0 l 1,23,-1
 94 50 l 1,24,-1
 271 50 l 1,0,-1
638 625 m 1,25,26
 874.468 628.583 874.468 628.583 942 754 c 1,27,-1
 942 753 l 1,28,29
 975 808.5 975 808.5 975 864.25 c 0,30,31
 975 1004.03 975 1004.03 857.5 1061 c 0,32,33
 772.938 1102 772.938 1102 683 1102 c 1,34,35
 676 1103 676 1103 666 1103 c 2,36,-1
 329 1103 l 1,37,-1
 329 625 l 1,38,-1
 638 625 l 1,25,26
699 50 m 1,39,40
 718.13 51.913 718.13 51.913 736.065 52.4565 c 128,-1,41
 754 53 754 53 776.5 55 c 0,42,43
 952.183 70.6162 952.183 70.6162 1014.5 172.5 c 0,44,45
 1046 224 1046 224 1050 303 c 1,46,47
 1050 443 1050 443 927 511 c 1,48,-1
 928 511 l 1,49,50
 813 575 813 575 621 575 c 2,51,-1
 329 575 l 1,52,-1
 329 50 l 1,53,-1
 699 50 l 1,39,40
EndSplineSet
EndChar

StartChar: C
Encoding: 295 67 39
Width: 1228
Flags: W
LayerCount: 2
Fore
SplineSet
687 21 m 0,0,1
 930.367 21 930.367 21 1170 227 c 1,2,-1
 1209 188 l 1,3,4
 1085.63 78.126 1085.63 78.126 961 23 c 1,5,-1
 960 23 l 1,6,7
 823.2 -37 823.2 -37 687 -37 c 0,8,9
 500.779 -37 500.779 -37 355.5 74 c 0,10,11
 311 108 311 108 277 149 c 1,12,13
 135 332.765 135 332.765 135 591 c 0,14,15
 135 845.94 135 845.94 297 1015.5 c 0,16,17
 453.95 1179.77 453.95 1179.77 683 1190 c 1,18,19
 891.634 1184.44 891.634 1184.44 996 1041.5 c 4,20,21
 1019 1010 1019 1010 1036 969 c 5,22,-1
 1027 973 l 5,23,24
 1024 1004.5 1024 1004.5 1024 1063 c 5,25,-1
 1025 1118 l 6,26,27
 1026 1135 1026 1135 1026 1148.5 c 132,-1,28
 1026 1162 1026 1162 1028 1176 c 5,29,-1
 1081 1176 l 5,30,-1
 1078 1133 l 5,31,32
 1069.55 972.372 1069.55 972.372 1091 813 c 5,33,-1
 1047 805 l 5,34,35
 1023.19 914.893 1023.19 914.893 969 995 c 5,36,37
 864.716 1132 864.716 1132 679 1132 c 0,38,39
 570 1132 570 1132 479 1089 c 128,-1,40
 388 1046 388 1046 327.5 972 c 0,41,42
 201 817.273 201 817.273 201 593 c 0,43,44
 201 440.812 201 440.812 260 297 c 1,45,46
 334.057 129.283 334.057 129.283 489.5 60 c 0,47,48
 577 21 577 21 687 21 c 0,0,1
EndSplineSet
EndChar

StartChar: D
Encoding: 296 68 40
Width: 1228
Flags: W
LayerCount: 2
Fore
SplineSet
240 50 m 1,0,-1
 240 1103 l 1,1,-1
 72 1103 l 1,2,-1
 72 1153 l 1,3,-1
 581 1153 l 2,4,5
 732.571 1153 732.571 1153 804.786 1131.5 c 128,-1,6
 877 1110 877 1110 919 1078.5 c 128,-1,7
 961 1047 961 1047 999 1002 c 1,8,9
 1126 837.525 1126 837.525 1126 599 c 0,10,11
 1126 282.405 1126 282.405 956 117 c 1,12,13
 865.826 32.9738 865.826 32.9738 746 15 c 1,14,15
 656 3.15944e-07 656 3.15944e-07 572 0 c 2,16,-1
 72 0 l 1,17,-1
 72 50 l 1,18,-1
 240 50 l 1,0,-1
572 50 m 2,19,20
 663.2 50 663.2 50 720.1 61 c 0,21,22
 835.264 83.2636 835.264 83.2636 906.132 154.132 c 0,23,24
 1061 309 1061 309 1061 593 c 0,25,26
 1061 808 1061 808 956 954 c 1,27,28
 888 1046 888 1046 805 1076 c 1,29,30
 725.929 1103 725.929 1103 583 1103 c 2,31,-1
 297 1103 l 1,32,-1
 297 50 l 1,33,-1
 572 50 l 2,19,20
EndSplineSet
EndChar

StartChar: E
Encoding: 297 69 41
Width: 1228
Flags: W
LayerCount: 2
Fore
SplineSet
1044 50 m 1,0,-1
 1056 343 l 1,1,-1
 1104 343 l 1,2,-1
 1104 0 l 1,3,-1
 120 0 l 1,4,-1
 120 50 l 1,5,-1
 301 50 l 1,6,-1
 301 1103 l 1,7,-1
 120 1103 l 1,8,-1
 120 1153 l 1,9,-1
 1085 1153 l 1,10,-1
 1093 810 l 1,11,-1
 1043 810 l 1,12,-1
 1021 1103 l 1,13,-1
 358 1103 l 1,14,-1
 358 635 l 1,15,-1
 754 635 l 1,16,-1
 754 792 l 1,17,-1
 802 792 l 1,18,-1
 802 432 l 1,19,-1
 754 432 l 1,20,-1
 754 585 l 1,21,-1
 358 585 l 1,22,-1
 358 50 l 1,23,-1
 1044 50 l 1,0,-1
EndSplineSet
EndChar

StartChar: F
Encoding: 298 70 42
Width: 1228
Flags: W
LayerCount: 2
Fore
SplineSet
1103 1153 m 1,0,-1
 1114 818 l 1,1,-1
 1066 818 l 1,2,-1
 1040 1103 l 1,3,-1
 381 1103 l 1,4,-1
 381 635 l 1,5,-1
 778 635 l 1,6,-1
 778 792 l 1,7,-1
 826 792 l 1,8,-1
 826 432 l 1,9,-1
 778 432 l 1,10,-1
 778 585 l 1,11,-1
 381 585 l 1,12,-1
 381 50 l 1,13,-1
 659 50 l 1,14,-1
 659 0 l 1,15,-1
 151 0 l 1,16,-1
 151 50 l 1,17,-1
 324 50 l 1,18,-1
 324 1103 l 1,19,-1
 151 1103 l 1,20,-1
 151 1153 l 1,21,-1
 1103 1153 l 1,0,-1
EndSplineSet
EndChar

StartChar: G
Encoding: 299 71 43
Width: 1228
Flags: W
LayerCount: 2
Fore
SplineSet
1060 814 m 1,0,1
 1039 811 1039 811 1019 806 c 1,2,3
 999.348 899.348 999.348 899.348 975.174 944.674 c 128,-1,4
 951 990 951 990 915.5 1030.5 c 0,5,6
 831.467 1126.37 831.467 1126.37 640 1132 c 1,7,8
 435 1132 435 1132 300.5 973.5 c 128,-1,9
 166 815 166 815 166 573 c 0,10,11
 166 331.4 166 331.4 290.5 182 c 0,12,13
 424.667 21 424.667 21 670 21 c 0,14,15
 805 21 805 21 1022 95 c 1,16,-1
 1022 428 l 1,17,-1
 706 428 l 1,18,-1
 706 478 l 1,19,-1
 1183 478 l 1,20,-1
 1183 428 l 1,21,-1
 1080 428 l 1,22,-1
 1080 59 l 1,23,24
 847 -37 847 -37 668 -37 c 0,25,26
 428.933 -37 428.933 -37 286 97 c 1,27,-1
 287 97 l 1,28,29
 222 160 222 160 180 239 c 1,30,-1
 180 238 l 1,31,32
 100 385.273 100 385.273 100 571 c 0,33,34
 100 808.328 100 808.328 241 1000 c 1,35,36
 350.057 1131.51 350.057 1131.51 524.5 1175.5 c 0,37,38
 594.752 1193.22 594.752 1193.22 648.5 1190 c 0,39,40
 899.545 1173.74 899.545 1173.74 993 1003 c 1,41,42
 999 994.5 999 994.5 1003.5 994.5 c 1,43,44
 1006.5 997.5 1006.5 997.5 1002.5 1131.5 c 0,45,46
 1002.41 1154.76 1002.41 1154.76 1005 1177 c 1,47,-1
 1060 1177 l 1,48,49
 1052 1108.2 1052 1108.2 1052 991.5 c 128,-1,50
 1052 874.8 1052 874.8 1060 814 c 1,0,1
EndSplineSet
EndChar

StartChar: H
Encoding: 300 72 44
Width: 1228
Flags: W
LayerCount: 2
Fore
SplineSet
1149 0 m 1,0,-1
 769 0 l 1,1,-1
 769 50 l 1,2,-1
 929 50 l 1,3,-1
 929 571 l 1,4,-1
 298 571 l 1,5,-1
 298 50 l 1,6,-1
 458 50 l 1,7,-1
 458 0 l 1,8,-1
 81 0 l 1,9,-1
 81 50 l 1,10,-1
 241 50 l 1,11,-1
 241 1103 l 1,12,-1
 81 1103 l 1,13,-1
 81 1153 l 1,14,-1
 458 1153 l 1,15,-1
 458 1103 l 1,16,-1
 298 1103 l 1,17,-1
 298 621 l 1,18,-1
 929 621 l 1,19,-1
 929 1103 l 1,20,-1
 769 1103 l 1,21,-1
 769 1153 l 1,22,-1
 1149 1153 l 1,23,-1
 1149 1103 l 1,24,-1
 986 1103 l 1,25,-1
 986 50 l 1,26,-1
 1149 50 l 1,27,-1
 1149 0 l 1,0,-1
EndSplineSet
EndChar

StartChar: I
Encoding: 301 73 45
Width: 1228
Flags: W
LayerCount: 2
Fore
SplineSet
1016 0 m 1,0,-1
 212 0 l 1,1,-1
 212 50 l 1,2,-1
 585 50 l 1,3,-1
 585 1103 l 1,4,-1
 212 1103 l 1,5,-1
 212 1153 l 1,6,-1
 1016 1153 l 1,7,-1
 1016 1103 l 1,8,-1
 643 1103 l 1,9,-1
 643 50 l 1,10,-1
 1016 50 l 1,11,-1
 1016 0 l 1,0,-1
EndSplineSet
EndChar

StartChar: J
Encoding: 302 74 46
Width: 1228
Flags: W
LayerCount: 2
Fore
SplineSet
855 89 m 1,0,1
 810.259 27.7414 810.259 27.7414 735.629 -4.62929 c 128,-1,2
 661 -37 661 -37 605 -37 c 0,3,4
 517.2 -37 517.2 -37 429.6 -16 c 128,-1,5
 342 5 342 5 307 20 c 128,-1,6
 272 35 272 35 239.5 48.5 c 128,-1,7
 207 62 207 62 184 73 c 0,8,9
 151.8 88.4 151.8 88.4 141 92 c 1,10,11
 136 201 136 201 132.5 302.5 c 128,-1,12
 129 404 129 404 124 512 c 1,13,-1
 177 512 l 1,14,-1
 186 329 l 2,15,16
 188 281 188 281 189.5 235 c 128,-1,17
 191 189 191 189 198.5 168 c 128,-1,18
 206 147 206 147 213 137.5 c 128,-1,19
 220 128 220 128 230 120 c 0,20,21
 243.333 109.333 243.333 109.333 283 86 c 1,22,23
 415.509 21.9538 415.509 21.9538 570.255 20.9769 c 128,-1,24
 725 20 725 20 803 126 c 1,25,26
 856 201.083 856 201.083 856 376.5 c 2,27,-1
 856 1103 l 1,28,-1
 435 1103 l 1,29,-1
 435 1153 l 1,30,-1
 1184 1153 l 1,31,-1
 1184 1103 l 1,32,-1
 913 1103 l 1,33,-1
 913 411 l 2,34,35
 913 302 913 302 902 223.5 c 128,-1,36
 891 145 891 145 855 89 c 1,0,1
EndSplineSet
EndChar

StartChar: K
Encoding: 303 75 47
Width: 1228
Flags: W
LayerCount: 2
Fore
SplineSet
1203 0 m 1,0,-1
 971 0 l 1,1,2
 929 108 929 108 838 275 c 1,3,4
 737.977 445.628 737.977 445.628 626 526.5 c 0,5,6
 581 559 581 559 530 585 c 1,7,-1
 361 424 l 1,8,-1
 361 50 l 1,9,-1
 542 50 l 1,10,-1
 542 0 l 1,11,-1
 125 0 l 1,12,-1
 125 50 l 1,13,-1
 304 50 l 1,14,-1
 304 1103 l 1,15,-1
 125 1103 l 1,16,-1
 125 1153 l 1,17,-1
 542 1153 l 1,18,-1
 542 1103 l 1,19,-1
 361 1103 l 1,20,-1
 361 495 l 1,21,-1
 986 1103 l 1,22,-1
 774 1103 l 1,23,-1
 774 1153 l 1,24,-1
 1141 1153 l 1,25,-1
 1141 1103 l 1,26,-1
 1060 1103 l 1,27,-1
 563 620 l 1,28,29
 638.077 584.339 638.077 584.339 669.538 559.669 c 0,30,31
 728.078 513.768 728.078 513.768 776 459 c 1,32,33
 885.755 343.365 885.755 343.365 1015 50 c 1,34,-1
 1203 50 l 1,35,-1
 1203 0 l 1,0,-1
EndSplineSet
EndChar

StartChar: L
Encoding: 304 76 48
Width: 1228
Flags: W
LayerCount: 2
Fore
SplineSet
1047 50 m 1,0,-1
 1076 482 l 1,1,-1
 1128 482 l 1,2,-1
 1106 0 l 1,3,-1
 123 0 l 1,4,-1
 123 50 l 1,5,-1
 337 50 l 1,6,-1
 337 1103 l 1,7,-1
 123 1103 l 1,8,-1
 123 1153 l 1,9,-1
 656 1153 l 1,10,-1
 656 1103 l 1,11,-1
 393 1103 l 1,12,-1
 393 50 l 1,13,-1
 1047 50 l 1,0,-1
EndSplineSet
EndChar

StartChar: M
Encoding: 305 77 49
Width: 1228
Flags: W
LayerCount: 2
Fore
SplineSet
620 356 m 5,0,1
 672 494 672 494 913 1153 c 5,2,-1
 1213 1153 l 5,3,-1
 1213 1103 l 5,4,-1
 1061 1103 l 5,5,-1
 1100 50 l 5,6,-1
 1229 50 l 5,7,-1
 1229 0 l 5,8,-1
 826 0 l 5,9,-1
 826 50 l 5,10,-1
 1056 50 l 5,11,-1
 1021 1103 l 5,12,-1
 942 1103 l 5,13,-1
 643 308 l 5,14,-1
 567 308 l 5,15,-1
 289 1103 l 5,16,-1
 208 1103 l 5,17,-1
 174 50 l 5,18,-1
 404 50 l 5,19,-1
 404 0 l 5,20,-1
 1 0 l 5,21,-1
 1 50 l 5,22,-1
 130 50 l 5,23,-1
 169 1103 l 5,24,-1
 15 1103 l 5,25,-1
 15 1153 l 5,26,-1
 329 1153 l 5,27,-1
 597 356 l 5,28,-1
 620 356 l 5,0,1
EndSplineSet
EndChar

StartChar: N
Encoding: 306 78 50
Width: 1228
Flags: W
LayerCount: 2
Fore
SplineSet
1071 -28 m 1,0,-1
 921 -28 l 1,1,-1
 348 1103 l 1,2,-1
 272 1103 l 1,3,-1
 272 50 l 1,4,-1
 514 50 l 1,5,-1
 514 0 l 1,6,-1
 57 0 l 1,7,-1
 57 50 l 1,8,-1
 224 50 l 1,9,-1
 224 1103 l 1,10,-1
 57 1103 l 1,11,-1
 57 1153 l 1,12,-1
 383 1153 l 1,13,-1
 945 40 l 1,14,-1
 1023 40 l 1,15,-1
 1023 1103 l 1,16,-1
 784 1103 l 1,17,-1
 784 1153 l 1,18,-1
 1210 1153 l 1,19,-1
 1210 1103 l 1,20,-1
 1071 1103 l 1,21,-1
 1071 -28 l 1,0,-1
EndSplineSet
EndChar

StartChar: O
Encoding: 307 79 51
Width: 1228
Flags: W
LayerCount: 2
Fore
SplineSet
613 -37 m 0,0,1
 380.393 -37 380.393 -37 231 141 c 0,2,3
 185 197 185 197 153.5 265.5 c 0,4,5
 90 403.587 90 403.587 90 575 c 0,6,7
 90 736.103 90 736.103 153 886 c 1,8,9
 254.376 1104.59 254.376 1104.59 466 1169 c 0,10,11
 535 1190 535 1190 635.5 1190 c 128,-1,12
 736 1190 736 1190 833 1140.5 c 128,-1,13
 930 1091 930 1091 998 1007 c 0,14,15
 1138 834.059 1138 834.059 1138 575 c 256,16,17
 1138 320.5 1138 320.5 996 143 c 0,18,19
 930 59 930 59 831 11 c 128,-1,20
 732 -37 732 -37 613 -37 c 0,0,1
863 1050 m 1,21,22
 755 1132 755 1132 627.5 1132 c 0,23,24
 385.476 1132 385.476 1132 265 948 c 1,25,26
 155 783 155 783 155 578 c 0,27,28
 155 360 155 360 270.5 199.5 c 0,29,30
 398.953 21 398.953 21 613 21 c 0,31,32
 866.857 21 866.857 21 996.5 263 c 0,33,34
 1072 403.933 1072 403.933 1072 562.967 c 0,35,36
 1072 891.028 1072 891.028 862 1050 c 1,37,-1
 863 1050 l 1,21,22
EndSplineSet
EndChar

StartChar: P
Encoding: 308 80 52
Width: 1228
Flags: W
LayerCount: 2
Fore
SplineSet
694 0 m 1,0,-1
 149 0 l 1,1,-1
 149 50 l 1,2,-1
 322 50 l 1,3,-1
 322 1103 l 1,4,-1
 149 1103 l 1,5,-1
 149 1153 l 1,6,-1
 613 1153 l 2,7,8
 731.143 1153 731.143 1153 798.571 1141 c 128,-1,9
 866 1129 866 1129 911 1104.5 c 0,10,11
 996.743 1057.82 996.743 1057.82 1042.87 975.409 c 128,-1,12
 1089 893 1089 893 1089 808 c 128,-1,13
 1089 723 1089 723 1058.5 665.5 c 0,14,15
 1008.39 571.036 1008.39 571.036 959.696 543.018 c 0,16,17
 873.345 493.335 873.345 493.335 818.173 485.668 c 0,18,19
 727.022 473 727.022 473 523 473 c 2,20,-1
 379 473 l 1,21,-1
 379 50 l 1,22,-1
 694 50 l 1,23,-1
 694 0 l 1,0,-1
882 1057 m 1,24,25
 799.484 1103 799.484 1103 613 1103 c 2,26,-1
 379 1103 l 1,27,-1
 379 523 l 1,28,-1
 652 523 l 1,29,30
 695.2 525.4 695.2 525.4 755.6 530.2 c 0,31,32
 967 547 967 547 1014.5 737 c 0,33,34
 1023 771 1023 771 1023 812.5 c 128,-1,35
 1023 854 1023 854 1011.5 892.5 c 128,-1,36
 1000 931 1000 931 980.5 962.5 c 0,37,38
 942.344 1024.14 942.344 1024.14 881 1057 c 1,39,-1
 882 1057 l 1,24,25
EndSplineSet
EndChar

StartChar: Q
Encoding: 309 81 53
Width: 1228
Flags: W
LayerCount: 2
Fore
SplineSet
1072 -169 m 1,0,-1
 1105 -209 l 1,1,2
 1009 -273 1009 -273 926 -273 c 256,3,4
 872.895 -273 872.895 -273 829.947 -256 c 128,-1,5
 787 -239 787 -239 745.5 -220.5 c 0,6,7
 652.405 -179 652.405 -179 563.587 -179 c 128,-1,8
 474.769 -179 474.769 -179 335 -258 c 1,9,-1
 312 -220 l 1,10,11
 370.109 -180.241 370.109 -180.241 404.555 -141.62 c 128,-1,12
 439 -103 439 -103 449.5 -91 c 0,13,14
 478.778 -57.5397 478.778 -57.5397 497 -25 c 1,15,16
 296 38 296 38 193 198 c 1,17,18
 91 360 91 360 91 575 c 0,19,20
 91 863.222 91 863.222 249 1030 c 1,21,22
 404.733 1190 404.733 1190 612 1190 c 0,23,24
 759 1190 759 1190 877.5 1115 c 128,-1,25
 996 1040 996 1040 1068 896 c 1,26,-1
 1067 896 l 1,27,28
 1139 752 1139 752 1139 567 c 0,29,30
 1139 387 1139 387 1063 231 c 1,31,32
 1021 153 1021 153 959 91 c 1,33,34
 818.178 -40.8806 818.178 -40.8806 564 -37 c 1,35,36
 563 -39 563 -39 559.5 -43 c 2,37,-1
 476 -141 l 1,38,-1
 554 -130 l 2,39,40
 561 -129 561 -129 568.5 -129 c 2,41,-1
 583 -129 l 2,42,43
 662 -129 662 -129 731 -157.5 c 128,-1,44
 800 -186 800 -186 825 -195 c 128,-1,45
 850 -204 850 -204 861 -209 c 256,46,47
 878.6 -217 878.6 -217 936.9 -217 c 128,-1,48
 995.2 -217 995.2 -217 1072 -169 c 1,0,-1
864 1050 m 1,49,50
 756 1132 756 1132 628.5 1132 c 0,51,52
 386.476 1132 386.476 1132 266 948 c 1,53,54
 156 783 156 783 156 578 c 0,55,56
 156 360 156 360 271.5 199.5 c 0,57,58
 399.953 21 399.953 21 614 21 c 0,59,60
 867.857 21 867.857 21 997.5 263 c 0,61,62
 1073 403.933 1073 403.933 1073 562.967 c 0,63,64
 1073 891.028 1073 891.028 863 1050 c 1,65,-1
 864 1050 l 1,49,50
EndSplineSet
EndChar

StartChar: R
Encoding: 310 82 54
Width: 1228
Flags: W
LayerCount: 2
Fore
SplineSet
1180 0 m 1,0,-1
 954 0 l 1,1,2
 897.042 120.244 897.042 120.244 742 354 c 0,3,4
 710.37 401.444 710.37 401.444 664.185 456.222 c 128,-1,5
 618 511 618 511 600 523.5 c 0,6,7
 560.4 551 560.4 551 504 551 c 2,8,-1
 325 551 l 1,9,-1
 325 50 l 1,10,-1
 516 50 l 1,11,-1
 516 0 l 1,12,-1
 93 0 l 1,13,-1
 93 50 l 1,14,-1
 269 50 l 1,15,-1
 269 1103 l 1,16,-1
 93 1103 l 1,17,-1
 93 1153 l 1,18,-1
 617 1153 l 2,19,20
 774.6 1153 774.6 1153 843.5 1127 c 0,21,22
 870 1117 870 1117 895 1100 c 0,23,24
 1012 1019 1012 1019 1012 861 c 0,25,26
 1012 582.062 1012 582.062 655 547 c 1,27,28
 768 440 768 440 1002 50 c 1,29,-1
 1180 50 l 1,30,-1
 1180 0 l 1,0,-1
592 602 m 2,31,32
 948 602 948 602 948 862 c 0,33,34
 948 1058 948 1058 766 1094 c 0,35,36
 718 1103 718 1103 613 1103 c 2,37,-1
 325 1103 l 1,38,-1
 325 602 l 1,39,-1
 592 602 l 2,31,32
EndSplineSet
EndChar

StartChar: S
Encoding: 311 83 55
Width: 1228
Flags: W
LayerCount: 2
Fore
SplineSet
982 806 m 1,0,1
 929.607 1132 929.607 1132 624 1132 c 0,2,3
 454 1132 454 1132 360 1038 c 256,4,5
 276 954 276 954 275.5 848.5 c 128,-1,6
 275 743 275 743 364 679.5 c 128,-1,7
 453 616 453 616 624 602 c 0,8,9
 736.342 592.479 736.342 592.479 805.171 577.74 c 128,-1,10
 874 563 874 563 929.5 525.5 c 0,11,12
 1046 446.784 1046 446.784 1046 302 c 0,13,14
 1046 138.966 1046 138.966 914 45 c 0,15,16
 798.81 -37 798.81 -37 631.905 -37 c 128,-1,17
 465 -37 465 -37 355 55 c 1,18,19
 335.9 70.4866 335.9 70.4866 311 98 c 0,20,21
 281.166 131.733 281.166 131.733 278.5 141.5 c 1,22,23
 281.114 91.5 281.114 91.5 276 6 c 1,24,25
 274.373 -22 274.373 -22 274 -43 c 1,26,-1
 218 -43 l 1,27,28
 230 35 230 35 230 101 c 128,-1,29
 230 167 230 167 214 323 c 1,30,-1
 261 323 l 1,31,32
 289.442 203.136 289.442 203.136 323.221 159.568 c 0,33,34
 378.587 88.1568 378.587 88.1568 442.294 54.5784 c 128,-1,35
 506 21 506 21 614 21 c 128,-1,36
 722 21 722 21 792 47 c 128,-1,37
 862 73 862 73 904 113 c 0,38,39
 980 185.381 980 185.381 980 291.69 c 0,40,41
 980 500.353 980 500.353 660 538 c 1,42,43
 354.959 570.756 354.959 570.756 256 693 c 1,44,45
 211 745 211 745 211 847 c 0,46,47
 211 984 211 984 327 1087 c 128,-1,48
 443 1190 443 1190 624.75 1180.75 c 128,-1,49
 806.5 1171.5 806.5 1171.5 910.5 1088.5 c 1,50,51
 942 1060.5 942 1060.5 965 1030 c 1,52,53
 967.181 1073.46 967.181 1073.46 970 1124.5 c 0,54,55
 970.111 1126.51 970.111 1126.51 972.5 1157.5 c 0,56,57
 973.739 1172.88 973.739 1172.88 973 1177 c 1,58,-1
 1026 1177 l 1,59,60
 1014 1111 1014 1111 1014 1033.21 c 128,-1,61
 1014 955.429 1014 955.429 1029 814 c 1,62,63
 1012 811 1012 811 1003 809.5 c 2,64,-1
 982 806 l 1,0,1
EndSplineSet
EndChar

StartChar: T
Encoding: 312 84 56
Width: 1228
Flags: W
LayerCount: 2
Fore
SplineSet
1104 1153 m 1,0,-1
 1125 686 l 1,1,-1
 1072 686 l 1,2,-1
 1045 1103 l 1,3,-1
 644 1103 l 1,4,-1
 644 50 l 1,5,-1
 901 50 l 1,6,-1
 901 0 l 1,7,-1
 327 0 l 1,8,-1
 327 50 l 1,9,-1
 586 50 l 1,10,-1
 586 1103 l 1,11,-1
 184 1103 l 1,12,-1
 155 686 l 1,13,-1
 105 686 l 1,14,-1
 126 1153 l 1,15,-1
 1104 1153 l 1,0,-1
EndSplineSet
EndChar

StartChar: U
Encoding: 313 85 57
Width: 1228
Flags: W
LayerCount: 2
Fore
SplineSet
956 262 m 1,0,1
 970 329.667 970 329.667 970 454 c 2,2,-1
 970 1103 l 1,3,-1
 752 1103 l 1,4,-1
 752 1153 l 1,5,-1
 1181 1153 l 1,6,-1
 1181 1103 l 1,7,-1
 1027 1103 l 1,8,-1
 1027 454 l 2,9,10
 1027 210 1027 210 955 110 c 0,11,12
 914 53 914 53 825.5 8 c 128,-1,13
 737 -37 737 -37 645 -36 c 0,14,15
 485.865 -34.2703 485.865 -34.2703 405 8 c 0,16,17
 313.425 54.805 313.425 54.805 274 110 c 0,18,19
 241.779 153.593 241.779 153.593 227.89 211.296 c 0,20,21
 204 310.544 204 310.544 204 454 c 2,22,-1
 204 1103 l 1,23,-1
 49 1103 l 1,24,-1
 49 1153 l 1,25,-1
 478 1153 l 1,26,-1
 478 1103 l 1,27,-1
 261 1103 l 1,28,-1
 261 396.5 l 2,29,30
 261 257 261 257 305 169 c 1,31,32
 389.656 22.9688 389.656 22.9688 619.328 22.9844 c 128,-1,33
 849 23 849 23 924 169 c 1,34,-1
 924 168 l 1,35,36
 945.392 206.894 945.392 206.894 957 263 c 1,37,-1
 956 262 l 1,0,1
EndSplineSet
EndChar

StartChar: V
Encoding: 314 86 58
Width: 1228
Flags: W
LayerCount: 2
Fore
SplineSet
653 0 m 1,0,-1
 585 0 l 1,1,-1
 167 1103 l 1,2,-1
 11 1103 l 1,3,-1
 11 1153 l 1,4,-1
 419 1153 l 1,5,-1
 419 1103 l 1,6,-1
 222 1103 l 1,7,-1
 619 74 l 1,8,-1
 625 74 l 1,9,-1
 1026 1103 l 1,10,-1
 813 1103 l 1,11,-1
 813 1153 l 1,12,-1
 1218 1153 l 1,13,-1
 1218 1103 l 1,14,-1
 1075 1103 l 1,15,-1
 653 0 l 1,0,-1
EndSplineSet
EndChar

StartChar: W
Encoding: 315 87 59
Width: 1228
Flags: W
LayerCount: 2
Fore
SplineSet
294 73 m 1,0,1
 430 453.001 430 453.001 600 933 c 1,2,-1
 636 933 l 1,3,-1
 932 73 l 1,4,-1
 937 73 l 1,5,-1
 1081 1103 l 1,6,-1
 859 1103 l 1,7,-1
 859 1153 l 1,8,-1
 1226 1153 l 1,9,-1
 1226 1103 l 1,10,-1
 1130 1103 l 1,11,-1
 970 0 l 1,12,-1
 903 0 l 1,13,-1
 613 830 l 1,14,-1
 610 830 l 1,15,-1
 316 0 l 1,16,-1
 249 0 l 1,17,-1
 99 1103 l 1,18,-1
 2 1103 l 1,19,-1
 2 1153 l 1,20,-1
 373 1153 l 1,21,-1
 373 1103 l 1,22,-1
 153 1103 l 1,23,-1
 290 73 l 1,24,-1
 294 73 l 1,0,1
EndSplineSet
EndChar

StartChar: X
Encoding: 316 88 60
Width: 1228
Flags: W
LayerCount: 2
Fore
SplineSet
1159 0 m 1,0,-1
 778 0 l 1,1,-1
 778 50 l 1,2,-1
 994 50 l 1,3,-1
 615 570 l 1,4,-1
 222 50 l 1,5,-1
 474 50 l 1,6,-1
 474 0 l 1,7,-1
 69 0 l 1,8,-1
 69 50 l 1,9,-1
 165 50 l 1,10,-1
 587 607 l 1,11,-1
 210 1103 l 1,12,-1
 108 1103 l 1,13,-1
 108 1153 l 1,14,-1
 474 1153 l 1,15,-1
 474 1103 l 1,16,-1
 274 1103 l 1,17,-1
 615 645 l 1,18,-1
 966 1103 l 1,19,-1
 778 1103 l 1,20,-1
 778 1153 l 1,21,-1
 1118 1153 l 1,22,-1
 1118 1103 l 1,23,-1
 1022 1103 l 1,24,-1
 645 608 l 1,25,-1
 1061 50 l 1,26,-1
 1159 50 l 1,27,-1
 1159 0 l 1,0,-1
EndSplineSet
EndChar

StartChar: Y
Encoding: 317 89 61
Width: 1228
Flags: W
LayerCount: 2
Fore
SplineSet
897 0 m 1,0,-1
 335 0 l 1,1,-1
 335 50 l 1,2,-1
 588 50 l 1,3,-1
 588 448 l 1,4,-1
 192 1103 l 1,5,-1
 68 1103 l 1,6,-1
 68 1153 l 1,7,-1
 436 1153 l 1,8,-1
 436 1103 l 1,9,-1
 254 1103 l 1,10,-1
 623 500 l 1,11,-1
 985 1103 l 1,12,-1
 798 1103 l 1,13,-1
 798 1153 l 1,14,-1
 1162 1153 l 1,15,-1
 1162 1103 l 1,16,-1
 1038 1103 l 1,17,-1
 646 448 l 1,18,-1
 646 50 l 1,19,-1
 897 50 l 1,20,-1
 897 0 l 1,0,-1
EndSplineSet
EndChar

StartChar: Z
Encoding: 318 90 62
Width: 1228
Flags: W
LayerCount: 2
Fore
SplineSet
1052 0 m 1,0,-1
 178 0 l 1,1,-1
 178 68 l 1,2,-1
 940 1103 l 1,3,-1
 244 1103 l 1,4,-1
 244 791 l 1,5,-1
 193 791 l 1,6,-1
 193 1153 l 1,7,-1
 1002 1153 l 1,8,-1
 1002 1098 l 1,9,-1
 232 50 l 1,10,-1
 1001 50 l 1,11,-1
 1001 397 l 1,12,-1
 1052 397 l 1,13,-1
 1052 0 l 1,0,-1
EndSplineSet
EndChar

StartChar: bracketleft
Encoding: 319 91 63
Width: 1228
Flags: W
LayerCount: 2
Fore
SplineSet
978 -193 m 1,0,-1
 648 -193 l 1,1,-1
 648 1339 l 1,2,-1
 978 1339 l 1,3,-1
 978 1282 l 1,4,-1
 706 1282 l 1,5,-1
 706 -135 l 1,6,-1
 978 -135 l 1,7,-1
 978 -193 l 1,0,-1
EndSplineSet
EndChar

StartChar: backslash
Encoding: 320 92 64
Width: 1228
Flags: W
LayerCount: 2
Fore
SplineSet
977 -271 m 1,0,-1
 213 1411 l 1,1,-1
 261 1431 l 1,2,-1
 1025 -249 l 1,3,-1
 977 -271 l 1,0,-1
EndSplineSet
EndChar

StartChar: bracketright
Encoding: 321 93 65
Width: 1228
Flags: W
LayerCount: 2
Fore
SplineSet
582 -193 m 1,0,-1
 252 -193 l 1,1,-1
 252 -135 l 1,2,-1
 525 -135 l 1,3,-1
 525 1282 l 1,4,-1
 252 1282 l 1,5,-1
 252 1339 l 1,6,-1
 582 1339 l 1,7,-1
 582 -193 l 1,0,-1
EndSplineSet
EndChar

StartChar: asciicircum
Encoding: 322 94 66
Width: 1228
Flags: W
LayerCount: 2
Fore
SplineSet
162 316 m 1,0,-1
 551 1152 l 1,1,-1
 677 1152 l 1,2,-1
 1066 316 l 1,3,-1
 984 316 l 1,4,-1
 627.162 1080 l 2,5,6
 613.652 1076.4 613.652 1076.4 601.157 1080 c 0,7,8
 599.472 1080.49 599.472 1080.49 246 316 c 1,9,-1
 162 316 l 1,0,-1
EndSplineSet
EndChar

StartChar: underscore
Encoding: 323 95 67
Width: 1228
Flags: W
LayerCount: 2
Fore
SplineSet
1324 -256 m 1,0,-1
 -96 -256 l 1,1,-1
 -96 -199 l 1,2,-1
 1324 -199 l 1,3,-1
 1324 -256 l 1,0,-1
EndSplineSet
EndChar

StartChar: grave
Encoding: 324 96 68
Width: 1228
Flags: W
LayerCount: 2
Fore
SplineSet
711 1067 m 1,0,-1
 654 1067 l 1,1,2
 595 1118 595 1118 539 1167.5 c 128,-1,3
 483 1217 483 1217 426 1266 c 1,4,-1
 576 1266 l 1,5,-1
 711 1067 l 1,0,-1
EndSplineSet
EndChar

StartChar: a
Encoding: 325 97 69
Width: 1228
Flags: W
LayerCount: 2
Fore
SplineSet
216 839 m 1,0,1
 425.535 924 425.535 924 595 924 c 0,2,3
 841.846 924 841.846 924 912 772 c 0,4,5
 927.489 737.924 927.489 737.924 931.745 702.462 c 128,-1,6
 936 667 936 667 937 658.5 c 128,-1,7
 938 650 938 650 938 639 c 2,8,-1
 938 51 l 1,9,-1
 1131 51 l 1,10,-1
 1131 0 l 1,11,-1
 881 0 l 1,12,-1
 881 188 l 1,13,14
 642 -31 642 -31 442 -31 c 0,15,16
 300 -31 300 -31 208 55 c 1,17,18
 118 142 118 142 118 250 c 1,19,20
 114.427 335.76 114.427 335.76 188.5 420 c 0,21,22
 303.69 551 303.69 551 552 551 c 0,23,24
 711 551 711 551 881 517 c 1,25,-1
 881 614 l 1,26,27
 886.434 817.792 886.434 817.792 710 857 c 0,28,29
 656 869 656 869 593 870 c 1,30,31
 431.238 870 431.238 870 236 788 c 1,32,33
 228.593 803.741 228.593 803.741 216 839 c 1,0,1
881 472 m 1,34,35
 736.143 498 736.143 498 614.071 498 c 128,-1,36
 492 498 492 498 432.5 485.5 c 128,-1,37
 373 473 373 473 331 453.5 c 0,38,39
 203.84 394.462 203.84 394.462 185 272 c 0,40,41
 184 267 184 267 184 260.5 c 2,42,-1
 184 247 l 2,43,44
 184 155 184 155 261.5 89 c 128,-1,45
 339 23 339 23 440 23 c 0,46,47
 663 23 663 23 881 267 c 1,48,-1
 881 472 l 1,34,35
EndSplineSet
EndChar

StartChar: b
Encoding: 326 98 70
Width: 1228
Flags: W
LayerCount: 2
Fore
SplineSet
6 1293 m 1,0,1
 147.273 1303.09 147.273 1303.09 263 1310 c 1,2,-1
 263 628 l 1,3,-1
 249 610 l 1,4,5
 295.219 746.807 295.219 746.807 428 823.5 c 0,6,7
 541.403 889 541.403 889 648.202 890 c 128,-1,8
 755 891 755 891 839 855 c 128,-1,9
 923 819 923 819 987 756 c 0,10,11
 1127 618.184 1127 618.184 1123 432 c 1,12,13
 1123 251.098 1123 251.098 998 120 c 0,14,15
 863.558 -21 863.558 -21 672 -21 c 0,16,17
 499.143 -21 499.143 -21 394 71 c 0,18,19
 345.787 112.326 345.787 112.326 320.393 142.163 c 128,-1,20
 295 172 295 172 263 227 c 1,21,-1
 263 0 l 1,22,-1
 32 0 l 1,23,-1
 32 51 l 1,24,-1
 206 51 l 1,25,-1
 206 1253 l 1,26,-1
 6 1243 l 1,27,-1
 6 1293 l 1,0,1
381 153 m 1,28,29
 498 36 498 36 666.5 36 c 128,-1,30
 835 36 835 36 946 153.5 c 128,-1,31
 1057 271 1057 271 1057 433.5 c 128,-1,32
 1057 596 1057 596 945.5 713.5 c 128,-1,33
 834 831 834 831 666 831 c 128,-1,34
 498 831 498 831 381.5 714.5 c 128,-1,35
 265 598 265 598 265 435 c 128,-1,36
 265 272 265 272 381 153 c 1,28,29
EndSplineSet
EndChar

StartChar: c
Encoding: 327 99 71
Width: 1228
Flags: W
LayerCount: 2
Fore
SplineSet
1068 882 m 1,0,1
 1054 785.75 1054 785.75 1054 726.375 c 128,-1,2
 1054 667 1054 667 1058 603 c 1,3,-1
 1005 594 l 1,4,5
 1000.43 611.143 1000.43 611.143 998.714 620.571 c 0,6,7
 981.436 715.603 981.436 715.603 911.218 773.302 c 128,-1,8
 841 831 841 831 746 848 c 1,9,10
 712.4 856 712.4 856 626.2 856 c 128,-1,11
 540 856 540 856 455 820 c 128,-1,12
 370 784 370 784 318 723.5 c 0,13,14
 211 599.01 211 599.01 211 444 c 0,15,16
 211 288 211 288 311 166 c 0,17,18
 361 104 361 104 446 65.5 c 128,-1,19
 531 27 531 27 640 27 c 0,20,21
 835 27 835 27 1092 201 c 1,22,-1
 1121 161 l 1,23,24
 1052.33 109.5 1052.33 109.5 1012.67 88.25 c 128,-1,25
 973 67 973 67 938 47 c 1,26,-1
 939 47 l 1,27,28
 793.541 -31 793.541 -31 629 -31 c 1,29,30
 421.511 -34.9149 421.511 -34.9149 279 106.5 c 0,31,32
 138.953 245.47 138.953 245.47 145 441 c 1,33,34
 145 618.431 145 618.431 264 760 c 256,35,36
 322 829 322 829 419 871 c 128,-1,37
 516 913 516 913 637 913 c 0,38,39
 831.786 913 831.786 913 958 799 c 0,40,41
 964.333 792.667 964.333 792.667 972.667 781.833 c 0,42,43
 987.667 762.333 987.667 762.333 993 757 c 1,44,45
 1000 756 1000 756 1001 774.5 c 128,-1,46
 1002 793 1002 793 1004.5 818 c 128,-1,47
 1007 843 1007 843 1008.5 855.5 c 128,-1,48
 1010 868 1010 868 1011 886 c 1,49,-1
 1068 882 l 1,0,1
EndSplineSet
EndChar

StartChar: d
Encoding: 328 100 72
Width: 1228
Flags: W
LayerCount: 2
Fore
SplineSet
600 1268 m 1,0,-1
 1010 1305 l 1,1,-1
 1010 51 l 1,2,-1
 1194 51 l 1,3,-1
 1194 0 l 1,4,-1
 952 0 l 1,5,-1
 952 243 l 1,6,-1
 961 249 l 1,7,8
 908.823 116.694 908.823 116.694 786 43 c 0,9,10
 679.333 -21 679.333 -21 557 -21 c 0,11,12
 367 -21 367 -21 234.5 112.5 c 128,-1,13
 102 246 102 246 102 434 c 0,14,15
 102 568 102 568 168.5 673 c 128,-1,16
 235 778 235 778 338 833.5 c 128,-1,17
 441 889 441 889 553 889 c 0,18,19
 686.219 889 686.219 889 804.5 809.5 c 128,-1,20
 922.907 729.915 922.907 729.915 962 597 c 1,21,-1
 952 607 l 1,22,-1
 952 1244 l 1,23,-1
 602 1220 l 1,24,25
 601 1237 601 1237 601 1247 c 128,-1,26
 601 1257 601 1257 600 1268 c 1,0,-1
557 831 m 0,27,28
 400 831 400 831 284 720.5 c 128,-1,29
 168 610 168 610 168 436.5 c 128,-1,30
 168 263 168 263 282 149.5 c 128,-1,31
 396 36 396 36 557.5 36 c 128,-1,32
 719 36 719 36 833.5 149.5 c 128,-1,33
 948 263 948 263 948 429 c 0,34,35
 948 577.298 948 577.298 851 697 c 0,36,37
 803 757 803 757 726.5 794 c 128,-1,38
 650 831 650 831 557 831 c 0,27,28
EndSplineSet
EndChar

StartChar: e
Encoding: 329 101 73
Width: 1228
Flags: W
LayerCount: 2
Fore
SplineSet
652 23 m 0,0,1
 830.941 23 830.941 23 1113 160 c 1,2,-1
 1142 109 l 1,3,4
 873.64 -31 873.64 -31 650 -31 c 0,5,6
 404.167 -31 404.167 -31 272 112 c 1,7,8
 150 246.2 150 246.2 150 438 c 0,9,10
 150 567 150 567 207.5 673.5 c 128,-1,11
 265 780 265 780 377 846.5 c 128,-1,12
 489 913 489 913 619 913 c 0,13,14
 860.852 913 860.852 913 987 778 c 1,15,16
 1104 654.842 1104 654.842 1104 508 c 2,17,-1
 1104 436 l 1,18,-1
 213 436 l 1,19,20
 219.565 317.826 219.565 317.826 270 222 c 1,21,22
 359.032 66.1943 359.032 66.1943 557 31 c 0,23,24
 602 23 602 23 652 23 c 0,0,1
1037 487 m 1,25,26
 1034.87 640.141 1034.87 640.141 941 742 c 1,27,28
 834.132 860 834.132 860 637 860 c 0,29,30
 464.5 860 464.5 860 361 768 c 1,31,32
 262.476 674.168 262.476 674.168 233.5 583.5 c 0,33,34
 218 535 218 535 210 487 c 1,35,-1
 1037 487 l 1,25,26
EndSplineSet
EndChar

StartChar: f
Encoding: 330 102 74
Width: 1228
Flags: W
LayerCount: 2
Fore
SplineSet
1028 1273 m 1,0,1
 1006.75 1226.25 1006.75 1226.25 1003 1215 c 1,2,3
 860 1247 860 1247 726 1248 c 0,4,5
 549 1249 549 1249 505 1146 c 0,6,7
 487.886 1105.35 487.886 1105.35 486 1045 c 1,8,-1
 486 855 l 1,9,-1
 947 855 l 1,10,-1
 947 804 l 1,11,-1
 486 804 l 1,12,-1
 486 51 l 1,13,-1
 947 51 l 1,14,-1
 947 0 l 1,15,-1
 203 0 l 1,16,-1
 203 51 l 1,17,-1
 428 51 l 1,18,-1
 428 804 l 1,19,-1
 203 804 l 1,20,-1
 203 855 l 1,21,-1
 428 855 l 1,22,-1
 428 1002 l 2,23,24
 428 1041 428 1041 438 1119.5 c 128,-1,25
 448 1198 448 1198 518 1248 c 128,-1,26
 588 1298 588 1298 735 1298 c 128,-1,27
 882 1298 882 1298 1028 1273 c 1,0,1
EndSplineSet
EndChar

StartChar: g
Encoding: 331 103 75
Width: 1228
Flags: W
LayerCount: 2
Fore
SplineSet
752 85 m 1,0,1
 657.185 21 657.185 21 533.593 21 c 128,-1,2
 410 21 410 21 307 81 c 1,3,-1
 308 80 l 1,4,5
 208.078 143.216 208.078 143.216 149 241 c 1,6,7
 92 344.821 92 344.821 92 460.911 c 128,-1,8
 92 577 92 577 154 677 c 128,-1,9
 216 777 216 777 316.5 833 c 128,-1,10
 417 889 417 889 531 889 c 0,11,12
 606.273 889 606.273 889 643.636 876 c 128,-1,13
 681 863 681 863 717.5 845 c 128,-1,14
 754 827 754 827 792.5 797 c 0,15,16
 886.386 723.842 886.386 723.842 918 629 c 1,17,-1
 904 637 l 1,18,-1
 904 881 l 1,19,-1
 1138 881 l 1,20,-1
 1138 829 l 1,21,-1
 963 829 l 1,22,-1
 963 58 l 2,23,24
 963 -41 963 -41 941.5 -108 c 128,-1,25
 920 -175 920 -175 868 -225 c 0,26,27
 767.12 -322 767.12 -322 492 -322 c 2,28,-1
 381 -322 l 1,29,-1
 381 -270 l 1,30,-1
 429.5 -270 l 1,31,-1
 523 -268 l 1,32,33
 593.667 -265.476 593.667 -265.476 642.333 -259.238 c 0,34,35
 729.998 -248.001 729.998 -248.001 757.999 -232.001 c 128,-1,36
 786 -216 786 -216 805 -202 c 128,-1,37
 824 -188 824 -188 841 -169 c 0,38,39
 879.108 -126.408 879.108 -126.408 891.554 -71.2042 c 128,-1,40
 904 -16 904 -16 904 58 c 2,41,-1
 904 282 l 1,42,-1
 916 293 l 1,43,44
 900.318 223.304 900.318 223.304 838 156 c 0,45,46
 793.398 107.83 793.398 107.83 751 85 c 1,47,-1
 752 85 l 1,0,1
273 726 m 1,48,49
 159 619 159 619 159 459 c 128,-1,50
 159 299 159 299 269 189 c 256,51,52
 379 79 379 79 537 79 c 128,-1,53
 695 79 695 79 799.5 189.5 c 128,-1,54
 904 300 904 300 904 460 c 128,-1,55
 904 620 904 620 796 725.5 c 128,-1,56
 688 831 688 831 537 831 c 128,-1,57
 386 831 386 831 273 724 c 1,58,-1
 273 726 l 1,48,49
EndSplineSet
EndChar

StartChar: h
Encoding: 332 104 76
Width: 1228
Flags: W
LayerCount: 2
Fore
SplineSet
453 836 m 1,0,1
 587.75 913 587.75 913 714.375 913 c 128,-1,2
 841 913 841 913 919 822 c 1,3,4
 1001 728 1001 728 1001 581 c 2,5,-1
 1001 51 l 1,6,-1
 1183 51 l 1,7,-1
 1183 0 l 1,8,-1
 759 0 l 1,9,-1
 759 51 l 1,10,-1
 943 51 l 1,11,-1
 943 572 l 2,12,13
 943 701.3 943 701.3 880 779 c 0,14,15
 817.568 856 817.568 856 710 856 c 0,16,17
 537 856 537 856 309 669 c 1,18,-1
 309 51 l 1,19,-1
 481 51 l 1,20,-1
 481 0 l 1,21,-1
 70 0 l 1,22,-1
 70 51 l 1,23,-1
 252 51 l 1,24,-1
 252 1254 l 1,25,26
 171.836 1248.53 171.836 1248.53 49 1236 c 1,27,-1
 44 1288 l 1,28,29
 209.333 1301.78 209.333 1301.78 309 1309 c 1,30,-1
 309 735 l 1,31,32
 324 747 324 747 345 761.5 c 128,-1,33
 366 776 366 776 386.5 790.5 c 0,34,35
 436.469 825.844 436.469 825.844 454 837 c 1,36,-1
 453 836 l 1,0,1
EndSplineSet
EndChar

StartChar: i
Encoding: 333 105 77
Width: 1228
Flags: W
LayerCount: 2
Fore
SplineSet
1022 0 m 1,0,-1
 209 0 l 1,1,-1
 209 51 l 1,2,-1
 589 51 l 1,3,-1
 589 829 l 1,4,-1
 271 829 l 1,5,-1
 271 881 l 1,6,-1
 648 881 l 1,7,-1
 648 51 l 1,8,-1
 1022 51 l 1,9,-1
 1022 0 l 1,0,-1
648 1136 m 1,10,-1
 542 1136 l 1,11,-1
 542 1343 l 1,12,-1
 648 1343 l 1,13,-1
 648 1136 l 1,10,-1
EndSplineSet
EndChar

StartChar: j
Encoding: 334 106 78
Width: 1228
Flags: W
LayerCount: 2
Fore
SplineSet
162 -224 m 1,0,1
 295.4 -253 295.4 -253 396.7 -253 c 128,-1,2
 498 -253 498 -253 553 -236 c 128,-1,3
 608 -219 608 -219 643 -190.5 c 128,-1,4
 678 -162 678 -162 696.5 -125.5 c 128,-1,5
 715 -89 715 -89 723 -50.5 c 0,6,7
 733 -2.375 733 -2.375 733 93 c 2,8,-1
 733 829 l 1,9,-1
 181 829 l 1,10,-1
 181 881 l 1,11,-1
 791 881 l 1,12,-1
 791 78 l 2,13,14
 791 -141.6 791 -141.6 679 -234 c 0,15,16
 592.311 -306.241 592.311 -306.241 410 -310 c 1,17,18
 313.128 -309.832 313.128 -309.832 148 -278 c 1,19,-1
 162 -224 l 1,0,1
748 1135 m 1,20,-1
 642 1135 l 1,21,-1
 642 1342 l 1,22,-1
 748 1342 l 1,23,-1
 748 1135 l 1,20,-1
EndSplineSet
EndChar

StartChar: k
Encoding: 335 107 79
Width: 1228
Flags: W
LayerCount: 2
Fore
SplineSet
527 527 m 1,0,1
 860.25 215.25 860.25 215.25 988 51 c 1,2,-1
 1157 51 l 1,3,-1
 1157 0 l 1,4,-1
 758 0 l 1,5,-1
 758 51 l 1,6,-1
 925 51 l 1,7,8
 770.161 237.6 770.161 237.6 487 497 c 1,9,-1
 339 384 l 1,10,-1
 339 0 l 1,11,-1
 101 0 l 1,12,-1
 101 51 l 1,13,-1
 281 51 l 1,14,-1
 281 1252 l 1,15,16
 203.375 1246.94 203.375 1246.94 74 1234 c 1,17,-1
 69 1286 l 1,18,-1
 339 1309 l 1,19,-1
 339 440 l 1,20,-1
 886 856 l 1,21,-1
 869 829 l 1,22,-1
 673 829 l 1,23,-1
 673 881 l 1,24,-1
 1075 881 l 1,25,-1
 1075 829 l 1,26,-1
 922 829 l 1,27,-1
 527 527 l 1,0,1
EndSplineSet
EndChar

StartChar: l
Encoding: 336 108 80
Width: 1228
Flags: W
LayerCount: 2
Fore
SplineSet
222 1244 m 1,0,-1
 642 1271 l 1,1,-1
 642 51 l 1,2,-1
 1019 51 l 1,3,-1
 1019 0 l 1,4,-1
 208 0 l 1,5,-1
 208 51 l 1,6,-1
 584 51 l 1,7,-1
 584 1222 l 1,8,-1
 229 1194 l 1,9,-1
 222 1244 l 1,0,-1
EndSplineSet
EndChar

StartChar: m
Encoding: 337 109 81
Width: 1228
Flags: W
LayerCount: 2
Fore
SplineSet
631 747 m 1,0,1
 753.975 892 753.975 892 876 892 c 0,2,3
 1035.12 892 1035.12 892 1082 767 c 0,4,5
 1100 719 1100 719 1100 564 c 2,6,-1
 1100 51 l 1,7,-1
 1224 51 l 1,8,-1
 1224 0 l 1,9,-1
 1043 0 l 1,10,-1
 1043 618 l 2,11,12
 1043 727.091 1043 727.091 1022 766.545 c 0,13,14
 981.084 843.418 981.084 843.418 879 847 c 1,15,16
 757.627 847 757.627 847 649 686 c 1,17,-1
 649 51 l 1,18,-1
 783 51 l 1,19,-1
 783 0 l 1,20,-1
 591 0 l 1,21,-1
 591 572 l 2,22,23
 591 711.043 591 711.043 576 749.522 c 128,-1,24
 561 788 561 788 539.5 806.5 c 128,-1,25
 518 825 518 825 494.5 834.5 c 0,26,27
 463.579 847 463.579 847 426 847 c 0,28,29
 309.462 847 309.462 847 207 699 c 1,30,-1
 207 51 l 1,31,-1
 354 51 l 1,32,-1
 354 0 l 1,33,-1
 2 0 l 1,34,-1
 2 51 l 1,35,-1
 149 51 l 1,36,-1
 149 829 l 1,37,-1
 2 829 l 1,38,-1
 2 881 l 1,39,-1
 207 881 l 1,40,-1
 207 773 l 1,41,42
 306.759 895.154 306.759 895.154 421 891 c 1,43,44
 584.116 891 584.116 891 631 747 c 1,0,1
EndSplineSet
EndChar

StartChar: n
Encoding: 338 110 82
Width: 1228
Flags: W
LayerCount: 2
Fore
SplineSet
1159 0 m 1,0,-1
 742 0 l 1,1,-1
 742 51 l 1,2,-1
 928 51 l 1,3,-1
 928 572 l 2,4,5
 928 702.063 928 702.063 862.5 779 c 128,-1,6
 796.946 856 796.946 856 702.473 856 c 128,-1,7
 608 856 608 856 515.5 809 c 128,-1,8
 423 762 423 762 305 669 c 1,9,-1
 305 51 l 1,10,-1
 487 51 l 1,11,-1
 487 0 l 1,12,-1
 71 0 l 1,13,-1
 71 51 l 1,14,-1
 248 51 l 1,15,-1
 248 829 l 1,16,-1
 71 829 l 1,17,-1
 71 881 l 1,18,-1
 305 881 l 1,19,-1
 305 735 l 1,20,21
 318 744 318 744 336 757 c 128,-1,22
 354 770 354 770 371.5 782 c 128,-1,23
 389 794 389 794 403.5 804 c 128,-1,24
 418 814 418 814 428 820 c 0,25,26
 533.072 883.043 533.072 883.043 574.536 895.021 c 0,27,28
 636.769 913 636.769 913 688 913 c 0,29,30
 824 913 824 913 904.5 822 c 128,-1,31
 985 731 985 731 985 581 c 2,32,-1
 985 51 l 1,33,-1
 1159 51 l 1,34,-1
 1159 0 l 1,0,-1
EndSplineSet
EndChar

StartChar: o
Encoding: 339 111 83
Width: 1228
Flags: W
LayerCount: 2
Fore
SplineSet
1127 446 m 0,0,1
 1127 296.095 1127 296.095 1045 177 c 1,2,-1
 1045 176 l 1,3,4
 950.941 30.0468 950.941 30.0468 757 -15.5 c 0,5,6
 691 -31 691 -31 591.5 -31 c 128,-1,7
 492 -31 492 -31 393.5 8.5 c 128,-1,8
 295 48 295 48 232 115.5 c 0,9,10
 103 253.714 103 253.714 103 446 c 0,11,12
 103 640.81 103 640.81 232 778 c 256,13,14
 369.284 924 369.284 924 615 924 c 0,15,16
 741 924 741 924 840.5 883.5 c 0,17,18
 1021.43 809.855 1021.43 809.855 1094.5 621 c 0,19,20
 1127 537 1127 537 1127 446 c 0,0,1
917 129 m 256,21,22
 1061 252 1061 252 1061 445 c 0,23,24
 1061 591.89 1061 591.89 975.5 705.5 c 0,25,26
 900.993 804.502 900.993 804.502 765 845.5 c 0,27,28
 697 866 697 866 604 866 c 128,-1,29
 511 866 511 866 425.5 832 c 128,-1,30
 340 798 340 798 284.5 738 c 0,31,32
 169 613.135 169 613.135 169 446 c 0,33,34
 169 274.053 169 274.053 283.5 155.5 c 0,35,36
 407.607 27 407.607 27 602.596 27 c 128,-1,37
 797.585 27 797.585 27 917 129 c 256,21,22
EndSplineSet
EndChar

StartChar: p
Encoding: 340 112 84
Width: 1228
Flags: W
LayerCount: 2
Fore
SplineSet
987 114 m 1,0,1
 847.25 -15 847.25 -15 677 -15 c 2,2,-1
 658.5 -15 l 2,3,4
 506.312 -15 506.312 -15 358.5 114 c 0,5,6
 257.299 202.321 257.299 202.321 252 303 c 1,7,-1
 270 261 l 1,8,-1
 270 -270 l 1,9,-1
 592 -270 l 1,10,-1
 592 -322 l 1,11,-1
 35 -322 l 1,12,-1
 35 -270 l 1,13,-1
 213 -270 l 1,14,-1
 213 829 l 1,15,-1
 35 829 l 1,16,-1
 35 881 l 1,17,-1
 270 881 l 1,18,-1
 270 629 l 1,19,-1
 249 609 l 1,20,21
 284.202 749.81 284.202 749.81 423.5 835 c 0,22,23
 542.865 908 542.865 908 675.432 908 c 128,-1,24
 808 908 808 908 914.5 841.5 c 128,-1,25
 1021 775 1021 775 1075.5 672 c 128,-1,26
 1130 569 1130 569 1130 449 c 0,27,28
 1130 251.387 1130 251.387 987 113 c 1,29,-1
 987 114 l 1,0,1
948.5 159.5 m 128,-1,31
 1064 277 1064 277 1064 452 c 0,32,33
 1064 599.4 1064 599.4 968 721 c 1,34,35
 920 778 920 778 844.5 814.5 c 128,-1,36
 769 851 769 851 675 851 c 0,37,38
 497 851 497 851 379 735 c 128,-1,39
 261 619 261 619 261 456 c 0,40,41
 261 263.805 261 263.805 399 146 c 0,42,43
 520.829 42 520.829 42 676.914 42 c 128,-1,30
 833 42 833 42 948.5 159.5 c 128,-1,31
EndSplineSet
EndChar

StartChar: q
Encoding: 341 113 85
Width: 1228
Flags: W
LayerCount: 2
Fore
SplineSet
1193 -322 m 1,0,-1
 634 -322 l 1,1,-1
 634 -270 l 1,2,-1
 958 -270 l 1,3,-1
 958 284 l 1,4,-1
 985 357 l 1,5,6
 976.429 228.429 976.429 228.429 872 124 c 0,7,8
 754.034 6.03448 754.034 6.03448 613.5 -11 c 0,9,10
 580.5 -15 580.5 -15 570.25 -15 c 2,11,-1
 551 -15 l 2,12,13
 441 -15 441 -15 336.5 42.5 c 128,-1,14
 232 100 232 100 164.5 208.5 c 128,-1,15
 97 317 97 317 97 442.5 c 128,-1,16
 97 568 97 568 152 671.5 c 128,-1,17
 207 775 207 775 314 842 c 0,18,19
 418 908 418 908 555 908 c 0,20,21
 679.346 908 679.346 908 805.5 828 c 0,22,23
 947.276 738.093 947.276 738.093 979 600 c 1,24,-1
 958 623 l 1,25,-1
 958 881 l 1,26,-1
 1193 881 l 1,27,-1
 1193 829 l 1,28,-1
 1015 829 l 1,29,-1
 1015 -270 l 1,30,-1
 1193 -270 l 1,31,-1
 1193 -322 l 1,0,-1
279 160 m 1,32,33
 396 42 396 42 555 42 c 0,34,35
 673.629 42 673.629 42 777 109 c 1,36,37
 909.506 188.503 909.506 188.503 951.5 342 c 0,38,39
 966 395 966 395 966 456 c 0,40,41
 966 619 966 619 848 735 c 0,42,43
 729 851 729 851 553 851 c 0,44,45
 363 851 363 851 259 721 c 1,46,47
 163 604.574 163 604.574 163 441.787 c 128,-1,48
 163 279 163 279 279 160 c 1,32,33
EndSplineSet
EndChar

StartChar: r
Encoding: 342 114 86
Width: 1228
Flags: W
LayerCount: 2
Fore
SplineSet
1162 822 m 1,0,-1
 1092 769 l 1,1,2
 1067 806 1067 806 1032.5 830 c 128,-1,3
 998 854 998 854 932 853 c 128,-1,4
 866 852 866 852 799 820.5 c 128,-1,5
 732 789 732 789 675 746.5 c 0,6,7
 585.402 679.694 585.402 679.694 492.5 572.5 c 0,8,9
 486 565 486 565 483 562 c 1,10,-1
 483 51 l 1,11,-1
 895 51 l 1,12,-1
 895 0 l 1,13,-1
 157 0 l 1,14,-1
 157 51 l 1,15,-1
 426 51 l 1,16,-1
 426 829 l 1,17,-1
 174 829 l 1,18,-1
 174 881 l 1,19,-1
 483 881 l 1,20,-1
 483 630 l 1,21,22
 489 636 489 636 501.5 647.5 c 128,-1,23
 514 659 514 659 527 671.5 c 128,-1,24
 540 684 540 684 551.5 695 c 128,-1,25
 563 706 563 706 570 713 c 128,-1,26
 577 720 577 720 586 728.5 c 128,-1,27
 595 737 595 737 605.5 746.5 c 0,28,29
 787.316 911 787.316 911 957 911 c 0,30,31
 1062.27 911 1062.27 911 1125.5 857.5 c 0,32,33
 1145 841 1145 841 1162 822 c 1,0,-1
EndSplineSet
EndChar

StartChar: s
Encoding: 343 115 87
Width: 1228
Flags: W
LayerCount: 2
Fore
SplineSet
983 907 m 1,0,1
 969 824.75 969 824.75 969 767.875 c 128,-1,2
 969 711 969 711 975 635 c 1,3,-1
 928 629 l 1,4,5
 915 662 915 662 899 700.5 c 128,-1,6
 883 739 883 739 846 773 c 0,7,8
 760.029 852 760.029 852 565 852 c 0,9,10
 428 852 428 852 350 797.5 c 128,-1,11
 272 743 272 743 272 676.5 c 128,-1,12
 272 610 272 610 298 573.5 c 128,-1,13
 324 537 324 537 369 515.5 c 0,14,15
 452.23 475.734 452.23 475.734 616 467 c 0,16,17
 676 463 676 463 733.5 460 c 128,-1,18
 791 457 791 457 830.5 448.5 c 128,-1,19
 870 440 870 440 904 427 c 128,-1,20
 938 414 938 414 966.5 391.5 c 0,21,22
 1032 339.789 1032 339.789 1032 255.895 c 128,-1,23
 1032 172 1032 172 996.5 120 c 128,-1,24
 961 68 961 68 904.5 34 c 0,25,26
 793.162 -33 793.162 -33 634.081 -33 c 128,-1,27
 475 -33 475 -33 342 51 c 1,28,29
 338 55 338 55 322.5 66.5 c 128,-1,30
 307 78 307 78 297 87 c 128,-1,31
 287 96 287 96 281.5 106.5 c 128,-1,32
 276 117 276 117 271 117 c 128,-1,33
 266 117 266 117 266 72 c 2,34,-1
 266 20 l 1,35,-1
 264 -27 l 1,36,-1
 207 -27 l 1,37,38
 215 31 215 31 215 98.3333 c 128,-1,39
 215 165.667 215 165.667 205 274 c 1,40,-1
 252 281 l 1,41,42
 270 248 270 248 287.5 204 c 128,-1,43
 305 160 305 160 341 120 c 0,44,45
 426.5 25 426.5 25 621 25 c 0,46,47
 834.864 25 834.864 25 929 134 c 0,48,49
 967 178 967 178 967 250 c 0,50,51
 967 403 967 403 682 403 c 1,52,53
 474.318 411.901 474.318 411.901 388.659 442.45 c 128,-1,54
 303 473 303 473 255 523 c 128,-1,55
 207 573 207 573 207 645 c 128,-1,56
 207 717 207 717 234.5 762 c 128,-1,57
 262 807 262 807 310 838.5 c 0,58,59
 414.381 907 414.381 907 563 907 c 0,60,61
 773.2 907 773.2 907 881 809 c 0,62,63
 897 795 897 795 902 784.5 c 128,-1,64
 907 774 907 774 913.5 774 c 128,-1,65
 920 774 920 774 920 821 c 2,66,-1
 920 870 l 1,67,68
 922 887 922 887 922 895 c 2,69,-1
 922 918 l 1,70,-1
 983 907 l 1,0,1
EndSplineSet
EndChar

StartChar: t
Encoding: 344 116 88
Width: 1228
Flags: W
LayerCount: 2
Fore
SplineSet
676 27 m 0,0,1
 817.5 27 817.5 27 1080 132 c 1,2,-1
 1101 81 l 1,3,4
 845 -31 845 -31 685.5 -31 c 128,-1,5
 526 -31 526 -31 436 59 c 0,6,7
 375.595 119.405 375.595 119.405 370 228.5 c 0,8,9
 369 248 369 248 368 264 c 128,-1,10
 367 280 367 280 367 305 c 2,11,12
 367 800 l 1,13,-1
 220 800 l 1,14,-1
 220 850 l 1,15,-1
 367 850 l 1,16,-1
 367 1153 l 1,17,-1
 425 1153 l 1,18,-1
 425 850 l 1,19,-1
 949 850 l 1,20,-1
 949 800 l 1,21,-1
 425 800 l 1,22,-1
 425 329 l 2,23,24
 425 201.158 425 201.158 440.5 166.079 c 128,-1,25
 456 131 456 131 467 114.5 c 0,26,27
 486.444 85.3333 486.444 85.3333 508.722 71.1667 c 0,28,29
 554.087 42.3189 554.087 42.3189 587.543 36.6594 c 0,30,31
 644.647 27 644.647 27 676 27 c 0,0,1
EndSplineSet
EndChar

StartChar: u
Encoding: 345 117 89
Width: 1228
Flags: W
LayerCount: 2
Fore
SplineSet
1150 0 m 1,0,-1
 916 0 l 1,1,-1
 916 151 l 1,2,3
 830.688 74.4375 830.688 74.4375 819.344 66.7188 c 128,-1,4
 808 59 808 59 791.5 47.5 c 128,-1,5
 775 36 775 36 741.5 16.5 c 0,6,7
 659.897 -31 659.897 -31 577.449 -30.5 c 128,-1,8
 495 -30 495 -30 451 -17.5 c 128,-1,9
 407 -5 407 -5 374 16.5 c 0,10,11
 310.279 58.015 310.279 58.015 284.64 120.008 c 0,12,13
 242 223.103 242 223.103 242 332 c 2,14,-1
 242 829 l 1,15,-1
 66 829 l 1,16,-1
 66 881 l 1,17,-1
 301 881 l 1,18,-1
 301 297 l 1,19,20
 302 240 302 240 319 190 c 0,21,22
 372 27 372 27 552 27 c 128,-1,23
 732 27 732 27 916 232 c 1,24,-1
 916 829 l 1,25,-1
 730 829 l 1,26,-1
 730 881 l 1,27,-1
 974 881 l 1,28,-1
 974 51 l 1,29,-1
 1150 51 l 1,30,-1
 1150 0 l 1,0,-1
EndSplineSet
EndChar

StartChar: v
Encoding: 346 118 90
Width: 1228
Flags: W
LayerCount: 2
Fore
SplineSet
640 0 m 1,0,-1
 592 0 l 1,1,-1
 198 829 l 1,2,-1
 43 829 l 1,3,-1
 43 881 l 1,4,-1
 454 881 l 1,5,-1
 454 829 l 1,6,-1
 267 829 l 1,7,-1
 620 68 l 1,8,-1
 624 68 l 1,9,-1
 980 829 l 1,10,-1
 797 829 l 1,11,-1
 797 881 l 1,12,-1
 1186 881 l 1,13,-1
 1186 829 l 1,14,-1
 1032 829 l 1,15,-1
 640 0 l 1,0,-1
EndSplineSet
EndChar

StartChar: w
Encoding: 347 119 91
Width: 1228
Flags: W
LayerCount: 2
Fore
SplineSet
380 70 m 1,0,1
 392 102.77 392 102.77 612 712 c 1,2,-1
 651 712 l 1,3,-1
 882 70 l 1,4,-1
 886 70 l 1,5,-1
 1110 829 l 1,6,-1
 907 829 l 1,7,-1
 907 881 l 1,8,-1
 1225 881 l 1,9,-1
 1225 829 l 1,10,-1
 1158 829 l 1,11,-1
 915 0 l 1,12,-1
 848 0 l 1,13,-1
 624 608 l 1,14,-1
 405 0 l 1,15,-1
 336 0 l 1,16,-1
 91 829 l 1,17,-1
 4 829 l 1,18,-1
 4 881 l 1,19,-1
 341 881 l 1,20,-1
 341 829 l 1,21,-1
 153 829 l 1,22,-1
 374 70 l 1,23,-1
 380 70 l 1,0,1
EndSplineSet
EndChar

StartChar: x
Encoding: 348 120 92
Width: 1228
Flags: W
LayerCount: 2
Fore
SplineSet
1176 0 m 1,0,-1
 786 0 l 1,1,-1
 786 51 l 1,2,-1
 984 51 l 1,3,-1
 610 428 l 1,4,-1
 235 51 l 1,5,-1
 429 51 l 1,6,-1
 429 0 l 1,7,-1
 53 0 l 1,8,-1
 53 51 l 1,9,-1
 166 51 l 1,10,-1
 573 462 l 1,11,-1
 203 829 l 1,12,-1
 84 829 l 1,13,-1
 84 881 l 1,14,-1
 451 881 l 1,15,-1
 451 829 l 1,16,-1
 278 829 l 1,17,-1
 610 497 l 1,18,-1
 943 829 l 1,19,-1
 777 829 l 1,20,-1
 777 881 l 1,21,-1
 1124 881 l 1,22,-1
 1124 829 l 1,23,-1
 1011 829 l 1,24,-1
 646 462 l 1,25,-1
 1062 51 l 1,26,-1
 1176 51 l 1,27,-1
 1176 0 l 1,0,-1
EndSplineSet
EndChar

StartChar: y
Encoding: 349 121 93
Width: 1228
Flags: W
LayerCount: 2
Fore
SplineSet
688 -313 m 1,0,-1
 89 -313 l 1,1,-1
 89 -262 l 1,2,-1
 400 -262 l 1,3,-1
 579 58 l 1,4,-1
 178 829 l 1,5,-1
 49 829 l 1,6,-1
 49 881 l 1,7,-1
 403 881 l 1,8,-1
 403 829 l 1,9,-1
 245 829 l 1,10,-1
 612 119 l 1,11,-1
 1026 829 l 1,12,-1
 860 829 l 1,13,-1
 860 881 l 1,14,-1
 1206 881 l 1,15,-1
 1206 829 l 1,16,-1
 1090 829 l 1,17,-1
 464 -262 l 1,18,-1
 688 -262 l 1,19,-1
 688 -313 l 1,0,-1
EndSplineSet
EndChar

StartChar: z
Encoding: 350 122 94
Width: 1228
Flags: W
LayerCount: 2
Fore
SplineSet
1016 0 m 1,0,-1
 213 0 l 1,1,-1
 213 51 l 1,2,-1
 941 829 l 1,3,-1
 285 829 l 1,4,-1
 285 637 l 1,5,-1
 233 637 l 1,6,-1
 233 881 l 1,7,-1
 1015 881 l 1,8,-1
 1015 829 l 1,9,-1
 289 51 l 1,10,-1
 966 51 l 1,11,-1
 966 251 l 1,12,-1
 1016 251 l 1,13,-1
 1016 0 l 1,0,-1
EndSplineSet
EndChar

StartChar: braceleft
Encoding: 351 123 95
Width: 1228
Flags: W
LayerCount: 2
Fore
SplineSet
952 1343 m 1,0,1
 952 1313 952 1313 954 1285 c 1,2,3
 801.143 1285 801.143 1285 736 1209 c 1,4,5
 705 1168.88 705 1168.88 705 1120.94 c 0,6,7
 705 1057 705 1057 722 981.5 c 0,8,9
 757 826.059 757 826.059 757 783.029 c 128,-1,10
 757 740 757 740 747.5 710.5 c 128,-1,11
 738 681 738 681 720 655 c 0,12,13
 678.947 595.701 678.947 595.701 614 579 c 1,14,15
 720.273 540.624 720.273 540.624 748.5 441 c 0,16,17
 757 411 757 411 757 370 c 0,18,19
 757 324 757 324 738.5 233 c 0,20,21
 705 68.2162 705 68.2162 705 35.6081 c 0,22,23
 705 -66.62 705 -66.62 777 -105.5 c 0,24,25
 841.312 -140.228 841.312 -140.228 954 -148 c 1,26,-1
 952 -205 l 1,27,28
 752.502 -196.688 752.502 -196.688 680.5 -83 c 0,29,30
 652 -38 652 -38 652 18 c 0,31,32
 652 85.5556 652 85.5556 669 165.778 c 0,33,34
 704 330.941 704 330.941 704 378 c 0,35,36
 704 525.409 704 525.409 514 547 c 1,37,-1
 514 606 l 1,38,39
 649.398 618.895 649.398 618.895 690 703 c 0,40,41
 704 732 704 732 704 771 c 0,42,43
 704 817 704 817 686.5 896 c 0,44,45
 652 1051.74 652 1051.74 652 1113.87 c 128,-1,46
 652 1176 652 1176 680.5 1221 c 128,-1,47
 709 1266 709 1266 753.5 1292.5 c 0,48,49
 829.748 1337.91 829.748 1337.91 952 1343 c 1,0,1
EndSplineSet
EndChar

StartChar: bar
Encoding: 352 124 96
Width: 1228
Flags: W
LayerCount: 2
Fore
SplineSet
649 -380 m 1,0,-1
 584 -380 l 1,1,-1
 584 1378 l 1,2,-1
 649 1378 l 1,3,-1
 649 -380 l 1,0,-1
EndSplineSet
EndChar

StartChar: braceright
Encoding: 353 125 97
Width: 1228
Flags: W
LayerCount: 2
Fore
SplineSet
737 547 m 1,0,1
 547 525.409 547 525.409 547 378 c 0,2,3
 547 340 547 340 556 293 c 128,-1,4
 565 246 565 246 573.5 204.5 c 0,5,6
 599 80 599 80 599 21 c 128,-1,7
 599 -38 599 -38 570.5 -83 c 128,-1,8
 542 -128 542 -128 497.5 -154.5 c 0,9,10
 421.252 -199.906 421.252 -199.906 299 -205 c 1,11,-1
 297 -148 l 1,12,13
 463.727 -136.091 463.727 -136.091 515 -72 c 1,14,15
 546 -30.0588 546 -30.0588 546 17.4706 c 0,16,17
 546 76 546 76 529 154 c 0,18,19
 494 314.588 494 314.588 494 362.794 c 128,-1,20
 494 411 494 411 502.5 441 c 128,-1,21
 511 471 511 471 529 497.5 c 0,22,23
 567.25 553.812 567.25 553.812 637 579 c 1,24,25
 572.053 595.701 572.053 595.701 531 655 c 0,26,27
 494 708.444 494 708.444 494 763.222 c 128,-1,28
 494 818 494 818 503 862 c 128,-1,29
 512 906 512 906 521.5 950 c 0,30,31
 546 1063.47 546 1063.47 546 1099.24 c 0,32,33
 546 1168.88 546 1168.88 521.5 1199.44 c 128,-1,34
 497 1230 497 1230 472 1244.5 c 128,-1,35
 447 1259 447 1259 418 1268 c 0,36,37
 363.222 1285 363.222 1285 297 1285 c 1,38,39
 299 1313 299 1313 299 1343 c 1,40,41
 498.498 1334.69 498.498 1334.69 570.5 1221 c 0,42,43
 599 1176 599 1176 599 1120 c 0,44,45
 599 1052.44 599 1052.44 581 970.722 c 0,46,47
 547 816.358 547 816.358 547 774.179 c 128,-1,48
 547 732 547 732 561 703 c 128,-1,49
 575 674 575 674 600.5 654 c 0,50,51
 651.293 614.163 651.293 614.163 737 606 c 1,52,-1
 737 547 l 1,0,1
EndSplineSet
EndChar

StartChar: asciitilde
Encoding: 354 126 98
Width: 1228
Flags: W
LayerCount: 2
Fore
SplineSet
221 515 m 1,0,-1
 184 558 l 1,1,2
 204.222 594.111 204.222 594.111 217.111 613.056 c 0,3,4
 235.512 640.102 235.512 640.102 273 682 c 0,5,6
 333 749 333 749 418 749 c 0,7,8
 464.778 749 464.778 749 527.389 724.5 c 128,-1,9
 590 700 590 700 684 661.5 c 128,-1,10
 778 623 778 623 814 623 c 0,11,12
 921 623 921 623 1013 770 c 1,13,-1
 1052 728 l 1,14,15
 1024.56 679.982 1024.56 679.982 992.281 643.491 c 128,-1,16
 960 607 960 607 948 599 c 1,17,-1
 949 599 l 1,18,19
 887.105 550 887.105 550 817 550 c 0,20,21
 769.674 550 769.674 550 668.837 591.5 c 0,22,23
 478.818 669.703 478.818 669.703 457.409 672.852 c 128,-1,24
 436 676 436 676 408.5 676 c 128,-1,25
 381 676 381 676 358.5 665.5 c 128,-1,26
 336 655 336 655 322 643 c 128,-1,27
 308 631 308 631 294.5 616.5 c 0,28,29
 271.077 591.342 271.077 591.342 257.038 570.171 c 128,-1,30
 243 549 243 549 236 539 c 128,-1,31
 229 529 229 529 221 515 c 1,0,-1
EndSplineSet
EndChar

StartChar: exclamdown
Encoding: 356 161 100
Width: 1228
Flags: W
LayerCount: 2
Fore
SplineSet
567 -299 m 1,0,-1
 606 470 l 1,1,-1
 658 470 l 1,2,-1
 694 -299 l 1,3,-1
 567 -299 l 1,0,-1
721 740 m 1,4,5
 682 709 682 709 628.5 709 c 128,-1,6
 575 709 575 709 541.5 741.5 c 128,-1,7
 508 774 508 774 508 817 c 128,-1,8
 508 860 508 860 541.5 892 c 128,-1,9
 575 924 575 924 630.5 924 c 128,-1,10
 686 924 686 924 721 892.5 c 128,-1,11
 756 861 756 861 756 816.5 c 128,-1,12
 756 772 756 772 721 740 c 1,4,5
EndSplineSet
EndChar

StartChar: cent
Encoding: 357 162 101
Width: 1228
Flags: W
LayerCount: 2
Fore
SplineSet
1061 299 m 1,0,1
 1051.67 315.333 1051.67 315.333 1049 322 c 1,2,3
 1059 327 1059 327 1061.5 329 c 128,-1,4
 1064 331 1064 331 1067.5 332.5 c 0,5,6
 1078 337 1078 337 1083 337 c 1,7,-1
 1061 299 l 1,0,1
1022 366 m 1,8,9
 1037.55 338.364 1037.55 338.364 1049 322 c 1,10,11
 961.09 265.117 961.09 265.117 909.545 244.059 c 0,12,13
 832.74 212.68 832.74 212.68 675 184 c 1,14,-1
 675 -124 l 1,15,-1
 620 -124 l 1,16,-1
 620 183 l 1,17,18
 484 213 484 213 439.5 238 c 0,19,20
 366.251 279.151 366.251 279.151 319 349 c 1,21,-1
 319 348 l 1,22,23
 247 456 247 456 247 594 c 128,-1,24
 247 732 247 732 340 842.5 c 128,-1,25
 433 953 433 953 620 984 c 1,26,-1
 620 1274 l 1,27,-1
 675 1274 l 1,28,-1
 675 983 l 1,29,30
 758 976 758 976 795.5 961 c 0,31,32
 863.909 933.636 863.909 933.636 878.955 921.818 c 128,-1,33
 894 910 894 910 900.5 902.5 c 0,34,35
 919.133 881 919.133 881 936 881 c 0,36,37
 973.077 881 973.077 881 984 952 c 1,38,-1
 985 954 l 1,39,40
 1033.17 948.333 1033.17 948.333 1035 948 c 1,41,42
 1020 852.375 1020 852.375 1020 807.688 c 128,-1,43
 1020 763 1020 763 1024 687 c 1,44,-1
 973 682 l 1,45,46
 972 693 972 693 971.5 703 c 0,47,48
 969.284 747.319 969.284 747.319 945.642 795.659 c 128,-1,49
 922 844 922 844 882 873 c 1,50,-1
 882 871 l 1,51,52
 796.6 932 796.6 932 675 932 c 1,53,-1
 675 239 l 1,54,55
 800 260 800 260 847.5 278 c 0,56,57
 924.878 307.322 924.878 307.322 1022 366 c 1,8,9
309 586 m 2,58,59
 309 460 309 460 388 360 c 1,60,61
 457.74 274.513 457.74 274.513 561 253 c 0,62,63
 585 248 585 248 620 240 c 1,64,-1
 620 930 l 1,65,66
 398.553 879.384 398.553 879.384 330 708 c 0,67,68
 321.508 685.921 321.508 685.921 315.254 649.96 c 128,-1,69
 309 614 309 614 309 607 c 2,70,-1
 309 586 l 2,58,59
EndSplineSet
EndChar

StartChar: sterling
Encoding: 358 163 102
Width: 1228
Flags: W
LayerCount: 2
Fore
SplineSet
496 1137 m 256,0,1
 411 1055 411 1055 411 958.341 c 128,-1,2
 411 861.683 411 861.683 477 683 c 1,3,-1
 996 683 l 1,4,-1
 996 632 l 1,5,-1
 495 632 l 1,6,7
 519 521 519 521 519 441 c 128,-1,8
 519 361 519 361 504.5 307 c 0,9,10
 481.3 220.6 481.3 220.6 466.15 191.8 c 0,11,12
 434.622 131.865 434.622 131.865 397 77 c 1,13,-1
 430 44 l 1,14,15
 529 92 529 92 590.5 92 c 128,-1,16
 652 92 652 92 742.5 56.5 c 128,-1,17
 833 21 833 21 881.5 21 c 128,-1,18
 930 21 930 21 961.5 37 c 0,19,20
 1010.73 62.005 1010.73 62.005 1058 99 c 1,21,-1
 1091 59 l 1,22,23
 1001 -31 1001 -31 885 -31 c 0,24,25
 823 -31 823 -31 766.5 -9.5 c 128,-1,26
 710 12 710 12 685 20 c 128,-1,27
 660 28 660 28 644.5 33 c 0,28,29
 619.7 41 619.7 41 577 41 c 0,30,31
 477 41 477 41 340 -35 c 1,32,-1
 295 22 l 1,33,34
 468 210.727 468 210.727 468 440 c 0,35,36
 468 536 468 536 436 632 c 1,37,-1
 215 632 l 1,38,-1
 215 683 l 1,39,-1
 423 683 l 1,40,41
 356 860 356 860 356 946 c 0,42,43
 356 1085 356 1085 462 1179.5 c 128,-1,44
 568 1274 568 1274 699.5 1274 c 128,-1,45
 831 1274 831 1274 956 1224 c 0,46,47
 976 1216 976 1216 992.5 1216 c 128,-1,48
 1009 1216 1009 1216 1022 1238 c 1,49,-1
 1071 1238 l 1,50,51
 1050.26 1149.86 1050.26 1149.86 1039 1044 c 1,52,53
 1024 1042 1024 1042 1014 1041.5 c 128,-1,54
 1004 1041 1004 1041 993 1039 c 1,55,56
 995 1073 995 1073 995 1077.25 c 2,57,-1
 995 1082 l 2,58,59
 995 1133 995 1133 949 1167 c 1,60,61
 894.733 1198.01 894.733 1198.01 823.366 1208.5 c 128,-1,62
 752 1219 752 1219 722 1219 c 0,63,64
 581 1219 581 1219 496 1137 c 256,0,1
EndSplineSet
EndChar

StartChar: currency
Encoding: 359 164 103
Width: 1228
Flags: W
LayerCount: 2
Fore
SplineSet
1044 1031 m 1,0,-1
 1082 995 l 1,1,-1
 909 823 l 1,2,3
 994 707 994 707 994 586.5 c 128,-1,4
 994 466 994 466 909 350 c 1,5,-1
 1082 180 l 1,6,7
 1048.5 146.5 1048.5 146.5 1043 142 c 1,8,-1
 870 314 l 1,9,10
 758 225 758 225 632.367 225 c 128,-1,11
 506.733 225 506.733 225 394 314 c 1,12,13
 374 295 374 295 352.5 273.5 c 0,14,15
 308 229 308 229 274.5 195.5 c 128,-1,16
 241 162 241 162 220 142 c 1,17,-1
 182 180 l 1,18,-1
 357 350 l 1,19,20
 272 472 272 472 272 570 c 0,21,22
 272 676 272 676 310 752 c 1,23,24
 318 764 318 764 331.5 786 c 128,-1,25
 345 808 345 808 356 823 c 1,26,27
 274 903 274 903 182 995 c 1,28,29
 202 1015 202 1015 220 1031 c 1,30,-1
 394 859 l 1,31,32
 506.733 948 506.733 948 629.367 948 c 128,-1,33
 752 948 752 948 871 860 c 1,34,35
 949 936 949 936 1044 1031 c 1,0,-1
856 804 m 1,36,37
 768 897 768 897 631 897 c 128,-1,38
 494 897 494 897 408.5 803.5 c 128,-1,39
 323 710 323 710 323 586.5 c 128,-1,40
 323 463 323 463 408 369.5 c 128,-1,41
 493 276 493 276 629.5 276 c 128,-1,42
 766 276 766 276 855 371.5 c 128,-1,43
 944 467 944 467 944 590.5 c 128,-1,44
 944 714 944 714 856 805 c 1,45,-1
 856 804 l 1,36,37
EndSplineSet
EndChar

StartChar: yen
Encoding: 360 165 104
Width: 1228
Flags: W
LayerCount: 2
Fore
SplineSet
923 0 m 1,0,-1
 355 0 l 1,1,-1
 355 51 l 1,2,-1
 612 51 l 1,3,-1
 612 301 l 1,4,-1
 293 301 l 1,5,-1
 293 352 l 1,6,-1
 612 352 l 1,7,-1
 612 529 l 1,8,-1
 293 529 l 1,9,-1
 293 580 l 1,10,-1
 612 580 l 1,11,-1
 612 643 l 1,12,-1
 196 1182 l 1,13,-1
 77 1182 l 1,14,-1
 77 1233 l 1,15,-1
 453 1233 l 1,16,-1
 453 1182 l 1,17,-1
 262 1182 l 1,18,-1
 639 693 l 1,19,-1
 1008 1182 l 1,20,-1
 818 1182 l 1,21,-1
 818 1233 l 1,22,-1
 1187 1233 l 1,23,-1
 1187 1182 l 1,24,-1
 1070 1182 l 1,25,-1
 666 641 l 1,26,-1
 666 580 l 1,27,-1
 978 580 l 1,28,-1
 978 529 l 1,29,-1
 666 529 l 1,30,-1
 666 352 l 1,31,-1
 978 352 l 1,32,-1
 978 301 l 1,33,-1
 666 301 l 1,34,-1
 666 51 l 1,35,-1
 923 51 l 1,36,-1
 923 0 l 1,0,-1
EndSplineSet
EndChar

StartChar: brokenbar
Encoding: 361 166 105
Width: 1228
Flags: W
LayerCount: 2
Fore
SplineSet
666 649 m 1,0,-1
 601 649 l 1,1,-1
 601 1407 l 1,2,-1
 666 1407 l 1,3,-1
 666 649 l 1,0,-1
666 -401 m 1,4,-1
 601 -401 l 1,5,-1
 601 356 l 1,6,-1
 666 356 l 1,7,-1
 666 -401 l 1,4,-1
EndSplineSet
EndChar

StartChar: section
Encoding: 362 167 106
Width: 1228
Flags: W
LayerCount: 2
Fore
SplineSet
621 -146 m 2,0,1
 693 -146 693 -146 755 -106 c 128,-1,2
 817 -66 817 -66 817 12 c 0,3,4
 817 73.8158 817 73.8158 767 122.5 c 0,5,6
 748 141 748 141 718 164 c 1,7,-1
 719 164 l 1,8,9
 647 219 647 219 574 275.5 c 128,-1,10
 501 332 501 332 463 360.5 c 128,-1,11
 425 389 425 389 420.5 392 c 128,-1,12
 416 395 416 395 406 403.5 c 128,-1,13
 396 412 396 412 384 421.5 c 128,-1,14
 372 431 372 431 361 440.5 c 0,15,16
 302.529 490.997 302.529 490.997 289.265 527.999 c 128,-1,17
 276 565 276 565 276 615 c 128,-1,18
 276 665 276 665 321.5 723.5 c 128,-1,19
 367 782 367 782 476 803 c 1,20,21
 400 883 400 883 400 952.5 c 0,22,23
 400 1067.14 400 1067.14 488 1130 c 1,24,25
 545.474 1169 545.474 1169 677 1169 c 2,26,-1
 973 1169 l 1,27,-1
 973 932 l 1,28,-1
 921 932 l 1,29,-1
 921 1118 l 1,30,-1
 647 1118 l 2,31,32
 461 1118 461 1118 461 967 c 0,33,34
 461 884 461 884 550 816 c 1,35,-1
 549 816 l 1,36,37
 624 759 624 759 698.5 701.5 c 128,-1,38
 773 644 773 644 813 613 c 128,-1,39
 853 582 853 582 859 577 c 128,-1,40
 865 572 865 572 876 563.5 c 128,-1,41
 887 555 887 555 899.5 545 c 2,42,-1
 922 527 l 1,43,44
 991.866 468.779 991.866 468.779 1004.93 428.889 c 128,-1,45
 1018 389 1018 389 1018 359 c 128,-1,46
 1018 329 1018 329 1009 300.5 c 128,-1,47
 1000 272 1000 272 978 245 c 0,48,49
 927.442 182.952 927.442 182.952 825 161 c 1,50,51
 879 74 879 74 879 14 c 0,52,53
 879 -85 879 -85 807 -141 c 128,-1,54
 735 -197 735 -197 608 -197 c 2,55,-1
 291 -197 l 1,56,-1
 291 65 l 1,57,-1
 343 65 l 1,58,-1
 343 -146 l 1,59,-1
 621 -146 l 2,0,1
757 207 m 1,60,61
 866.044 212.363 866.044 212.363 918 265.5 c 0,62,63
 956 304.364 956 304.364 956 352.682 c 128,-1,64
 956 401 956 401 933 429.5 c 0,65,66
 892.356 479.863 892.356 479.863 812 543 c 2,67,-1
 527 764 l 1,68,69
 391.178 748.207 391.178 748.207 350 659 c 0,70,71
 337 629.1 337 629.1 337 605.05 c 0,72,73
 337 545.4 337 545.4 398.5 488 c 0,74,75
 421 467 421 467 456 440 c 2,76,-1
 757 207 l 1,60,61
EndSplineSet
EndChar

StartChar: dieresis
Encoding: 363 168 107
Width: 1228
Flags: W
LayerCount: 2
Fore
SplineSet
544 1112 m 1,0,-1
 439 1112 l 1,1,-1
 439 1295 l 1,2,-1
 544 1295 l 1,3,-1
 544 1112 l 1,0,-1
825 1112 m 1,4,-1
 721 1112 l 1,5,-1
 721 1295 l 1,6,-1
 825 1295 l 1,7,-1
 825 1112 l 1,4,-1
EndSplineSet
EndChar

StartChar: copyright
Encoding: 364 169 108
Width: 1228
Flags: W
LayerCount: 2
Fore
SplineSet
615 -10 m 0,0,1
 361.857 -10 361.857 -10 189 166 c 0,2,3
 134 223 134 223 93.5 291.5 c 0,4,5
 12 429.346 12 429.346 12 595 c 0,6,7
 12 759.275 12 759.275 93 899 c 1,8,9
 181.127 1042.21 181.127 1042.21 316.063 1120.1 c 128,-1,10
 451 1198 451 1198 615 1198 c 256,11,12
 779 1198 779 1198 917 1117.5 c 128,-1,13
 1055 1037 1055 1037 1136.5 897 c 128,-1,14
 1218 757 1218 757 1218 595 c 256,15,16
 1218 433 1218 433 1136 291.5 c 128,-1,17
 1054 150 1054 150 917.5 70 c 128,-1,18
 781 -10 781 -10 615 -10 c 0,0,1
900 98 m 1,19,20
 1027.22 170.418 1027.22 170.418 1109 306 c 1,21,22
 1186 437.711 1186 437.711 1186 593 c 256,23,24
 1186 827.849 1186 827.849 1019 998 c 0,25,26
 854.111 1166 854.111 1166 615 1166 c 0,27,28
 498 1166 498 1166 393 1121 c 128,-1,29
 288 1076 288 1076 211 999.5 c 128,-1,30
 134 923 134 923 89 816.5 c 128,-1,31
 44 710 44 710 44 573.5 c 128,-1,32
 44 437 44 437 121 305.5 c 128,-1,33
 198 174 198 174 328.5 98 c 128,-1,34
 459 22 459 22 615.5 22 c 128,-1,35
 772 22 772 22 900 98 c 1,19,20
844 932 m 1,36,37
 844 926 844 926 842.5 911.625 c 128,-1,38
 841 897.25 841 897.25 841 841.5 c 128,-1,39
 841 785.75 841 785.75 850 716 c 1,40,-1
 824 712 l 1,41,42
 779.657 906 779.657 906 608 906 c 0,43,44
 477.8 906 477.8 906 401 810 c 0,45,46
 327 719.086 327 719.086 327 586 c 0,47,48
 327 494.737 327 494.737 354.5 429.868 c 128,-1,49
 382 365 382 365 413.5 329 c 0,50,51
 486.125 246 486.125 246 620.019 246 c 128,-1,52
 753.914 246 753.914 246 896 369 c 1,53,-1
 919 346 l 1,54,55
 846.579 279.451 846.579 279.451 774 248 c 1,56,-1
 773 248 l 1,57,58
 693.8 212 693.8 212 634.4 212 c 128,-1,59
 575 212 575 212 540.5 220.5 c 128,-1,60
 506 229 506 229 475 243.5 c 0,61,62
 413.41 272.308 413.41 272.308 372 322 c 1,63,64
 288 433.3 288 433.3 288 585 c 128,-1,65
 288 736.708 288 736.708 383.5 836.5 c 0,66,67
 476.752 933.943 476.752 933.943 610 940 c 1,68,69
 704.526 937.852 704.526 937.852 757 891 c 1,70,71
 798.106 856.745 798.106 856.745 818 809 c 1,72,-1
 812 811 l 1,73,74
 811 824 811 824 811 838 c 2,75,-1
 811 897 l 1,76,77
 812 907 812 907 812 915 c 128,-1,78
 812 923 812 923 813 932 c 1,79,-1
 844 932 l 1,36,37
EndSplineSet
EndChar

StartChar: ordfeminine
Encoding: 365 170 109
Width: 1228
Flags: W
LayerCount: 2
Fore
SplineSet
429 1163 m 1,0,1
 543.667 1206 543.667 1206 617 1206 c 0,2,3
 788 1206 788 1206 788 1058 c 2,4,-1
 788 776 l 1,5,-1
 881 776 l 1,6,-1
 881 750 l 1,7,-1
 758 750 l 1,8,-1
 758 837 l 1,9,10
 626.586 734 626.586 734 550.293 734 c 128,-1,11
 474 734 474 734 428 774.5 c 128,-1,12
 382 815 382 815 382 876 c 128,-1,13
 382 937 382 937 439.5 979.5 c 128,-1,14
 497 1022 497 1022 598 1022 c 0,15,16
 648 1022 648 1022 758 1007 c 1,17,-1
 758 1051 l 2,18,19
 758 1119 758 1119 724.5 1148.5 c 128,-1,20
 691 1178 691 1178 621.5 1178 c 128,-1,21
 552 1178 552 1178 440 1136 c 1,22,-1
 429 1163 l 1,0,1
758 980 m 1,23,24
 672.25 994 672.25 994 595.625 994 c 128,-1,25
 519 994 519 994 466.5 961 c 128,-1,26
 414 928 414 928 414 871 c 0,27,28
 414 827.529 414 827.529 441.5 803.265 c 0,29,30
 489.4 761 489.4 761 541 761 c 0,31,32
 649 761 649 761 758 881 c 1,33,-1
 758 980 l 1,23,24
871 576 m 1,34,-1
 394 576 l 1,35,-1
 394 603 l 1,36,-1
 871 603 l 1,37,-1
 871 576 l 1,34,-1
EndSplineSet
EndChar

StartChar: guillemotleft
Encoding: 366 171 110
Width: 1228
Flags: W
LayerCount: 2
Fore
SplineSet
272 466 m 1,0,-1
 687 106 l 1,1,-1
 657 68 l 1,2,3
 578.111 136.37 578.111 136.37 472.555 226.185 c 128,-1,4
 367 316 367 316 310 365.5 c 128,-1,5
 253 415 253 415 193 466 c 1,6,-1
 657 870 l 1,7,8
 663 863 663 863 696 830 c 1,9,-1
 272 466 l 1,0,-1
650 466 m 1,10,-1
 1067 105 l 1,11,-1
 1036 67 l 1,12,13
 975 119 975 119 917 168.5 c 128,-1,14
 859 218 859 218 801.5 267 c 128,-1,15
 744 316 744 316 686.5 365.5 c 128,-1,16
 629 415 629 415 569 466 c 1,17,-1
 1037 871 l 1,18,-1
 1073 830 l 1,19,-1
 650 466 l 1,10,-1
EndSplineSet
EndChar

StartChar: logicalnot
Encoding: 367 172 111
Width: 1228
Flags: W
LayerCount: 2
Fore
SplineSet
1081 366 m 1,0,-1
 1024 366 l 1,1,-1
 1024 841 l 1,2,-1
 202 841 l 1,3,-1
 202 898 l 1,4,-1
 1081 898 l 1,5,-1
 1081 366 l 1,0,-1
EndSplineSet
EndChar

StartChar: registered
Encoding: 368 174 112
Width: 1228
Flags: W
LayerCount: 2
Fore
SplineSet
615 -10 m 0,0,1
 361.857 -10 361.857 -10 189 166 c 0,2,3
 134 223 134 223 93.5 291.5 c 0,4,5
 12 429.346 12 429.346 12 595 c 0,6,7
 12 759.275 12 759.275 93 899 c 1,8,9
 181.127 1042.21 181.127 1042.21 316.063 1120.1 c 128,-1,10
 451 1198 451 1198 615 1198 c 256,11,12
 779 1198 779 1198 917 1117.5 c 128,-1,13
 1055 1037 1055 1037 1136.5 897 c 128,-1,14
 1218 757 1218 757 1218 595 c 256,15,16
 1218 433 1218 433 1136 291.5 c 128,-1,17
 1054 150 1054 150 917.5 70 c 128,-1,18
 781 -10 781 -10 615 -10 c 0,0,1
900 98 m 1,19,20
 1027.22 170.418 1027.22 170.418 1109 306 c 1,21,22
 1186 437.711 1186 437.711 1186 593 c 256,23,24
 1186 827.849 1186 827.849 1019 998 c 0,25,26
 854.111 1166 854.111 1166 615 1166 c 0,27,28
 498 1166 498 1166 393 1121 c 128,-1,29
 288 1076 288 1076 211 999.5 c 128,-1,30
 134 923 134 923 89 816.5 c 128,-1,31
 44 710 44 710 44 573.5 c 128,-1,32
 44 437 44 437 121 305.5 c 128,-1,33
 198 174 198 174 328.5 98 c 128,-1,34
 459 22 459 22 615.5 22 c 128,-1,35
 772 22 772 22 900 98 c 1,19,20
943 267 m 1,36,-1
 810 267 l 1,37,38
 736.5 424.5 736.5 424.5 626 552 c 0,39,40
 593.067 590 593.067 590 546 590 c 2,41,-1
 442 590 l 1,42,-1
 442 296 l 1,43,-1
 553 296 l 1,44,-1
 553 267 l 1,45,-1
 306 267 l 1,46,-1
 306 296 l 1,47,-1
 409 296 l 1,48,-1
 409 914 l 1,49,-1
 306 914 l 1,50,-1
 306 943 l 1,51,-1
 613 943 l 2,52,53
 706.75 943 706.75 943 733.875 932.5 c 0,54,55
 844 889.871 844 889.871 844 772 c 0,56,57
 844 607 844 607 635 588 c 1,58,59
 701 525 701 525 838 296 c 1,60,-1
 943 296 l 1,61,-1
 943 267 l 1,36,-1
598 620 m 2,62,63
 807 620 807 620 807 772 c 0,64,65
 807 887 807 887 700 908 c 0,66,67
 672 914 672 914 610 914 c 2,68,-1
 442 914 l 1,69,-1
 442 620 l 1,70,-1
 598 620 l 2,62,63
EndSplineSet
EndChar

StartChar: overscore.001
Encoding: 369 175 113
Width: 1228
Flags: W
LayerCount: 2
Fore
SplineSet
975 1174 m 1,0,-1
 289 1174 l 1,1,-1
 289 1231 l 1,2,-1
 975 1231 l 1,3,-1
 975 1174 l 1,0,-1
EndSplineSet
EndChar

StartChar: degree
Encoding: 370 176 114
Width: 1228
Flags: W
LayerCount: 2
Fore
SplineSet
938 986 m 256,0,1
 938 860 938 860 848 771 c 128,-1,2
 758 682 758 682 631.5 682 c 128,-1,3
 505 682 505 682 415 770 c 1,4,5
 326 859 326 859 326 986 c 256,6,7
 326 1113 326 1113 415 1204 c 1,8,9
 506 1295 506 1295 633 1295 c 128,-1,10
 760 1295 760 1295 849 1203.5 c 128,-1,11
 938 1112 938 1112 938 986 c 256,0,1
801 1157 m 256,12,13
 732 1226 732 1226 632.5 1226 c 128,-1,14
 533 1226 533 1226 464 1156.5 c 128,-1,15
 395 1087 395 1087 395 987.5 c 128,-1,16
 395 888 395 888 463.5 819.5 c 128,-1,17
 532 751 532 751 631.5 751 c 128,-1,18
 731 751 731 751 800.5 820.5 c 128,-1,19
 870 890 870 890 870 989 c 128,-1,20
 870 1088 870 1088 801 1157 c 256,12,13
EndSplineSet
EndChar

StartChar: plusminus
Encoding: 371 177 115
Width: 1228
Flags: W
LayerCount: 2
Fore
SplineSet
1114 715 m 1,0,-1
 661 715 l 1,1,-1
 661 290 l 1,2,-1
 603 290 l 1,3,-1
 603 715 l 1,4,-1
 150 715 l 1,5,-1
 150 772 l 1,6,-1
 603 772 l 1,7,-1
 603 1197 l 1,8,-1
 661 1197 l 1,9,-1
 661 772 l 1,10,-1
 1114 772 l 1,11,-1
 1114 715 l 1,0,-1
1114 67 m 1,12,-1
 150 67 l 1,13,-1
 150 125 l 1,14,-1
 1114 125 l 1,15,-1
 1114 67 l 1,12,-1
EndSplineSet
EndChar

StartChar: twosuperior
Encoding: 372 178 116
Width: 1228
Flags: W
LayerCount: 2
Fore
SplineSet
837 537 m 1,0,-1
 370 537 l 1,1,-1
 370 586 l 1,2,3
 445.251 650.501 445.251 650.501 561.625 756.75 c 0,4,5
 736.773 916.66 736.773 916.66 766.387 962.83 c 128,-1,6
 796 1009 796 1009 796 1080.5 c 128,-1,7
 796 1152 796 1152 741 1205 c 1,8,9
 682.846 1259 682.846 1259 610.423 1259 c 128,-1,10
 538 1259 538 1259 490 1220 c 1,11,-1
 491 1220 l 1,12,13
 437 1181 437 1181 435 1124 c 1,14,-1
 397 1124 l 1,15,-1
 397 1191 l 1,16,17
 484 1295 484 1295 611 1295 c 0,18,19
 705 1295 705 1295 772.5 1231 c 128,-1,20
 840 1167 840 1167 840 1084.5 c 128,-1,21
 840 1002 840 1002 800 949 c 1,22,23
 761.993 896.514 761.993 896.514 609 754 c 1,24,-1
 411 573 l 1,25,-1
 804 573 l 1,26,-1
 804 697 l 1,27,-1
 837 697 l 1,28,-1
 837 537 l 1,0,-1
EndSplineSet
EndChar

StartChar: threesuperior
Encoding: 373 179 117
Width: 1228
Flags: W
LayerCount: 2
Fore
SplineSet
391 1222 m 1,0,1
 507.8 1295 507.8 1295 591.9 1295 c 128,-1,2
 676 1295 676 1295 733.5 1243 c 128,-1,3
 791 1191 791 1191 791 1105 c 128,-1,4
 791 1019 791 1019 691 939 c 1,5,6
 830 855 830 855 830 748.5 c 128,-1,7
 830 642 830 642 763 579.5 c 128,-1,8
 696 517 696 517 589 517 c 0,9,10
 544 517 544 517 505.5 527 c 0,11,12
 495.197 529.676 495.197 529.676 377 574 c 1,13,-1
 390 608 l 1,14,15
 515 553 515 553 575.5 553 c 0,16,17
 679.074 553 679.074 553 734.537 606 c 128,-1,18
 790 659 790 659 790 740.5 c 128,-1,19
 790 822 790 822 738 867 c 128,-1,20
 686 912 686 912 589 912 c 2,21,-1
 563 912 l 1,22,-1
 563 948 l 1,23,24
 630.562 950.815 630.562 950.815 652.781 962.408 c 0,25,26
 751 1013.65 751 1013.65 751 1109 c 0,27,28
 751 1174.67 751 1174.67 705.5 1217 c 0,29,30
 660.35 1259 660.35 1259 585.675 1259 c 128,-1,31
 511 1259 511 1259 421 1198 c 0,32,33
 419 1196 419 1196 416 1194.5 c 128,-1,34
 413 1193 413 1193 411 1191 c 1,35,-1
 391 1222 l 1,0,1
EndSplineSet
EndChar

StartChar: acute
Encoding: 374 180 118
Width: 1228
Flags: W
LayerCount: 2
Fore
SplineSet
500 1089 m 1,0,-1
 653 1288 l 1,1,-1
 799 1288 l 1,2,3
 777.467 1271 777.467 1271 553 1089 c 1,4,-1
 500 1089 l 1,0,-1
EndSplineSet
EndChar

StartChar: micro
Encoding: 375 181 119
Width: 1228
Flags: W
LayerCount: 2
Fore
SplineSet
471 11 m 1,0,1
 407.917 56.3411 407.917 56.3411 365 134 c 1,2,-1
 321 134 l 1,3,-1
 321 -337 l 1,4,-1
 264 -337 l 1,5,-1
 264 829 l 1,6,-1
 86 829 l 1,7,-1
 86 881 l 1,8,-1
 321 881 l 1,9,-1
 321 394 l 2,10,11
 321 293 321 293 334.5 239 c 128,-1,12
 348 185 348 185 386 134 c 1,13,14
 476 25 476 25 621 25 c 0,15,16
 702 25 702 25 772 60 c 1,17,-1
 771 59 l 1,18,19
 869.915 104.336 869.915 104.336 913 230 c 0,20,21
 937 300 937 300 937 394 c 2,22,-1
 937 829 l 1,23,-1
 760 829 l 1,24,-1
 760 881 l 1,25,-1
 995 881 l 1,26,-1
 995 51 l 1,27,-1
 1174 51 l 1,28,-1
 1174 0 l 1,29,-1
 937 0 l 1,30,-1
 937 149 l 1,31,-1
 892 149 l 1,32,33
 786 -33 786 -33 617 -33 c 0,34,35
 535 -33 535 -33 471 12 c 1,36,-1
 471 11 l 1,0,1
EndSplineSet
EndChar

StartChar: paragraph
Encoding: 376 182 120
Width: 1228
Flags: W
LayerCount: 2
Fore
SplineSet
249 737 m 1,0,1
 232.116 780.149 232.116 780.149 228 846 c 1,2,-1
 228 886 l 1,3,4
 233 947 233 947 251 995.5 c 0,5,6
 315.392 1169 315.392 1169 571 1169 c 2,7,-1
 1023 1169 l 1,8,-1
 1023 1121 l 1,9,-1
 918 1121 l 1,10,-1
 918 -122 l 1,11,-1
 1032 -122 l 1,12,-1
 1032 -167 l 1,13,-1
 831 -167 l 1,14,-1
 831 -122 l 1,15,-1
 872 -122 l 1,16,-1
 872 1121 l 1,17,-1
 643 1121 l 1,18,-1
 643 -122 l 1,19,-1
 685 -122 l 1,20,-1
 685 -167 l 1,21,-1
 463 -167 l 1,22,-1
 463 -122 l 1,23,-1
 597 -122 l 1,24,-1
 597 568 l 1,25,26
 558 565 558 565 507 565 c 0,27,28
 389.576 565 389.576 565 302 650 c 0,29,30
 268 683 268 683 248 737 c 1,31,-1
 249 737 l 1,0,1
326 841 m 2,32,33
 326 667.225 326 667.225 439.408 632.454 c 0,34,35
 492.737 616 492.737 616 597 623 c 1,36,-1
 597 1121 l 1,37,38
 326 1121 326 1121 326 897 c 2,39,-1
 326 841 l 2,32,33
EndSplineSet
EndChar

StartChar: periodcentered
Encoding: 377 183 121
Width: 1228
Flags: W
LayerCount: 2
Fore
SplineSet
533 544 m 1,0,1
 491 577 491 577 491 630.5 c 256,2,3
 491 684 491 684 534 718.5 c 256,4,5
 577 753 577 753 633 753 c 256,6,7
 689 753 689 753 731 718.5 c 256,8,9
 773 684 773 684 773 631.5 c 256,10,11
 773 579 773 579 729.5 544 c 256,12,13
 686 509 686 509 631.5 509 c 256,14,15
 577 509 577 509 532 544 c 1,16,-1
 533 544 l 1,0,1
EndSplineSet
EndChar

StartChar: cedilla
Encoding: 378 184 122
Width: 1228
Flags: W
LayerCount: 2
Fore
SplineSet
561 -178 m 1,0,1
 562 -170.571 562 -170.571 587 8 c 1,2,-1
 641 8 l 1,3,-1
 623 -135 l 1,4,5
 785.702 -149.791 785.702 -149.791 851.5 -212 c 0,6,7
 879 -238 879 -238 879 -263 c 128,-1,8
 879 -288 879 -288 874.388 -311.162 c 128,-1,9
 869.775 -334.324 869.775 -334.324 849.888 -354.162 c 128,-1,10
 830 -374 830 -374 802 -385 c 0,11,12
 751.091 -405 751.091 -405 694.045 -405 c 128,-1,13
 637 -405 637 -405 603.5 -401 c 0,14,15
 559.307 -395.723 559.307 -395.723 442 -365 c 1,16,-1
 454 -322 l 1,17,18
 574.909 -360 574.909 -360 676 -360 c 0,19,20
 811.658 -360 811.658 -360 823 -297 c 0,21,22
 836.378 -216.73 836.378 -216.73 676 -190 c 0,23,24
 629 -183 629 -183 561 -178 c 1,0,1
EndSplineSet
EndChar

StartChar: onesuperior
Encoding: 379 185 123
Width: 1228
Flags: W
LayerCount: 2
Fore
SplineSet
401 1189 m 1,0,-1
 637 1295 l 1,1,-1
 663 1295 l 1,2,-1
 663 573 l 1,3,-1
 879 573 l 1,4,-1
 879 537 l 1,5,-1
 404 537 l 1,6,-1
 404 573 l 1,7,-1
 625 573 l 1,8,-1
 625 1250 l 1,9,10
 568.308 1226.81 568.308 1226.81 416 1157 c 1,11,-1
 401 1189 l 1,0,-1
EndSplineSet
EndChar

StartChar: ordmasculine
Encoding: 380 186 124
Width: 1228
Flags: W
LayerCount: 2
Fore
SplineSet
815 800 m 1,0,1
 744 734 744 734 631 734 c 128,-1,2
 518 734 518 734 449 799 c 128,-1,3
 380 864 380 864 380 969 c 256,4,5
 380 1074 380 1074 449.5 1140 c 128,-1,6
 519 1206 519 1206 630.5 1206 c 128,-1,7
 742 1206 742 1206 813 1139.5 c 128,-1,8
 884 1073 884 1073 884 970 c 128,-1,9
 884 867 884 867 814 800 c 1,10,-1
 815 800 l 1,0,1
787 1119 m 1,11,12
 727 1178 727 1178 632 1178 c 0,13,14
 539.069 1178 539.069 1178 476 1119 c 1,15,16
 416 1059 416 1059 416 969.5 c 128,-1,17
 416 880 416 880 476 820 c 1,18,19
 538 761 538 761 632.5 761 c 128,-1,20
 727 761 727 761 788 821 c 128,-1,21
 849 881 849 881 849 970 c 128,-1,22
 849 1059 849 1059 786 1119 c 1,23,-1
 787 1119 l 1,11,12
871 576 m 1,24,-1
 394 576 l 1,25,-1
 394 603 l 1,26,-1
 871 603 l 1,27,-1
 871 576 l 1,24,-1
EndSplineSet
EndChar

StartChar: guillemotright
Encoding: 381 187 125
Width: 1228
Flags: W
LayerCount: 2
Fore
SplineSet
568 830 m 1,0,1
 603.75 868.5 603.75 868.5 606 871 c 1,2,-1
 1072 466 l 1,3,4
 959.995 369.995 959.995 369.995 606 67 c 1,5,-1
 576 105 l 1,6,-1
 992 466 l 1,7,8
 568 830 l 1,0,1
193 830 m 1,9,10
 220.5 862.5 220.5 862.5 229 871 c 1,11,-1
 695 466 l 1,12,-1
 229 66 l 1,13,14
 209.8 88.4 209.8 88.4 197 106 c 1,15,-1
 615 466 l 1,16,17
 202.364 822 202.364 822 193 830 c 1,9,10
EndSplineSet
EndChar

StartChar: questiondown
Encoding: 385 191 129
Width: 1228
Flags: W
LayerCount: 2
Fore
SplineSet
715 333 m 1,0,-1
 692 328 l 2,1,2
 665.787 322.029 665.787 322.029 653.394 318.514 c 128,-1,3
 641 315 641 315 629.5 312.5 c 0,4,5
 606.756 307.556 606.756 307.556 590.878 301.778 c 128,-1,6
 575 296 575 296 569.5 294.5 c 128,-1,7
 564 293 564 293 559 291 c 1,8,-1
 558 291 l 1,9,10
 489.671 268.753 489.671 268.753 435.836 228.877 c 128,-1,11
 382 189 382 189 358 140.5 c 128,-1,12
 334 92 334 92 329 20 c 1,13,14
 329 -72.2 329 -72.2 393 -149 c 0,15,16
 428 -192 428 -192 496 -219.5 c 128,-1,17
 564 -247 564 -247 669 -247 c 128,-1,18
 774 -247 774 -247 926 -187 c 1,19,-1
 926 -57 l 1,20,-1
 984 -57 l 1,21,-1
 984 -234 l 1,22,23
 861 -275 861 -275 818 -285.5 c 0,24,25
 742.238 -304 742.238 -304 654.119 -304 c 0,26,27
 473 -304 473 -304 370.5 -206.5 c 128,-1,28
 268 -109 268 -109 268 26 c 0,29,30
 268 119.429 268 119.429 316 188 c 1,31,32
 371.605 276.969 371.605 276.969 542 338.5 c 0,33,34
 607.25 362.062 607.25 362.062 659 375 c 1,35,-1
 659 499 l 1,36,-1
 715 499 l 1,37,-1
 715 333 l 1,0,-1
784 740 m 1,38,39
 747 709 747 709 694.5 709 c 128,-1,40
 642 709 642 709 606.5 739.5 c 128,-1,41
 571 770 571 770 571 815.5 c 128,-1,42
 571 861 571 861 607.5 892.5 c 128,-1,43
 644 924 644 924 696 924 c 128,-1,44
 748 924 748 924 783.5 893.5 c 128,-1,45
 819 863 819 863 819 818 c 128,-1,46
 819 773 819 773 784 740 c 1,38,39
EndSplineSet
EndChar

StartChar: AE
Encoding: 392 198 136
Width: 1228
Flags: W
LayerCount: 2
Fore
SplineSet
1088 50 m 1,0,1
 1100.62 340.237 1100.62 340.237 1101 347 c 1,2,-1
 1151 347 l 1,3,-1
 1151 0 l 1,4,-1
 657 0 l 1,5,-1
 657 393 l 1,6,-1
 353 393 l 1,7,-1
 211 50 l 1,8,-1
 413 50 l 1,9,-1
 413 0 l 1,10,-1
 53 0 l 1,11,-1
 53 50 l 1,12,-1
 157 50 l 1,13,-1
 582 1103 l 1,14,-1
 350 1103 l 1,15,-1
 350 1153 l 1,16,-1
 1135 1153 l 1,17,-1
 1135 818 l 1,18,-1
 1088 818 l 1,19,-1
 1068 1103 l 1,20,-1
 714 1103 l 1,21,-1
 714 638 l 1,22,-1
 903 638 l 1,23,-1
 903 794 l 1,24,-1
 951 794 l 1,25,-1
 951 432 l 1,26,-1
 903 432 l 1,27,-1
 903 587 l 1,28,-1
 714 587 l 1,29,-1
 714 50 l 1,30,-1
 1088 50 l 1,0,1
657 443 m 1,31,-1
 657 1077 l 1,32,-1
 611 1077 l 1,33,-1
 369 443 l 1,34,-1
 657 443 l 1,31,-1
EndSplineSet
EndChar

StartChar: Eth
Encoding: 402 208 146
Width: 1228
Flags: W
LayerCount: 2
Fore
SplineSet
253 50 m 1,0,-1
 253 585 l 1,1,-1
 85 585 l 1,2,-1
 85 635 l 1,3,-1
 253 635 l 1,4,-1
 253 1103 l 1,5,-1
 85 1103 l 1,6,-1
 85 1153 l 1,7,-1
 594 1153 l 2,8,9
 745.571 1153 745.571 1153 817.786 1131.5 c 128,-1,10
 890 1110 890 1110 932 1078.5 c 128,-1,11
 974 1047 974 1047 1012 1002 c 1,12,13
 1139 837.525 1139 837.525 1139 599 c 0,14,15
 1139 282.405 1139 282.405 969 117 c 1,16,17
 878.826 32.9738 878.826 32.9738 759 15 c 1,18,19
 669 3.15944e-07 669 3.15944e-07 585 0 c 2,20,-1
 85 0 l 1,21,-1
 85 50 l 1,22,-1
 253 50 l 1,0,-1
585 50 m 2,23,24
 676.2 50 676.2 50 733.1 61 c 0,25,26
 848.264 83.2636 848.264 83.2636 919.132 154.132 c 0,27,28
 1074 309 1074 309 1074 593 c 0,29,30
 1074 808 1074 808 969 954 c 1,31,32
 901 1046 901 1046 818 1076 c 1,33,34
 738.929 1103 738.929 1103 596 1103 c 2,35,-1
 310 1103 l 1,36,-1
 310 635 l 1,37,-1
 665 635 l 1,38,-1
 665 585 l 1,39,-1
 310 585 l 1,40,-1
 310 50 l 1,41,-1
 585 50 l 2,23,24
EndSplineSet
EndChar

StartChar: multiply
Encoding: 409 215 153
Width: 1228
Flags: W
LayerCount: 2
Fore
SplineSet
949 996 m 1,0,-1
 990 956 l 1,1,-1
 672 638 l 1,2,-1
 989 320 l 1,3,-1
 948 279 l 1,4,-1
 632 598 l 1,5,-1
 473.5 439.5 l 2,6,7
 390 356 390 356 314 279 c 1,8,-1
 292 301 l 2,9,10
 284 309 284 309 274 320 c 1,11,-1
 593 638 l 1,12,13
 428 803 428 803 274 955 c 1,14,-1
 315 995 l 1,15,-1
 632 679 l 1,16,-1
 949 996 l 1,0,-1
EndSplineSet
EndChar

StartChar: Oslash
Encoding: 410 216 154
Width: 1228
Flags: W
LayerCount: 2
Fore
SplineSet
1008 1011 m 1,0,1
 1152 835.941 1152 835.941 1152 571 c 0,2,3
 1152 315 1152 315 1014 145.5 c 0,4,5
 865.416 -37 865.416 -37 637 -37 c 0,6,7
 452 -37 452 -37 300 90 c 1,8,-1
 193 -40 l 1,9,10
 183.571 -31.4286 183.571 -31.4286 159 -13 c 1,11,-1
 261 122 l 1,12,13
 135.247 285.479 135.247 285.479 113 437.5 c 0,14,15
 104 499 104 499 104 573 c 0,16,17
 104 745 104 745 166.5 883.5 c 128,-1,18
 229 1022 229 1022 351 1106 c 128,-1,19
 473 1190 473 1190 616.5 1190 c 128,-1,20
 760 1190 760 1190 843 1143 c 1,21,22
 913.424 1104.59 913.424 1104.59 980 1046 c 1,23,24
 997 1067 997 1067 1021 1097 c 2,25,26
 1065 1152 l 1,27,28
 1098 1126 l 1,29,-1
 1008 1011 l 1,0,1
330 139 m 1,30,31
 472 21 472 21 619 21 c 128,-1,32
 766 21 766 21 870 96 c 1,33,34
 974.496 168.344 974.496 168.344 1030.25 295.672 c 128,-1,35
 1086 423 1086 423 1086 573 c 0,36,37
 1086 769 1086 769 970 962 c 1,38,-1
 330 139 l 1,30,31
940 995 m 1,39,40
 821 1132 821 1132 625 1132 c 0,41,42
 487 1132 487 1132 379 1050 c 1,43,44
 272.471 966.006 272.471 966.006 220.736 843.003 c 128,-1,45
 169 720 169 720 169 608.5 c 128,-1,46
 169 497 169 497 195.5 385 c 128,-1,47
 222 273 222 273 304 174 c 1,48,-1
 940 995 l 1,39,40
EndSplineSet
EndChar

StartChar: Thorn
Encoding: 416 222 160
Width: 1228
Flags: W
LayerCount: 2
Fore
SplineSet
635 0 m 1,0,-1
 163 0 l 1,1,-1
 163 50 l 1,2,-1
 336 50 l 1,3,-1
 336 1103 l 1,4,-1
 163 1103 l 1,5,-1
 163 1153 l 1,6,-1
 635 1153 l 1,7,-1
 635 1103 l 1,8,-1
 393 1103 l 1,9,-1
 393 943 l 1,10,-1
 535 943 l 2,11,12
 734 943 734 943 795 934 c 0,13,14
 899.238 918.621 899.238 918.621 943.619 890.31 c 0,15,16
 1018.81 842.348 1018.81 842.348 1060.9 767.174 c 128,-1,17
 1103 692 1103 692 1103 603 c 128,-1,18
 1103 514 1103 514 1072 456.5 c 0,19,20
 1020.6 361.159 1020.6 361.159 971.799 333.08 c 0,21,22
 890.042 286.036 890.042 286.036 833.021 277.018 c 0,23,24
 744.385 263 744.385 263 535 263 c 2,25,-1
 393 263 l 1,26,-1
 393 50 l 1,27,-1
 635 50 l 1,28,-1
 635 0 l 1,0,-1
666 313 m 1,29,30
 709.2 315.4 709.2 315.4 769.6 320.7 c 0,31,32
 980.729 339.226 980.729 339.226 1028.5 527.5 c 0,33,34
 1037 561 1037 561 1037 602.5 c 128,-1,35
 1037 644 1037 644 1025.5 682.5 c 128,-1,36
 1014 721 1014 721 994.5 752.5 c 0,37,38
 956.344 814.137 956.344 814.137 895 847 c 1,39,-1
 896 847 l 1,40,41
 830.197 884.193 830.197 884.193 757.099 888.596 c 128,-1,42
 684 893 684 893 627 893 c 2,43,-1
 393 893 l 1,44,-1
 393 313 l 1,45,-1
 666 313 l 1,29,30
EndSplineSet
EndChar

StartChar: germandbls
Encoding: 417 223 161
Width: 1228
Flags: W
LayerCount: 2
Fore
SplineSet
753.464 -15 m 128,-1,1
 611.929 -15 611.929 -15 515 44 c 1,2,-1
 515 100 l 1,3,4
 627 42 627 42 737 42 c 0,5,6
 827.667 42 827.667 42 910 107 c 0,7,8
 951 140 951 140 976.5 199.5 c 128,-1,9
 1002 259 1002 259 1002 334 c 0,10,11
 1002 676.676 1002 676.676 565 705 c 1,12,-1
 565 757 l 1,13,14
 860 789.329 860 789.329 860 1016 c 0,15,16
 860 1176.38 860 1176.38 730 1229 c 0,17,18
 688 1246 688 1246 637 1246 c 0,19,20
 535.151 1246 535.151 1246 458 1179 c 0,21,22
 371 1103.15 371 1103.15 371 934 c 2,23,-1
 371 0 l 1,24,-1
 149 0 l 1,25,-1
 149 51 l 1,26,-1
 314 51 l 1,27,-1
 314 952 l 2,28,29
 314 1110 314 1110 409 1207 c 1,30,31
 507 1303 507 1303 637.5 1303 c 128,-1,32
 768 1303 768 1303 844.5 1220.5 c 128,-1,33
 921 1138 921 1138 921 1018 c 0,34,35
 921 935 921 935 873.5 865 c 128,-1,36
 826 795 826 795 695 741 c 1,37,38
 873 679 873 679 934 630 c 0,39,40
 1069 522 1069 522 1069 324 c 0,41,42
 1069 182.867 1069 182.867 982 83.9333 c 128,-1,0
 895 -15 895 -15 753.464 -15 c 128,-1,1
EndSplineSet
EndChar

StartChar: ae
Encoding: 424 230 168
Width: 1228
Flags: W
LayerCount: 2
Fore
SplineSet
725 125 m 0,0,1
 798.44 23 798.44 23 946.5 23 c 0,2,3
 1030 23 1030 23 1160 63 c 1,4,-1
 1179 19 l 1,5,6
 1020.3 -31 1020.3 -31 950.152 -31 c 0,7,8
 792 -31 792 -31 704 68 c 0,9,10
 696 77 696 77 690 86 c 1,11,-1
 690 85 l 1,12,13
 688 87 688 87 686 90.5 c 128,-1,14
 684 94 684 94 681 97 c 1,15,-1
 683 96 l 1,16,17
 681 99 681 99 676 105 c 128,-1,18
 671 111 671 111 665.5 118.5 c 0,19,20
 652.667 136 652.667 136 648 143 c 1,21,22
 472 -33 472 -33 323 -33 c 0,23,24
 212 -33 212 -33 145 43 c 1,25,-1
 145 42 l 1,26,27
 80 121 80 121 80 226 c 0,28,29
 80 335.684 80 335.684 158 426 c 1,30,31
 242.444 526 242.444 526 400 526 c 0,32,33
 425 526 425 526 593 502 c 1,34,-1
 593 607 l 2,35,36
 593 737 593 737 557 800 c 1,37,-1
 557 799 l 1,38,39
 517 870 517 870 412.615 870 c 128,-1,40
 308.231 870 308.231 870 165 821 c 1,41,-1
 151 867 l 1,42,43
 309.333 924 309.333 924 410.167 924 c 128,-1,44
 511 924 511 924 555 887 c 128,-1,45
 599 850 599 850 636 733 c 1,46,47
 641 740 641 740 650.5 752 c 128,-1,48
 660 764 660 764 669.5 776 c 128,-1,49
 679 788 679 788 686.5 798.5 c 0,50,51
 701.5 819.5 701.5 819.5 729.75 847.75 c 128,-1,52
 758 876 758 876 779.5 889 c 0,53,54
 837.385 924 837.385 924 903 924 c 2,55,-1
 914.5 924 l 2,56,57
 925 924 925 924 965 913.5 c 128,-1,58
 1005 903 1005 903 1030.5 886 c 128,-1,59
 1056 869 1056 869 1078 840.5 c 128,-1,60
 1100 812 1100 812 1113 790.5 c 128,-1,61
 1126 769 1126 769 1136.5 742 c 0,62,63
 1178 635.286 1178 635.286 1178 476 c 2,64,-1
 1178 440 l 1,65,-1
 649 440 l 1,66,67
 653.14 305.438 653.14 305.438 668.07 244.719 c 128,-1,68
 683 184 683 184 725 125 c 0,0,1
593 448 m 1,69,70
 476 472 476 472 401 472 c 0,71,72
 201.831 472 201.831 472 149 302.5 c 0,73,74
 137 264 137 264 137 224.5 c 0,75,76
 137 147 137 147 184.5 84 c 128,-1,77
 232 21 232 21 320 21 c 0,78,79
 436 21 436 21 593 155 c 1,80,-1
 593 448 l 1,69,70
1119 491 m 1,81,82
 1115 675 1115 675 1058.5 772.5 c 128,-1,83
 1002 870 1002 870 901.5 870 c 128,-1,84
 801 870 801 870 723 774 c 0,85,86
 656.359 690.699 656.359 690.699 652.5 586.5 c 0,87,88
 652 573 652 573 651 556.5 c 0,89,90
 649 523.5 649 523.5 649 491 c 1,91,-1
 1119 491 l 1,81,82
EndSplineSet
EndChar

StartChar: eth
Encoding: 434 240 178
Width: 1228
Flags: W
LayerCount: 2
Fore
SplineSet
616 1465 m 1,0,1
 644.9 1446.3 644.9 1446.3 667 1431 c 1,2,-1
 582 1297 l 1,3,4
 595.5 1288 595.5 1288 609.75 1279 c 128,-1,5
 624 1270 624 1270 632 1264.5 c 128,-1,6
 640 1259 640 1259 645 1256 c 1,7,-1
 644 1258 l 1,8,9
 653 1252 653 1252 661 1247 c 128,-1,10
 669 1242 669 1242 679 1235.5 c 0,11,12
 722.077 1207.5 722.077 1207.5 760.538 1177.25 c 0,13,14
 859.179 1099.67 859.179 1099.67 901.59 1050.33 c 128,-1,15
 944 1001 944 1001 971.5 966 c 128,-1,16
 999 931 999 931 1021 897 c 128,-1,17
 1043 863 1043 863 1061 826 c 0,18,19
 1144 655.389 1144 655.389 1144 466 c 0,20,21
 1144 315.182 1144 315.182 1075 196 c 1,22,23
 1001.49 79.2433 1001.49 79.2433 893 25 c 1,24,-1
 893 26 l 1,25,26
 777 -31 777 -31 632 -31 c 0,27,28
 458.094 -31 458.094 -31 319.5 57.5 c 0,29,30
 278 84 278 84 247 116 c 1,31,32
 120 262.05 120 262.05 120 446 c 0,33,34
 120 592 120 592 190 701 c 1,35,36
 253.002 804.093 253.002 804.093 372 868 c 1,37,38
 484 924 484 924 635.5 924 c 128,-1,39
 787 924 787 924 915 860 c 1,40,-1
 948 893 l 1,41,42
 857.893 1007.14 857.893 1007.14 816.446 1045.57 c 128,-1,43
 775 1084 775 1084 739.5 1112.5 c 0,44,45
 667.551 1170.26 667.551 1170.26 548 1240 c 1,46,47
 460.545 1102.09 460.545 1102.09 436 1063 c 1,48,-1
 385 1100 l 1,49,-1
 496 1267 l 1,50,51
 341.926 1339.28 341.926 1339.28 251 1371 c 1,52,-1
 272 1429 l 1,53,54
 376.485 1393.64 376.485 1393.64 529 1322 c 1,55,-1
 616 1465 l 1,0,1
1062 328 m 128,-1,57
 1078 386 1078 386 1078 453.286 c 128,-1,58
 1078 520.571 1078 520.571 1048 602 c 1,59,-1
 1049 602 l 1,60,61
 982.919 787.026 982.919 787.026 780.5 851.5 c 0,62,63
 713 873 713 873 632 873 c 0,64,65
 427 873 427 873 307 747 c 0,66,67
 186 619.95 186 619.95 186 446 c 0,68,69
 186 275.067 186 275.067 306 148.033 c 128,-1,70
 426 21 426 21 632 21 c 0,71,72
 731.941 21 731.941 21 808.971 52.5 c 128,-1,73
 886 84 886 84 934 126 c 128,-1,74
 982 168 982 168 1014 219 c 128,-1,56
 1046 270 1046 270 1062 328 c 128,-1,57
EndSplineSet
EndChar

StartChar: divide
Encoding: 441 247 185
Width: 1228
Flags: W
LayerCount: 2
Fore
SplineSet
683.5 1072 m 128,-1,1
 705 1051 705 1051 705 1022.05 c 128,-1,2
 705 993.1 705 993.1 684 971.05 c 128,-1,3
 663 949 663 949 632.5 949 c 128,-1,4
 602 949 602 949 581 970.5 c 128,-1,5
 560 992 560 992 560 1022 c 128,-1,6
 560 1052 560 1052 581.5 1072.5 c 128,-1,7
 603 1093 603 1093 632.5 1093 c 128,-1,0
 662 1093 662 1093 683.5 1072 c 128,-1,1
1114 602 m 1,8,-1
 150 602 l 1,9,-1
 150 660 l 1,10,-1
 1114 660 l 1,11,-1
 1114 602 l 1,8,-1
683 292.5 m 128,-1,13
 705 272 705 272 705 241.5 c 128,-1,14
 705 211 705 211 683 190 c 128,-1,15
 661 169 661 169 632 169 c 256,16,17
 603 169 603 169 581.5 190 c 128,-1,18
 560 211 560 211 560 241 c 256,19,20
 560 271 560 271 581.5 292 c 128,-1,21
 603 313 603 313 632 313 c 256,22,12
 661 313 661 313 683 292.5 c 128,-1,13
EndSplineSet
EndChar

StartChar: oslash
Encoding: 442 248 186
Width: 1228
Flags: W
LayerCount: 2
Fore
SplineSet
149 24 m 1,0,1
 545 413.201 545 413.201 1067 924 c 1,2,-1
 1114 879 l 1,3,-1
 197 -20 l 1,4,5
 193 -16 193 -16 149 24 c 1,0,1
1144 446 m 0,6,7
 1144 296.095 1144 296.095 1062 177 c 1,8,-1
 1062 176 l 1,9,10
 967.941 30.0468 967.941 30.0468 774 -15.5 c 0,11,12
 708 -31 708 -31 608.5 -31 c 128,-1,13
 509 -31 509 -31 410.5 8.5 c 128,-1,14
 312 48 312 48 249 115.5 c 0,15,16
 120 253.714 120 253.714 120 446 c 0,17,18
 120 640.81 120 640.81 249 778 c 256,19,20
 386.284 924 386.284 924 632 924 c 0,21,22
 758 924 758 924 857.5 883.5 c 0,23,24
 1038.43 809.855 1038.43 809.855 1111.5 621 c 0,25,26
 1144 537 1144 537 1144 446 c 0,6,7
1078 452.786 m 0,27,28
 1078 519.571 1078 519.571 1048 601 c 1,29,-1
 1049 601 l 1,30,31
 983.358 784.796 983.358 784.796 782 845.5 c 0,32,33
 714 866 714 866 621 866 c 128,-1,34
 528 866 528 866 442.5 832 c 128,-1,35
 357 798 357 798 301 737 c 1,36,-1
 302 737 l 1,37,38
 186 614.786 186 614.786 186 446 c 0,39,40
 186 274.053 186 274.053 300.5 155.5 c 0,41,42
 424.607 27 424.607 27 632 27 c 0,43,44
 814.585 27 814.585 27 934 129 c 0,45,46
 1078 252 1078 252 1078 452.786 c 0,27,28
EndSplineSet
EndChar

StartChar: thorn
Encoding: 448 254 192
Width: 1228
Flags: W
LayerCount: 2
Fore
SplineSet
35 1295 m 1,0,-1
 285 1309 l 1,1,-1
 285 727 l 1,2,-1
 328 727 l 1,3,4
 458 908 458 908 688 908 c 0,5,6
 819 908 819 908 927 841 c 128,-1,7
 1035 774 1035 774 1090 671 c 128,-1,8
 1145 568 1145 568 1145 475 c 0,9,10
 1145 319.273 1145 319.273 1077 209.136 c 128,-1,11
 1009 99 1009 99 905.5 42 c 128,-1,12
 802 -15 802 -15 692 -15 c 2,13,-1
 673.5 -15 l 2,14,15
 641 -15 641 -15 595.282 -4.45545 c 128,-1,16
 549.564 6.0891 549.564 6.0891 520.782 18.5445 c 128,-1,17
 492 31 492 31 469 45 c 128,-1,18
 446 59 446 59 422 77.5 c 0,19,20
 367.389 119.596 367.389 119.596 327 171 c 1,21,-1
 285 171 l 1,22,-1
 285 -289 l 1,23,-1
 607 -289 l 1,24,-1
 607 -341 l 1,25,-1
 50 -341 l 1,26,-1
 50 -289 l 1,27,-1
 228 -289 l 1,28,-1
 228 1251 l 1,29,-1
 35 1243 l 1,30,-1
 35 1295 l 1,0,-1
964 159.5 m 128,-1,32
 1079 277 1079 277 1079 452 c 0,33,34
 1079 599.4 1079 599.4 983 721 c 1,35,36
 936 778 936 778 860 814.5 c 128,-1,37
 784 851 784 851 690 851 c 0,38,39
 512 851 512 851 394 734.5 c 128,-1,40
 276 618 276 618 276 456 c 0,41,42
 276 263.805 276 263.805 414 146 c 0,43,44
 535.829 42 535.829 42 692.414 42 c 128,-1,31
 849 42 849 42 964 159.5 c 128,-1,32
EndSplineSet
EndChar

StartChar: Hbar
Encoding: 488 294 232
Width: 1228
Flags: W
LayerCount: 2
Fore
SplineSet
1149 0 m 1,0,-1
 769 0 l 1,1,-1
 769 50 l 1,2,-1
 929 50 l 1,3,-1
 929 571 l 1,4,-1
 298 571 l 1,5,-1
 298 50 l 1,6,-1
 458 50 l 1,7,-1
 458 0 l 1,8,-1
 81 0 l 1,9,-1
 81 50 l 1,10,-1
 241 50 l 1,11,-1
 241 850 l 1,12,-1
 81 850 l 1,13,-1
 81 900 l 1,14,-1
 241 900 l 1,15,-1
 241 1103 l 1,16,-1
 81 1103 l 1,17,-1
 81 1153 l 1,18,-1
 458 1153 l 1,19,-1
 458 1103 l 1,20,-1
 298 1103 l 1,21,-1
 298 900 l 1,22,-1
 929 900 l 1,23,-1
 929 1103 l 1,24,-1
 769 1103 l 1,25,-1
 769 1153 l 1,26,-1
 1149 1153 l 1,27,-1
 1149 1103 l 1,28,-1
 986 1103 l 1,29,-1
 986 900 l 1,30,-1
 1149 900 l 1,31,-1
 1149 850 l 1,32,-1
 986 850 l 1,33,-1
 986 50 l 1,34,-1
 1149 50 l 1,35,-1
 1149 0 l 1,0,-1
929 621 m 1,36,-1
 929 850 l 1,37,-1
 298 850 l 1,38,-1
 298 621 l 1,39,-1
 929 621 l 1,36,-1
EndSplineSet
EndChar

StartChar: Idotaccent
Encoding: 498 304 242
Width: 1228
Flags: W
LayerCount: 2
Fore
SplineSet
1016 0 m 1,0,-1
 212 0 l 1,1,-1
 212 50 l 1,2,-1
 585 50 l 1,3,-1
 585 1103 l 1,4,-1
 212 1103 l 1,5,-1
 212 1153 l 1,6,-1
 1016 1153 l 1,7,-1
 1016 1103 l 1,8,-1
 643 1103 l 1,9,-1
 643 50 l 1,10,-1
 1016 50 l 1,11,-1
 1016 0 l 1,0,-1
666 1363 m 1,12,-1
 562 1363 l 1,13,-1
 562 1544 l 1,14,-1
 666 1544 l 1,15,-1
 666 1363 l 1,12,-1
EndSplineSet
EndChar

StartChar: dotlessi
Encoding: 499 305 243
Width: 1228
Flags: W
LayerCount: 2
Fore
SplineSet
1021 0 m 1,0,-1
 208 0 l 1,1,-1
 208 51 l 1,2,-1
 588 51 l 1,3,-1
 588 829 l 1,4,-1
 270 829 l 1,5,-1
 270 881 l 1,6,-1
 647 881 l 1,7,-1
 647 51 l 1,8,-1
 1021 51 l 1,9,-1
 1021 0 l 1,0,-1
EndSplineSet
EndChar

StartChar: IJ
Encoding: 500 306 244
Width: 1228
Flags: W
LayerCount: 2
Fore
SplineSet
1040 248 m 2,0,1
 1040 101.612 1040 101.612 965.5 26 c 0,2,3
 902.441 -38 902.441 -38 805 -38 c 0,4,5
 709.75 -38 709.75 -38 635.5 28 c 0,6,7
 613 48 613 48 599 71 c 1,8,-1
 599 442 l 1,9,-1
 655 442 l 1,10,-1
 655 85 l 1,11,12
 679 53 679 53 720 33 c 128,-1,13
 761 13 761 13 799.5 13 c 128,-1,14
 838 13 838 13 870 25 c 128,-1,15
 902 37 902 37 927 65 c 0,16,17
 983 127.72 983 127.72 983 248 c 2,18,-1
 983 1103 l 1,19,-1
 737 1103 l 1,20,-1
 737 1153 l 1,21,-1
 1180 1153 l 1,22,-1
 1180 1103 l 1,23,-1
 1040 1103 l 1,24,-1
 1040 248 l 2,0,1
435 0 m 1,25,-1
 33 0 l 1,26,-1
 33 50 l 1,27,-1
 203 50 l 1,28,-1
 203 1103 l 1,29,-1
 33 1103 l 1,30,-1
 33 1153 l 1,31,-1
 435 1153 l 1,32,-1
 435 1103 l 1,33,-1
 261 1103 l 1,34,-1
 261 50 l 1,35,-1
 435 50 l 1,36,-1
 435 0 l 1,25,-1
EndSplineSet
EndChar

StartChar: ij
Encoding: 501 307 245
Width: 1228
Flags: W
LayerCount: 2
Fore
SplineSet
647 0 m 1,0,-1
 54 0 l 1,1,-1
 54 51 l 1,2,-1
 314 51 l 1,3,-1
 314 829 l 1,4,-1
 112 829 l 1,5,-1
 112 881 l 1,6,-1
 372 881 l 1,7,-1
 372 51 l 1,8,-1
 647 51 l 1,9,-1
 647 0 l 1,0,-1
372 1136 m 1,10,-1
 266 1136 l 1,11,-1
 266 1343 l 1,12,-1
 372 1343 l 1,13,-1
 372 1136 l 1,10,-1
411 -310 m 1,14,15
 544.4 -339 544.4 -339 644.2 -339 c 0,16,17
 817.6 -339 817.6 -339 888 -275 c 1,18,19
 937.282 -233.931 937.282 -233.931 955 -184 c 1,20,-1
 954 -185 l 1,21,22
 981 -116.273 981 -116.273 981 -38 c 1,23,24
 983 -30 983 -30 983 -18 c 2,25,-1
 983 829 l 1,26,-1
 657 829 l 1,27,-1
 657 881 l 1,28,-1
 1041 881 l 1,29,-1
 1041 -31 l 2,30,31
 1041 -68 1041 -68 1037 -94.5 c 128,-1,32
 1033 -121 1033 -121 1031 -135 c 128,-1,33
 1029 -149 1029 -149 1024.5 -166.5 c 0,34,35
 965.486 -396 965.486 -396 661 -396 c 0,36,37
 562 -396 562 -396 398 -364 c 1,38,-1
 411 -310 l 1,14,15
997 1136 m 1,39,-1
 892 1136 l 1,40,-1
 892 1343 l 1,41,-1
 997 1343 l 1,42,-1
 997 1136 l 1,39,-1
EndSplineSet
EndChar

StartChar: kgreenlandic
Encoding: 506 312 250
Width: 1228
Flags: W
LayerCount: 2
Fore
SplineSet
930 51 m 1,0,1
 775.161 237.6 775.161 237.6 492 497 c 1,2,-1
 344 384 l 1,3,-1
 344 0 l 1,4,-1
 109 0 l 1,5,-1
 109 51 l 1,6,-1
 286 51 l 1,7,-1
 286 829 l 1,8,-1
 76 829 l 1,9,-1
 76 881 l 1,10,-1
 344 881 l 1,11,-1
 344 440 l 1,12,-1
 872 843 l 1,13,-1
 866 829 l 1,14,-1
 669 829 l 1,15,-1
 669 881 l 1,16,-1
 1073 881 l 1,17,-1
 1073 829 l 1,18,-1
 927 829 l 1,19,-1
 532 526 l 1,20,21
 645.667 423.333 645.667 423.333 708.333 360.667 c 2,22,-1
 802 267 l 1,23,24
 904.232 161.361 904.232 161.361 993 51 c 1,25,-1
 1153 51 l 1,26,-1
 1153 0 l 1,27,-1
 756 0 l 1,28,-1
 756 51 l 1,29,-1
 930 51 l 1,0,1
EndSplineSet
EndChar

StartChar: Lslash
Encoding: 515 321 259
Width: 1228
Flags: W
LayerCount: 2
Fore
SplineSet
88 423 m 1,0,-1
 703 845 l 1,1,-1
 740 790 l 1,2,-1
 125 368 l 1,3,4
 106.6 394.067 106.6 394.067 88 423 c 1,0,-1
1048 50 m 1,5,6
 1065.37 333.744 1065.37 333.744 1077 482 c 1,7,-1
 1128 482 l 1,8,-1
 1106 0 l 1,9,-1
 123 0 l 1,10,-1
 123 50 l 1,11,-1
 337 50 l 1,12,-1
 337 1103 l 1,13,-1
 123 1103 l 1,14,-1
 123 1153 l 1,15,-1
 656 1153 l 1,16,-1
 656 1103 l 1,17,-1
 393 1103 l 1,18,-1
 393 50 l 1,19,-1
 1048 50 l 1,5,6
EndSplineSet
EndChar

StartChar: lslash
Encoding: 516 322 260
Width: 1228
Flags: W
LayerCount: 2
Fore
SplineSet
333 448 m 1,0,-1
 296 503 l 1,1,2
 376 558 376 558 453.5 611.5 c 128,-1,3
 531 665 531 665 608 718 c 128,-1,4
 685 771 685 771 762 824 c 128,-1,5
 839 877 839 877 919 932 c 1,6,-1
 957 876 l 1,7,-1
 333 448 l 1,0,-1
222 1244 m 1,8,-1
 642 1271 l 1,9,-1
 642 51 l 1,10,-1
 1019 51 l 1,11,-1
 1019 0 l 1,12,-1
 208 0 l 1,13,-1
 208 51 l 1,14,-1
 584 51 l 1,15,-1
 584 1222 l 1,16,-1
 229 1194 l 1,17,-1
 222 1244 l 1,8,-1
EndSplineSet
EndChar

StartChar: Eng
Encoding: 523 330 267
Width: 1228
Flags: W
LayerCount: 2
Fore
SplineSet
1073 32 m 2,0,1
 1073 -121.778 1073 -121.778 973 -204 c 1,2,3
 877.763 -281 877.763 -281 765 -281 c 2,4,-1
 628 -281 l 1,5,-1
 628 -224 l 1,6,-1
 765 -224 l 2,7,8
 902.241 -224 902.241 -224 969.5 -122.5 c 0,9,10
 1017 -50.8182 1017 -50.8182 1017 32 c 2,11,-1
 1017 851 l 2,12,13
 1017 1045.14 1017 1045.14 878.5 1104.5 c 0,14,15
 833 1124 833 1124 776.5 1124 c 0,16,17
 555.761 1124 555.761 1124 332 905 c 1,18,-1
 332 50 l 1,19,-1
 512 50 l 1,20,-1
 512 0 l 1,21,-1
 93 0 l 1,22,-1
 93 50 l 1,23,-1
 275 50 l 1,24,-1
 275 1103 l 1,25,-1
 93 1103 l 1,26,-1
 93 1153 l 1,27,-1
 332 1153 l 1,28,-1
 332 987 l 1,29,30
 345 996 345 996 363 1008 c 128,-1,31
 381 1020 381 1020 398.5 1032 c 0,32,33
 465.681 1078.07 465.681 1078.07 502.341 1097.03 c 128,-1,34
 539 1116 539 1116 540.5 1117.5 c 128,-1,35
 542 1119 542 1119 573 1134.5 c 128,-1,36
 604 1150 604 1150 649 1161.5 c 0,37,38
 725.304 1181 725.304 1181 784 1181 c 256,39,40
 958.867 1181 958.867 1181 1033 1034.5 c 0,41,42
 1073 955.452 1073 955.452 1073 854 c 2,43,-1
 1073 32 l 2,0,1
EndSplineSet
EndChar

StartChar: eng
Encoding: 524 331 268
Width: 1228
Flags: W
LayerCount: 2
Fore
SplineSet
404 741 m 1,0,1
 366.308 716.769 366.308 716.769 304 669 c 1,2,-1
 304 51 l 1,3,-1
 486 51 l 1,4,-1
 486 0 l 1,5,-1
 69 0 l 1,6,-1
 69 51 l 1,7,-1
 247 51 l 1,8,-1
 247 829 l 1,9,-1
 69 829 l 1,10,-1
 69 881 l 1,11,-1
 304 881 l 1,12,-1
 304 735 l 1,13,14
 317 744 317 744 335 757 c 128,-1,15
 353 770 353 770 370 782 c 0,16,17
 404 806 404 806 420 816 c 0,18,19
 525.166 881.729 525.166 881.729 587.083 897.364 c 128,-1,20
 649 913 649 913 702 913 c 0,21,22
 837 913 837 913 918 821 c 128,-1,23
 999 729 999 729 999 586 c 2,24,-1
 999 36 l 2,25,26
 999 -126.25 999 -126.25 897 -207 c 1,27,28
 803 -285 803 -285 685 -285 c 2,29,-1
 565 -285 l 1,30,-1
 565 -227 l 1,31,-1
 685 -227 l 2,32,33
 811.848 -227 811.848 -227 882.5 -135.5 c 0,34,35
 942 -58.4426 942 -58.4426 942 36 c 2,36,-1
 942 572 l 2,37,38
 942 700.375 942 700.375 874 779 c 1,39,40
 803 856 803 856 706 856 c 0,41,42
 592.941 856 592.941 856 489 794 c 0,43,44
 462 778 462 778 440 765 c 128,-1,45
 418 752 418 752 403 741 c 1,46,-1
 404 741 l 1,0,1
EndSplineSet
EndChar

StartChar: OE
Encoding: 531 338 275
Width: 1228
Flags: W
LayerCount: 2
Fore
SplineSet
1076 50 m 1,0,-1
 1088 345 l 1,1,-1
 1137 345 l 1,2,-1
 1137 0 l 1,3,-1
 505 0 l 2,4,5
 307.5 0 307.5 0 182.5 160 c 0,6,7
 47 333.44 47 333.44 47 567 c 0,8,9
 47 731 47 731 113.5 866 c 128,-1,10
 180 1001 180 1001 303.5 1077 c 128,-1,11
 427 1153 427 1153 583 1153 c 2,12,-1
 1110 1153 l 1,13,-1
 1110 818 l 1,14,-1
 1065 818 l 1,15,-1
 1044 1103 l 1,16,-1
 715 1103 l 1,17,-1
 715 638 l 1,18,-1
 904 638 l 1,19,-1
 904 794 l 1,20,-1
 952 794 l 1,21,-1
 952 432 l 1,22,-1
 904 432 l 1,23,-1
 904 587 l 1,24,-1
 715 587 l 1,25,-1
 715 50 l 1,26,-1
 1076 50 l 1,0,-1
657 50 m 1,27,-1
 657 1103 l 1,28,-1
 577 1103 l 2,29,30
 359.986 1103 359.986 1103 231 944.5 c 0,31,32
 112 798.271 112 798.271 112 573 c 1,33,34
 108.797 416.039 108.797 416.039 192 263.5 c 0,35,36
 219 214 219 214 254 173 c 1,37,38
 332.587 87.864 332.587 87.864 455 59.5 c 0,39,40
 496 50 496 50 538 50 c 2,41,-1
 657 50 l 1,27,-1
EndSplineSet
EndChar

StartChar: oe
Encoding: 532 339 276
Width: 1228
Flags: W
LayerCount: 2
Fore
SplineSet
854 32 m 128,-1,1
 890 21 890 21 953.238 21 c 128,-1,2
 1016.48 21 1016.48 21 1159 62 c 1,3,-1
 1179 17 l 1,4,5
 1018.13 -33 1018.13 -33 930 -33 c 0,6,7
 879.25 -33 879.25 -33 804 -5 c 1,8,9
 764 12 764 12 718 65 c 128,-1,10
 672 118 672 118 634 206 c 1,11,12
 631 199 631 199 624 185.5 c 128,-1,13
 617 172 617 172 610 157 c 128,-1,14
 603 142 603 142 594 125 c 0,15,16
 555.805 52.8536 555.805 52.8536 508 17 c 1,17,-1
 508 18 l 1,18,19
 434.333 -33 434.333 -33 353.667 -33 c 0,20,21
 185.8 -33 185.8 -33 113 71 c 0,22,23
 46.2308 166.385 46.2308 166.385 32.5 322 c 0,24,25
 31 339 31 339 30 350 c 1,26,-1
 30 401 l 2,27,28
 30 615 30 615 106 767 c 1,29,30
 145 838 145 838 212 882 c 128,-1,31
 279 926 279 926 349 926 c 0,32,33
 474.31 926 474.31 926 539 859 c 1,34,35
 588.209 811.378 588.209 811.378 629 713 c 1,36,37
 686 816 686 816 759 870 c 128,-1,38
 832 924 832 924 902.5 924 c 128,-1,39
 973 924 973 924 1028 884.5 c 128,-1,40
 1083 845 1083 845 1115 781.5 c 0,41,42
 1179 654.5 1179 654.5 1179 518 c 2,43,-1
 1179 478 l 2,44,45
 1179 460 1179 460 1177 444 c 1,46,-1
 650 444 l 1,47,48
 644.644 243.158 644.644 243.158 729.5 124 c 0,49,50
 753 91 753 91 779 70 c 1,51,0
 818 43 818 43 854 32 c 128,-1,1
334 21 m 0,52,53
 593 21 593 21 593 432 c 1,54,55
 589.325 744.4 589.325 744.4 496 825 c 0,56,57
 441.379 873 441.379 873 366.69 873 c 0,58,59
 222.575 873 222.575 873 152 712 c 1,60,61
 96 578.759 96 578.759 96 408 c 0,62,63
 96 269.625 96 269.625 131.5 182.312 c 128,-1,64
 167 95 167 95 216 58 c 128,-1,65
 265 21 265 21 334 21 c 0,52,53
1122 489 m 1,66,67
 1122 714.588 1122 714.588 1030 812 c 0,68,69
 976 870 976 870 901 870 c 0,70,71
 808.706 870 808.706 870 724 774 c 1,72,73
 696 739 696 739 674 665 c 128,-1,74
 652 591 652 591 650 489 c 1,75,-1
 1122 489 l 1,66,67
EndSplineSet
EndChar

StartChar: florin
Encoding: 576 402 320
Width: 1228
Flags: W
LayerCount: 2
Fore
SplineSet
1037 1296 m 1,0,1
 980.125 1309 980.125 1309 906.562 1309 c 0,2,3
 773.941 1309 773.941 1309 685 1267 c 1,4,5
 581.596 1211.11 581.596 1211.11 560 1098.5 c 0,6,7
 550 1046.36 550 1046.36 550 1023.68 c 2,8,-1
 550 869 l 1,9,-1
 932 869 l 1,10,-1
 932 829 l 1,11,-1
 550 829 l 1,12,-1
 550 99 l 2,13,14
 550 -18.6471 550 -18.6471 506 -73 c 0,15,16
 402.381 -201 402.381 -201 130 -201 c 0,17,18
 84 -201 84 -201 48 -195 c 1,19,20
 49.8333 -160.167 49.8333 -160.167 53 -138 c 1,21,22
 116 -147 116 -147 168 -147 c 0,23,24
 235.1 -147 235.1 -147 306.05 -128 c 128,-1,25
 377 -109 377 -109 406 -91 c 128,-1,26
 435 -73 435 -73 453 -51 c 0,27,28
 493 -2.11111 493 -2.11111 493 78.5 c 2,29,-1
 493 829 l 1,30,-1
 261 829 l 1,31,-1
 261 869 l 1,32,-1
 493 869 l 1,33,-1
 493 997 l 2,34,35
 493 1118.65 493 1118.65 534 1191 c 0,36,37
 589.361 1288.7 589.361 1288.7 714 1329.5 c 0,38,39
 798 1357 798 1357 880.5 1358.5 c 128,-1,40
 963 1360 963 1360 1044 1354 c 1,41,42
 1041 1319 1041 1319 1037 1296 c 1,0,1
EndSplineSet
EndChar

StartChar: dotlessj
Encoding: 580 567 324
Width: 1228
Flags: W
LayerCount: 2
Fore
SplineSet
236 -310 m 1,0,1
 369.4 -339 369.4 -339 471.2 -339 c 128,-1,2
 573 -339 573 -339 627.5 -322 c 128,-1,3
 682 -305 682 -305 717 -276.5 c 128,-1,4
 752 -248 752 -248 770.5 -211.5 c 128,-1,5
 789 -175 789 -175 797 -136.5 c 0,6,7
 807 -88.375 807 -88.375 807 7 c 2,8,-1
 807 829 l 1,9,-1
 480 829 l 1,10,-1
 480 881 l 1,11,-1
 865 881 l 1,12,-1
 865 -8 l 2,13,14
 865 -227.6 865 -227.6 753 -320 c 0,15,16
 666.285 -392.262 666.285 -392.262 485 -396 c 1,17,18
 388 -396 388 -396 222 -364 c 1,19,20
 229.143 -339.714 229.143 -339.714 236 -310 c 1,0,1
EndSplineSet
EndChar

StartChar: circumflex
Encoding: 581 710 325
Width: 1228
Flags: W
LayerCount: 2
Fore
SplineSet
372 1117 m 1,0,1
 494.833 1251 494.833 1251 537 1295 c 1,2,-1
 681 1295 l 1,3,-1
 854 1118 l 1,4,5
 834.4 1102.6 834.4 1102.6 820 1093 c 1,6,-1
 602 1235 l 1,7,-1
 406 1093 l 1,8,9
 395 1101 395 1101 387.5 1106 c 128,-1,10
 380 1111 380 1111 372 1117 c 1,0,1
EndSplineSet
EndChar

StartChar: caron
Encoding: 582 711 326
Width: 1228
Flags: W
LayerCount: 2
Fore
SplineSet
622 1140 m 1,0,-1
 820 1282 l 1,1,2
 831 1274 831 1274 837.5 1268 c 128,-1,3
 844 1262 844 1262 852 1257 c 1,4,-1
 687 1081 l 1,5,-1
 546 1081 l 1,6,7
 501 1127 501 1127 458.5 1169 c 128,-1,8
 416 1211 416 1211 371 1257 c 1,9,-1
 403 1282 l 1,10,-1
 622 1140 l 1,0,-1
EndSplineSet
EndChar

StartChar: breve
Encoding: 583 728 327
Width: 1228
Flags: W
LayerCount: 2
Fore
SplineSet
351 1278 m 1,0,1
 441.551 1125 441.551 1125 615.776 1125 c 128,-1,2
 790 1125 790 1125 882 1278 c 1,3,-1
 930 1278 l 1,4,5
 835.604 1081 835.604 1081 617 1081 c 0,6,7
 480.509 1081 480.509 1081 384 1163.5 c 0,8,9
 353 1190 353 1190 331 1223 c 1,10,-1
 331 1222 l 1,11,12
 315.444 1246.89 315.444 1246.89 303 1278 c 1,13,-1
 351 1278 l 1,0,1
EndSplineSet
EndChar

StartChar: dotaccent
Encoding: 584 729 328
Width: 1228
Flags: W
LayerCount: 2
Fore
SplineSet
668 1089 m 1,0,-1
 563 1089 l 1,1,-1
 563 1272 l 1,2,-1
 668 1272 l 1,3,-1
 668 1089 l 1,0,-1
EndSplineSet
EndChar

StartChar: ring
Encoding: 585 730 329
Width: 1228
Flags: W
LayerCount: 2
Fore
SplineSet
514 1259 m 1,0,1
 557 1300 557 1300 613.5 1300 c 128,-1,2
 670 1300 670 1300 711 1259.5 c 128,-1,3
 752 1219 752 1219 752 1161 c 128,-1,4
 752 1103 752 1103 711.5 1062.5 c 128,-1,5
 671 1022 671 1022 614 1022 c 128,-1,6
 557 1022 557 1022 514 1062 c 1,7,8
 474 1102 474 1102 474 1159.5 c 128,-1,9
 474 1217 474 1217 514 1259 c 1,0,1
615 1053 m 256,10,11
 659 1053 659 1053 682 1076 c 0,12,13
 721 1115 721 1115 721 1160 c 256,14,15
 721 1231.38 721 1231.38 656.5 1259.5 c 0,16,17
 637 1268 637 1268 603.5 1268 c 128,-1,18
 570 1268 570 1268 538 1239.5 c 128,-1,19
 506 1211 506 1211 506 1174.5 c 128,-1,20
 506 1138 506 1138 514.5 1118.5 c 128,-1,21
 523 1099 523 1099 538 1084.5 c 0,22,23
 570.586 1053 570.586 1053 615 1053 c 256,10,11
EndSplineSet
EndChar

StartChar: ogonek
Encoding: 586 731 330
Width: 1228
Flags: W
LayerCount: 2
Fore
SplineSet
740 -268 m 1,0,-1
 755 -328 l 1,1,2
 683.409 -373 683.409 -373 600 -373 c 0,3,4
 485.705 -373 485.705 -373 435.5 -285.5 c 0,5,6
 418 -255 418 -255 417 -212 c 1,7,8
 413 -137 413 -137 467.5 -79 c 128,-1,9
 522 -21 522 -21 628 7 c 1,10,-1
 694 7 l 1,11,12
 505.812 -66.1842 505.812 -66.1842 483.5 -152 c 0,13,14
 460.307 -241.205 460.307 -241.205 520 -281 c 0,15,16
 554.5 -304 554.5 -304 609.865 -304 c 128,-1,17
 665.231 -304 665.231 -304 740 -268 c 1,0,-1
EndSplineSet
EndChar

StartChar: tilde
Encoding: 587 732 331
Width: 1228
Flags: W
LayerCount: 2
Fore
SplineSet
752 1129 m 0,0,1
 848.667 1129 848.667 1129 890 1253 c 1,2,-1
 931 1239 l 1,3,4
 906 1165 906 1165 855.5 1124 c 128,-1,5
 805 1083 805 1083 745 1083 c 256,6,7
 685 1083 685 1083 607 1146 c 1,8,9
 545.769 1191.92 545.769 1191.92 523.385 1203.46 c 128,-1,10
 501 1215 501 1215 473 1215 c 0,11,12
 388 1215 388 1215 340 1095 c 1,13,14
 320 1103 320 1103 303 1109 c 1,15,16
 365.359 1261 365.359 1261 473 1261 c 0,17,18
 514 1261 514 1261 545.5 1243.5 c 128,-1,19
 577 1226 577 1226 638 1177.5 c 128,-1,20
 699 1129 699 1129 752 1129 c 0,0,1
EndSplineSet
EndChar

StartChar: hungarumlaut
Encoding: 588 733 332
Width: 1228
Flags: W
LayerCount: 2
Fore
SplineSet
432 1069 m 1,0,-1
 600 1264 l 1,1,-1
 687 1264 l 1,2,-1
 463 1069 l 1,3,-1
 432 1069 l 1,0,-1
689 1069 m 1,4,-1
 857 1264 l 1,5,-1
 944 1264 l 1,6,-1
 719 1069 l 1,7,-1
 689 1069 l 1,4,-1
EndSplineSet
EndChar

StartChar: Gamma
Encoding: 589 915 333
Width: 1228
Flags: W
LayerCount: 2
Fore
SplineSet
541 0 m 1,0,-1
 122 0 l 1,1,-1
 122 50 l 1,2,-1
 301 50 l 1,3,-1
 301 1103 l 1,4,-1
 122 1103 l 1,5,-1
 122 1153 l 1,6,-1
 1085 1153 l 1,7,8
 1086.22 1096.78 1086.22 1096.78 1088.11 1018.39 c 2,9,10
 1091 898.5 l 2,11,12
 1092 857 1092 857 1093 812 c 1,13,-1
 1043 812 l 1,14,-1
 1021 1103 l 1,15,-1
 358 1103 l 1,16,-1
 358 50 l 1,17,-1
 541 50 l 1,18,-1
 541 0 l 1,0,-1
EndSplineSet
EndChar

StartChar: Delta
Encoding: 590 916 334
Width: 1228
Flags: W
LayerCount: 2
Fore
SplineSet
231 50 m 1,0,-1
 578 1153 l 1,1,-1
 648 1153 l 1,2,-1
 1001 50 l 1,3,-1
 1092 50 l 1,4,-1
 1092 0 l 1,5,-1
 140 0 l 1,6,-1
 140 50 l 1,7,-1
 231 50 l 1,0,-1
965 50 m 1,8,-1
 615 1105 l 1,9,-1
 612 1105 l 1,10,-1
 262 50 l 1,11,-1
 965 50 l 1,8,-1
EndSplineSet
EndChar

StartChar: Theta
Encoding: 591 920 335
Width: 1228
Flags: W
LayerCount: 2
Fore
SplineSet
879 418 m 1,0,-1
 829 418 l 1,1,-1
 829 562 l 1,2,-1
 398 562 l 1,3,-1
 398 418 l 1,4,-1
 348 418 l 1,5,-1
 348 755 l 1,6,-1
 398 755 l 1,7,-1
 398 612 l 1,8,-1
 829 612 l 1,9,-1
 829 755 l 1,10,-1
 879 755 l 1,11,-1
 879 418 l 1,0,-1
971 114 m 256,12,13
 829.638 -37 829.638 -37 613 -37 c 0,14,15
 457.463 -37 457.463 -37 336.732 44.5 c 0,16,17
 154.981 167.191 154.981 167.191 105.5 413 c 0,18,19
 90 490 90 490 90 574.5 c 0,20,21
 90 838.348 90 838.348 231 1010 c 0,22,23
 277 1066 277 1066 337.5 1107 c 0,24,25
 459.976 1190 459.976 1190 596.988 1190 c 0,26,27
 856.129 1190 856.129 1190 999 1006 c 1,28,29
 1138 829.657 1138 829.657 1138 561.022 c 128,-1,30
 1138 292.386 1138 292.386 971 114 c 256,12,13
613 14 m 1,31,32
 752 14 752 14 860.5 95 c 128,-1,33
 969 176 969 176 1022 304 c 1,34,35
 1077 432 1077 432 1077 560 c 128,-1,36
 1077 688 1077 688 1044.5 789.5 c 128,-1,37
 1012 891 1012 891 951.5 968.5 c 0,38,39
 818.4 1139 818.4 1139 613 1139 c 0,40,41
 480 1139 480 1139 369 1060 c 0,42,43
 265.494 985.246 265.494 985.246 208.247 856.623 c 128,-1,44
 151 728 151 728 150 596 c 128,-1,45
 149 464 149 464 183 361 c 128,-1,46
 217 258 217 258 278.5 180 c 0,47,48
 412.485 10.0683 412.485 10.0683 613 14 c 1,31,32
EndSplineSet
EndChar

StartChar: Sigma
Encoding: 592 931 336
Width: 1228
Flags: W
LayerCount: 2
Fore
SplineSet
930 50 m 1,0,-1
 942 343 l 1,1,-1
 991 343 l 1,2,-1
 991 0 l 1,3,-1
 176 0 l 1,4,-1
 176 51 l 1,5,-1
 587 612 l 1,6,7
 479 742.979 479 742.979 176 1104 c 1,8,-1
 176 1153 l 1,9,-1
 981 1153 l 1,10,-1
 981 812 l 1,11,-1
 930 812 l 1,12,-1
 910 1103 l 1,13,-1
 248 1103 l 1,14,15
 381.401 940.599 381.401 940.599 654 610 c 1,16,-1
 238 50 l 1,17,-1
 930 50 l 1,0,-1
EndSplineSet
EndChar

StartChar: Phi
Encoding: 593 934 337
Width: 1228
Flags: W
LayerCount: 2
Fore
SplineSet
822 0 m 1,0,-1
 404 0 l 1,1,-1
 404 50 l 1,2,-1
 583 50 l 1,3,-1
 583 189 l 1,4,5
 257.942 198.341 257.942 198.341 150 367 c 0,6,7
 90 459.727 90 459.727 90 575 c 0,8,9
 90 730.704 90 730.704 196.5 833.5 c 0,10,11
 324.937 957.47 324.937 957.47 583 963 c 1,12,-1
 583 1103 l 1,13,-1
 404 1103 l 1,14,-1
 404 1153 l 1,15,-1
 822 1153 l 1,16,-1
 822 1103 l 1,17,-1
 640 1103 l 1,18,-1
 640 963 l 1,19,20
 877.479 959.075 877.479 959.075 993 873 c 1,21,22
 1040.78 839.919 1040.78 839.919 1076.89 785.959 c 0,23,24
 1138 694.64 1138 694.64 1138 578 c 1,25,26
 1141.34 451.207 1141.34 451.207 1062.5 348 c 0,27,28
 1035 312 1035 312 989.5 277.5 c 128,-1,29
 944 243 944 243 853 217 c 128,-1,30
 762 191 762 191 640 189 c 1,31,-1
 640 50 l 1,32,-1
 822 50 l 1,33,-1
 822 0 l 1,0,-1
673 238 m 2,34,35
 783.231 238 783.231 238 841.115 259.5 c 128,-1,36
 899 281 899 281 940 308 c 1,37,38
 1069.45 384.793 1069.45 384.793 1075 579 c 1,39,40
 1075 911 1075 911 640 919 c 1,41,-1
 640 238 l 1,42,-1
 673 238 l 2,34,35
543 239 m 1,43,-1
 572.5 238 l 1,44,-1
 583 238 l 1,45,-1
 583 919 l 1,46,47
 153 911.074 153 911.074 153 580 c 0,48,49
 153 390.296 153 390.296 284.5 307.5 c 0,50,51
 325 282 325 282 351 272.5 c 0,52,53
 419.767 247.373 419.767 247.373 455.884 244.187 c 128,-1,54
 492 241 492 241 500.5 240 c 128,-1,55
 509 239 509 239 519.5 239 c 2,56,-1
 543 239 l 1,43,-1
EndSplineSet
EndChar

StartChar: Omega
Encoding: 594 937 338
Width: 1228
Flags: W
LayerCount: 2
Fore
SplineSet
945 1013 m 1,0,1
 800.41 1139 800.41 1139 613 1139 c 256,2,3
 432.283 1139 432.283 1139 282 1012 c 1,4,5
 168.772 914.947 168.772 914.947 134.5 757 c 0,6,7
 123 704 123 704 123 638.5 c 0,8,9
 123 504.231 123 504.231 183 405 c 1,10,11
 257.797 288.649 257.797 288.649 396 236 c 1,12,13
 454.333 212.667 454.333 212.667 467.167 210.833 c 128,-1,14
 480 209 480 209 488 207 c 1,15,-1
 488 0 l 1,16,-1
 67 0 l 1,17,-1
 67 170 l 1,18,-1
 117 170 l 1,19,-1
 117 50 l 1,20,-1
 438 50 l 1,21,-1
 438 175 l 1,22,23
 356.171 197.317 356.171 197.317 320.085 214.159 c 0,24,25
 174.763 281.982 174.763 281.982 102 449 c 0,26,27
 59 550 59 550 59 642.5 c 0,28,29
 59 804.143 59 804.143 133 931 c 1,30,31
 213.242 1057.7 213.242 1057.7 338.621 1123.85 c 128,-1,32
 464 1190 464 1190 595 1191 c 128,-1,33
 726 1192 726 1192 827.5 1151.5 c 128,-1,34
 929 1111 929 1111 1005 1038.5 c 0,35,36
 1170.97 880.176 1170.97 880.176 1167 658 c 1,37,38
 1167 543 1167 543 1123.5 443.5 c 0,39,40
 1040.02 252.552 1040.02 252.552 867 197.5 c 0,41,42
 834 187 834 187 790 175 c 1,43,-1
 790 50 l 1,44,-1
 1111 50 l 1,45,-1
 1111 170 l 1,46,-1
 1161 170 l 1,47,-1
 1161 0 l 1,48,-1
 740 0 l 1,49,-1
 740 208 l 1,50,51
 748 210 748 210 755 211.5 c 128,-1,52
 762 213 762 213 772 216 c 0,53,54
 888.273 250.882 888.273 250.882 979 328 c 1,55,56
 1055.83 397.145 1055.83 397.145 1087 511 c 1,57,58
 1105 568.6 1105 568.6 1105 636.3 c 128,-1,59
 1105 704 1105 704 1093.5 757 c 128,-1,60
 1082 810 1082 810 1060.5 857 c 0,61,62
 1016.95 952.212 1016.95 952.212 944 1013 c 1,63,-1
 945 1013 l 1,0,1
EndSplineSet
EndChar

StartChar: alpha
Encoding: 595 945 339
Width: 1228
Flags: W
LayerCount: 2
Fore
SplineSet
942 377 m 1,0,1
 976.213 266.464 976.213 266.464 1013 51 c 1,2,-1
 1153 51 l 1,3,-1
 1153 0 l 1,4,-1
 963 0 l 1,5,6
 939.5 141 939.5 141 902 306 c 1,7,8
 790.246 141.163 790.246 141.163 729.623 84.5815 c 0,9,10
 601.761 -34.7564 601.761 -34.7564 463 -33 c 1,11,12
 353 -33 353 -33 267 34 c 1,13,14
 181.836 94.5612 181.836 94.5612 128 213 c 1,15,16
 79 330.174 79 330.174 79 452 c 0,17,18
 79 655 79 655 191 790.5 c 128,-1,19
 303 926 303 926 472 926 c 0,20,21
 617.071 926 617.071 926 721 829 c 1,22,23
 765.477 790.324 765.477 790.324 805.239 731.662 c 0,24,25
 870.175 635.858 870.175 635.858 920 466 c 1,26,27
 1041.69 698.149 1041.69 698.149 1102 920 c 1,28,-1
 1157 920 l 1,29,30
 1096.05 647.628 1096.05 647.628 942 377 c 1,0,1
476 23 m 0,31,32
 667.034 23 667.034 23 847 330 c 0,33,34
 865 359 865 359 880 386 c 1,35,36
 852.055 557.166 852.055 557.166 750 701.5 c 0,37,38
 630.859 870 630.859 870 482.929 870 c 128,-1,39
 335 870 335 870 239.5 750.5 c 128,-1,40
 144 631 144 631 144 451.5 c 128,-1,41
 144 272 144 272 240 147.5 c 128,-1,42
 336 23 336 23 476 23 c 0,31,32
EndSplineSet
EndChar

StartChar: delta
Encoding: 596 948 340
Width: 1228
Flags: W
LayerCount: 2
Fore
SplineSet
807 792 m 1,0,1
 783 808 783 808 748 833.5 c 128,-1,2
 713 859 713 859 672 888 c 128,-1,3
 631 917 631 917 587.5 948.5 c 128,-1,4
 544 980 544 980 503 1009.5 c 0,5,6
 407.333 1078.33 407.333 1078.33 380.667 1097.67 c 128,-1,7
 354 1117 354 1117 343 1125.5 c 128,-1,8
 332 1134 332 1134 322 1142.5 c 0,9,10
 302.392 1159.17 302.392 1159.17 277 1190 c 1,11,-1
 277 1282 l 1,12,-1
 957 1282 l 1,13,-1
 957 1230 l 1,14,-1
 340 1230 l 1,15,-1
 340 1189 l 1,16,-1
 816 832 l 2,17,18
 914.637 758.655 914.637 758.655 961.318 705.327 c 0,19,20
 1064 588.028 1064 588.028 1064 411 c 0,21,22
 1064 231.598 1064 231.598 951 107.5 c 0,23,24
 826.707 -29 826.707 -29 614 -29 c 0,25,26
 404.777 -29 404.777 -29 279 104.5 c 0,27,28
 163 227.623 163 227.623 163 411 c 256,29,30
 163 594.342 163 594.342 279 719.5 c 0,31,32
 403.659 854 403.659 854 614 854 c 1,33,34
 698.354 851.04 698.354 851.04 771 831 c 1,35,-1
 807 792 l 1,0,1
874 120 m 1,36,37
 998 234 998 234 998 410 c 0,38,39
 998 566.365 998 566.365 901 676.5 c 0,40,41
 794.872 797 794.872 797 614 797 c 0,42,43
 435.566 797 435.566 797 328.5 680 c 0,44,45
 230 572.361 230 572.361 230 411 c 0,46,47
 230 252.052 230 252.052 327.5 144.5 c 0,48,49
 434.925 26 434.925 26 605.113 26 c 128,-1,50
 775.3 26 775.3 26 874 120 c 1,36,37
EndSplineSet
EndChar

StartChar: epsilon
Encoding: 597 949 341
Width: 1228
Flags: W
LayerCount: 2
Fore
SplineSet
616 23 m 128,-1,1
 765.938 23 765.938 23 900 89 c 1,2,-1
 914 35 l 1,3,4
 905 30 905 30 896.5 27.5 c 128,-1,5
 888 25 888 25 874.5 18.5 c 128,-1,6
 861 12 861 12 845.5 7.5 c 128,-1,7
 830 3 830 3 817.5 -1 c 0,8,9
 780 -13 780 -13 726 -23 c 128,-1,10
 672 -33 672 -33 600 -33 c 0,11,12
 441.743 -33 441.743 -33 343 39 c 1,13,14
 252 109.778 252 109.778 252 206.889 c 0,15,16
 252 392.591 252 392.591 487 446 c 0,17,18
 531 456 531 456 585 460 c 1,19,-1
 585 465 l 1,20,21
 423.909 490.57 423.909 490.57 366.5 544.5 c 0,22,23
 293 613.545 293 613.545 293 702.773 c 128,-1,24
 293 792 293 792 376.5 858 c 128,-1,25
 460 924 460 924 597 924 c 0,26,27
 758.5 924 758.5 924 861 842 c 1,28,29
 875 828 875 828 886.5 828 c 128,-1,30
 898 828 898 828 905.5 832 c 128,-1,31
 913 836 913 836 918.5 848 c 0,32,33
 929.779 872.609 929.779 872.609 939 939 c 1,34,-1
 977 939 l 1,35,36
 968 834.6 968 834.6 968 764.4 c 128,-1,37
 968 694.2 968 694.2 976 643 c 1,38,-1
 925 635 l 1,39,40
 918.9 671.6 918.9 671.6 907.45 704.8 c 0,41,42
 889.156 757.844 889.156 757.844 849.578 796.422 c 0,43,44
 774.093 870 774.093 870 603 870 c 0,45,46
 424.5 870 424.5 870 374.5 770 c 0,47,48
 359 739 359 739 359 702 c 0,49,50
 359 602 359 602 469 537 c 1,51,52
 540.876 495.928 540.876 495.928 695 490 c 1,53,-1
 695 436 l 1,54,55
 517.913 436 517.913 436 432 384 c 1,56,57
 390 360 390 360 361.5 328.5 c 0,58,59
 318 280.421 318 280.421 318 212.211 c 128,-1,60
 318 144 318 144 392 83.5 c 128,-1,0
 466 23 466 23 616 23 c 128,-1,1
EndSplineSet
EndChar

StartChar: mu
Encoding: 598 956 342
Width: 1228
Flags: W
LayerCount: 2
Fore
SplineSet
1157 0 m 1,0,-1
 923 0 l 1,1,-1
 923 221 l 1,2,-1
 930 215 l 1,3,4
 882.748 72.8415 882.748 72.8415 752.5 26 c 0,5,6
 663.492 -6.00997 663.492 -6.00997 582 -2 c 4,7,8
 473.258 1.83454 473.258 1.83454 399.5 59.5 c 1,9,10
 334.901 106 334.901 106 302 172 c 1,11,-1
 302 -305 l 1,12,-1
 247 -305 l 1,13,-1
 247 841 l 1,14,-1
 69 841 l 1,15,-1
 69 881 l 1,16,-1
 304 881 l 1,17,-1
 304 397 l 2,18,19
 304 286 304 286 312 249 c 0,20,21
 341.336 113.322 341.336 113.322 467.5 56.5 c 0,22,23
 533 27 533 27 584 27 c 0,24,25
 762.333 27 762.333 27 854 137 c 1,26,27
 892 190 892 190 907 246 c 1,28,29
 920 302 920 302 920 397 c 2,30,-1
 920 841 l 1,31,-1
 743 841 l 1,32,-1
 743 881 l 1,33,-1
 978 881 l 1,34,-1
 978 38 l 1,35,-1
 1157 38 l 1,36,-1
 1157 0 l 1,0,-1
EndSplineSet
EndChar

StartChar: pi
Encoding: 599 960 343
Width: 1228
Flags: W
LayerCount: 2
Fore
SplineSet
1137 0 m 1,0,-1
 744 0 l 1,1,-1
 744 51 l 1,2,-1
 908 51 l 1,3,-1
 908 829 l 1,4,-1
 330 829 l 1,5,-1
 330 51 l 1,6,-1
 485 51 l 1,7,-1
 485 0 l 1,8,-1
 94 0 l 1,9,-1
 94 51 l 1,10,-1
 272 51 l 1,11,-1
 272 829 l 1,12,-1
 94 829 l 1,13,-1
 94 881 l 1,14,-1
 1137 881 l 1,15,-1
 1137 829 l 1,16,-1
 967 829 l 1,17,-1
 967 51 l 1,18,-1
 1137 51 l 1,19,-1
 1137 0 l 1,0,-1
EndSplineSet
EndChar

StartChar: sigma
Encoding: 600 963 344
Width: 1228
Flags: W
LayerCount: 2
Fore
SplineSet
1221 844 m 1,0,-1
 843 874 l 1,1,-1
 769 877 l 1,2,3
 1006.05 777.497 1006.05 777.497 1069.5 566 c 0,4,5
 1089 501 1089 501 1089 434 c 0,6,7
 1089 315 1089 315 1029 208.5 c 128,-1,8
 969 102 969 102 859.5 34.5 c 128,-1,9
 750 -33 750 -33 614.5 -33 c 128,-1,10
 479 -33 479 -33 367 38 c 128,-1,11
 255 109 255 109 197 218 c 256,12,13
 139 327 139 327 139 449 c 0,14,15
 139 564.148 139 564.148 195 672 c 1,16,17
 318.097 888.481 318.097 888.481 566 914 c 0,18,19
 600 918 600 918 627.5 919.5 c 128,-1,20
 655 921 655 921 674 922 c 0,21,22
 712 924 712 924 779 924 c 2,23,-1
 1221 924 l 1,24,-1
 1221 844 l 1,0,-1
324 147 m 1,25,26
 444 25 444 25 612 25 c 128,-1,27
 780 25 780 25 903 146 c 1,28,29
 1023 269 1023 269 1023 442 c 0,30,31
 1023 618 1023 618 903 744 c 1,32,33
 782 866 782 866 610.5 866 c 128,-1,34
 439 866 439 866 322.5 742.5 c 128,-1,35
 206 619 206 619 206 445 c 128,-1,36
 206 271 206 271 324 147 c 1,25,26
EndSplineSet
EndChar

StartChar: tau
Encoding: 601 964 345
Width: 1228
Flags: W
LayerCount: 2
Fore
SplineSet
628 58.5 m 128,-1,1
 650 32 650 32 717.333 32 c 128,-1,2
 784.667 32 784.667 32 880 84 c 1,3,-1
 894 32 l 1,4,5
 879 24 879 24 866 17.5 c 2,6,-1
 843 6 l 2,7,8
 832 1 832 1 817.5 -2.5 c 128,-1,9
 803 -6 803 -6 784 -10.5 c 0,10,11
 748.111 -19 748.111 -19 698 -19 c 0,12,13
 548 -19 548 -19 548 122 c 2,14,-1
 548 829 l 1,15,-1
 388 829 l 2,16,17
 292 829 292 829 204 815 c 1,18,-1
 204 867 l 1,19,20
 272.25 881 272.25 881 367 881 c 2,21,-1
 937 881 l 1,22,-1
 937 829 l 1,23,-1
 606 829 l 1,24,-1
 606 140 l 2,25,0
 606 85 606 85 628 58.5 c 128,-1,1
EndSplineSet
EndChar

StartChar: phi
Encoding: 602 966 346
Width: 1228
Flags: W
LayerCount: 2
Fore
SplineSet
1126 446 m 0,0,1
 1126 253.391 1126 253.391 993 110 c 1,2,-1
 994 110 l 1,3,4
 931 43 931 43 825.5 4 c 128,-1,5
 720 -35 720 -35 584 -32 c 1,6,-1
 584 -319 l 1,7,-1
 527 -319 l 1,8,-1
 527 -24 l 1,9,10
 290.121 14.3187 290.121 14.3187 177 184 c 1,11,12
 108.191 295.404 108.191 295.404 102 444 c 1,13,14
 102 602.333 102 602.333 191 721 c 1,15,16
 263.204 828.141 263.204 828.141 406 879 c 1,17,-1
 406 828 l 1,18,19
 335.083 794.083 335.083 794.083 307.042 766.042 c 128,-1,20
 279 738 279 738 248 697 c 128,-1,21
 217 656 217 656 192.5 582 c 128,-1,22
 168 508 168 508 168 466.5 c 128,-1,23
 168 425 168 425 170.5 402.5 c 128,-1,24
 173 380 173 380 179 353.5 c 0,25,26
 213.308 201.974 213.308 201.974 328.5 117.5 c 0,27,28
 412.126 56.1744 412.126 56.1744 527 27 c 1,29,-1
 527 583.5 l 2,30,31
 527 592 527 592 528 603 c 2,32,-1
 529 624 l 1,33,34
 531 644 531 644 532 658.5 c 128,-1,35
 533 673 533 673 535.5 684.5 c 128,-1,36
 538 696 538 696 540.5 710.5 c 128,-1,37
 543 725 543 725 547 742 c 0,38,39
 551.865 762.676 551.865 762.676 567 799 c 1,40,41
 604.563 861.606 604.563 861.606 630.782 877.303 c 0,42,43
 690.405 913 690.405 913 773.703 913 c 128,-1,44
 857 913 857 913 938 848 c 1,45,46
 1025 783 1025 783 1075.5 675 c 128,-1,47
 1126 567 1126 567 1126 446 c 0,0,1
584 19 m 1,48,49
 698 19 698 19 786 50 c 128,-1,50
 874 81 874 81 910 116 c 0,51,52
 967.897 172.289 967.897 172.289 1001.45 233.644 c 0,53,54
 1060 340.717 1060 340.717 1060.5 434.859 c 128,-1,55
 1061 529 1061 529 1037 603.5 c 128,-1,56
 1013 678 1013 678 971 736 c 0,57,58
 876.889 865.962 876.889 865.962 760 862 c 1,59,60
 655.847 862 655.847 862 617.5 771.5 c 0,61,62
 588.033 701.958 588.033 701.958 584 585 c 1,63,-1
 584 19 l 1,48,49
EndSplineSet
EndChar

StartChar: endash
Encoding: 611 8211 355
Width: 1228
Flags: W
LayerCount: 2
Fore
SplineSet
1049 568 m 1,0,-1
 181 568 l 1,1,-1
 181 636 l 1,2,-1
 1049 636 l 1,3,-1
 1049 568 l 1,0,-1
EndSplineSet
EndChar

StartChar: emdash
Encoding: 612 8212 356
Width: 1228
Flags: W
LayerCount: 2
Fore
SplineSet
1325 568 m 1,0,-1
 -96 568 l 1,1,-1
 -96 636 l 1,2,-1
 1325 636 l 1,3,-1
 1325 568 l 1,0,-1
EndSplineSet
EndChar

StartChar: underscoredbl
Encoding: 613 8215 357
Width: 1228
Flags: W
LayerCount: 2
Fore
SplineSet
1360 -488 m 1,0,-1
 -96 -488 l 1,1,-1
 -96 -429 l 1,2,-1
 1360 -429 l 1,3,-1
 1360 -488 l 1,0,-1
1360 -271 m 1,4,-1
 -96 -271 l 1,5,-1
 -96 -214 l 1,6,-1
 1360 -214 l 1,7,-1
 1360 -271 l 1,4,-1
EndSplineSet
EndChar

StartChar: quoteleft
Encoding: 614 8216 358
Width: 1228
Flags: W
LayerCount: 2
Fore
SplineSet
404 666 m 1,0,-1
 617 1142 l 1,1,-1
 718 1142 l 1,2,-1
 570 666 l 1,3,-1
 404 666 l 1,0,-1
EndSplineSet
EndChar

StartChar: quoteright
Encoding: 615 8217 359
Width: 1228
Flags: W
LayerCount: 2
Fore
SplineSet
402 668 m 1,0,-1
 550 1144 l 1,1,-1
 718 1144 l 1,2,-1
 505 668 l 1,3,-1
 402 668 l 1,0,-1
EndSplineSet
EndChar

StartChar: quotesinglbase
Encoding: 616 8218 360
Width: 1228
Flags: W
LayerCount: 2
Fore
SplineSet
382 -223 m 1,0,-1
 530 250 l 1,1,-1
 698 250 l 1,2,-1
 485 -223 l 1,3,-1
 382 -223 l 1,0,-1
EndSplineSet
EndChar

StartChar: quotedblleft
Encoding: 617 8220 361
Width: 1228
Flags: W
LayerCount: 2
Fore
SplineSet
702 667 m 1,0,-1
 914 1143 l 1,1,-1
 1015 1143 l 1,2,-1
 867 667 l 1,3,-1
 702 667 l 1,0,-1
352 667 m 1,4,-1
 566 1143 l 1,5,-1
 667 1143 l 1,6,-1
 516 667 l 1,7,-1
 352 667 l 1,4,-1
EndSplineSet
EndChar

StartChar: quotedblright
Encoding: 618 8221 362
Width: 1228
Flags: W
LayerCount: 2
Fore
SplineSet
211 666 m 1,0,-1
 359 1142 l 1,1,-1
 527 1142 l 1,2,-1
 314 666 l 1,3,-1
 211 666 l 1,0,-1
563 666 m 1,4,5
 633 890 633 890 713 1142 c 1,6,-1
 878 1142 l 1,7,-1
 665 666 l 1,8,-1
 563 666 l 1,4,5
EndSplineSet
EndChar

StartChar: quotedblbase
Encoding: 619 8222 363
Width: 1228
Flags: W
LayerCount: 2
Fore
SplineSet
208 -223 m 1,0,-1
 356 250 l 1,1,-1
 524 250 l 1,2,-1
 311 -223 l 1,3,-1
 208 -223 l 1,0,-1
560 -223 m 1,4,-1
 710 250 l 1,5,-1
 875 250 l 1,6,-1
 662 -223 l 1,7,-1
 560 -223 l 1,4,-1
EndSplineSet
EndChar

StartChar: dagger
Encoding: 620 8224 364
Width: 1228
Flags: W
LayerCount: 2
Fore
SplineSet
651 -104 m 1,0,-1
 582 -104 l 1,1,-1
 582 814 l 1,2,-1
 340 814 l 1,3,-1
 340 869 l 1,4,-1
 582 869 l 1,5,-1
 582 1169 l 1,6,-1
 651 1169 l 1,7,-1
 651 869 l 1,8,-1
 891 869 l 1,9,-1
 891 814 l 1,10,-1
 651 814 l 1,11,-1
 651 -104 l 1,0,-1
EndSplineSet
EndChar

StartChar: daggerdbl
Encoding: 621 8225 365
Width: 1228
Flags: W
LayerCount: 2
Fore
SplineSet
649 -104 m 1,0,-1
 584 -104 l 1,1,-1
 584 366 l 1,2,-1
 346 366 l 1,3,-1
 346 417 l 1,4,-1
 584 417 l 1,5,-1
 584 814 l 1,6,-1
 346 814 l 1,7,-1
 346 865 l 1,8,-1
 584 865 l 1,9,-1
 584 1169 l 1,10,-1
 649 1169 l 1,11,-1
 649 865 l 1,12,-1
 886 865 l 1,13,-1
 886 814 l 1,14,-1
 649 814 l 1,15,-1
 649 417 l 1,16,-1
 886 417 l 1,17,-1
 886 366 l 1,18,-1
 649 366 l 1,19,-1
 649 -104 l 1,0,-1
EndSplineSet
EndChar

StartChar: bullet
Encoding: 622 8226 366
Width: 1228
Flags: W
LayerCount: 2
Fore
SplineSet
750 713 m 256,0,1
 806 657 806 657 806 578.5 c 128,-1,2
 806 500 806 500 749.5 443.5 c 128,-1,3
 693 387 693 387 614.5 387 c 128,-1,4
 536 387 536 387 479 444 c 1,5,6
 424 501.037 424 501.037 424 579.519 c 128,-1,7
 424 658 424 658 479.5 713.5 c 128,-1,8
 535 769 535 769 614.5 769 c 128,-1,9
 694 769 694 769 750 713 c 256,0,1
EndSplineSet
EndChar

StartChar: ellipsis
Encoding: 623 8230 367
Width: 1228
Flags: W
LayerCount: 2
Fore
SplineSet
99 170 m 1,0,1
 141.55 207 141.55 207 198.775 207 c 128,-1,2
 256 207 256 207 298 172 c 128,-1,3
 340 137 340 137 340 84.5 c 128,-1,4
 340 32 340 32 297 -2.5 c 128,-1,5
 254 -37 254 -37 199.5 -37 c 128,-1,6
 145 -37 145 -37 101 -3.5 c 128,-1,7
 57 30 57 30 57 83.5 c 128,-1,8
 57 137 57 137 99 170 c 1,0,1
532 170 m 1,9,10
 574.55 207 574.55 207 631.775 207 c 128,-1,11
 689 207 689 207 731 172 c 128,-1,12
 773 137 773 137 773 84.5 c 128,-1,13
 773 32 773 32 730 -2.5 c 128,-1,14
 687 -37 687 -37 632.5 -37 c 128,-1,15
 578 -37 578 -37 534 -3.5 c 128,-1,16
 490 30 490 30 490 83.5 c 128,-1,17
 490 137 490 137 532 170 c 1,9,10
966 170 m 1,18,19
 1008.55 207 1008.55 207 1065.78 207 c 128,-1,20
 1123 207 1123 207 1165 172 c 128,-1,21
 1207 137 1207 137 1207 84.5 c 128,-1,22
 1207 32 1207 32 1164 -2.5 c 128,-1,23
 1121 -37 1121 -37 1066.5 -37 c 128,-1,24
 1012 -37 1012 -37 968 -3.5 c 128,-1,25
 924 30 924 30 924 83.5 c 128,-1,26
 924 137 924 137 966 170 c 1,18,19
EndSplineSet
EndChar

StartChar: perthousand
Encoding: 624 8240 368
Width: 1228
Flags: W
LayerCount: 2
Fore
SplineSet
438.5 497 m 128,-1,1
 537 497 537 497 599 418 c 128,-1,2
 661 339 661 339 661 233.5 c 128,-1,3
 661 128 661 128 598.5 48.5 c 128,-1,4
 536 -31 536 -31 438.5 -31 c 128,-1,5
 341 -31 341 -31 279.5 49 c 128,-1,6
 218 129 218 129 218 233 c 0,7,8
 218 337.323 218 337.323 279 417.161 c 128,-1,0
 340 497 340 497 438.5 497 c 128,-1,1
440 446 m 128,-1,10
 368 446 368 446 325.5 381.5 c 128,-1,11
 283 317 283 317 283 233.5 c 128,-1,12
 283 150 283 150 325.5 85.5 c 128,-1,13
 368 21 368 21 440 21 c 128,-1,14
 512 21 512 21 554 90 c 1,15,16
 594 150.952 594 150.952 594 212.976 c 0,17,18
 594 317.048 594 317.048 553 381.524 c 128,-1,9
 512 446 512 446 440 446 c 128,-1,10
411 1169 m 256,19,20
 473 1091 473 1091 473 984.5 c 128,-1,21
 473 878 473 878 411 800 c 128,-1,22
 349 722 349 722 252 722 c 1,23,24
 153.913 720.077 153.913 720.077 87.5 804.5 c 0,25,26
 25.7448 883.002 25.7448 883.002 30 983 c 1,27,28
 30 1089 30 1089 92 1168 c 128,-1,29
 154 1247 154 1247 251.5 1247 c 128,-1,30
 349 1247 349 1247 411 1169 c 256,19,20
252 773 m 256,31,32
 323 773 323 773 367 839 c 0,33,34
 407 899.952 407 899.952 407 984 c 256,35,36
 407 1068.95 407 1068.95 365 1132.48 c 128,-1,37
 323 1196 323 1196 251 1196 c 128,-1,38
 179 1196 179 1196 137.5 1130 c 128,-1,39
 96 1064 96 1064 96 982.5 c 128,-1,40
 96 901 96 901 138.5 837 c 128,-1,41
 181 773 181 773 252 773 c 256,31,32
773.105 123.78 m 0,42,43
 754.211 167.559 754.211 167.559 754.105 232.28 c 0,44,45
 753.867 378.697 753.867 378.697 857 457 c 1,46,47
 907 497 907 497 990 497 c 128,-1,48
 1073 497 1073 497 1135 418 c 128,-1,49
 1197 339 1197 339 1197 233.5 c 128,-1,50
 1197 128 1197 128 1134.5 48.5 c 128,-1,51
 1072 -31 1072 -31 976 -31 c 0,52,53
 839.906 -31 839.906 -31 773.105 123.78 c 0,42,43
977 21 m 128,-1,55
 1049 21 1049 21 1090 86 c 128,-1,56
 1131 151 1131 151 1131 233.5 c 128,-1,57
 1131 316 1131 316 1089 381 c 128,-1,58
 1047 446 1047 446 975 446 c 128,-1,59
 903 446 903 446 861.5 379.158 c 128,-1,60
 820 312.316 820 312.316 820 231.658 c 128,-1,61
 820 151 820 151 862.5 86 c 128,-1,54
 905 21 905 21 977 21 c 128,-1,55
47 509 m 1,62,63
 560 737 560 737 881 878 c 1,64,-1
 903 838 l 1,65,66
 795 790 795 790 691.5 744.5 c 128,-1,67
 588 699 588 699 485 653.5 c 128,-1,68
 382 608 382 608 279 562.5 c 128,-1,69
 176 517 176 517 69 469 c 1,70,71
 57 493 57 493 47 509 c 1,62,63
EndSplineSet
EndChar

StartChar: guilsinglleft
Encoding: 625 8249 369
Width: 1228
Flags: W
LayerCount: 2
Fore
SplineSet
431 466 m 1,0,-1
 850 104 l 1,1,-1
 816 67 l 1,2,3
 736 136.333 736 136.333 631.5 226.167 c 128,-1,4
 527 316 527 316 469.5 365.5 c 128,-1,5
 412 415 412 415 352 466 c 1,6,-1
 816 870 l 1,7,-1
 855 830 l 1,8,-1
 431 466 l 1,0,-1
EndSplineSet
EndChar

StartChar: guilsinglright
Encoding: 626 8250 370
Width: 1228
Flags: W
LayerCount: 2
Fore
SplineSet
381 830 m 1,0,-1
 416 871 l 1,1,-1
 883 466 l 1,2,3
 709 315.2 709 315.2 417 67 c 1,4,5
 410.231 75.6154 410.231 75.6154 385 104 c 1,6,-1
 803 466 l 1,7,8
 598.705 644 598.705 644 381 830 c 1,0,-1
EndSplineSet
EndChar

StartChar: exclamdbl
Encoding: 627 8252 371
Width: 1228
Flags: W
LayerCount: 2
Fore
SplineSet
350 401 m 1,0,-1
 313 1169 l 1,1,-1
 440 1169 l 1,2,-1
 402 401 l 1,3,-1
 350 401 l 1,0,-1
287 -5 m 1,4,5
 252 27 252 27 252 71.5 c 128,-1,6
 252 116 252 116 286.5 147.5 c 128,-1,7
 321 179 321 179 375.5 179 c 128,-1,8
 430 179 430 179 465 147 c 128,-1,9
 500 115 500 115 500 71 c 128,-1,10
 500 27 500 27 473 3.5 c 0,11,12
 426.468 -37 426.468 -37 375.234 -37 c 128,-1,13
 324 -37 324 -37 287 -5 c 1,4,5
830 401 m 1,14,-1
 793 1169 l 1,15,-1
 920 1169 l 1,16,-1
 882 401 l 1,17,-1
 830 401 l 1,14,-1
767 -5 m 1,18,19
 732 27 732 27 732 71.5 c 128,-1,20
 732 116 732 116 766.5 147.5 c 128,-1,21
 801 179 801 179 855.5 179 c 128,-1,22
 910 179 910 179 945 147 c 128,-1,23
 980 115 980 115 980 71 c 128,-1,24
 980 27 980 27 953 3.5 c 0,25,26
 906.468 -37 906.468 -37 855.234 -37 c 128,-1,27
 804 -37 804 -37 767 -5 c 1,18,19
EndSplineSet
EndChar

StartChar: overline
Encoding: 628 8254 372
Width: 1228
Flags: W
LayerCount: 2
Fore
SplineSet
1135 1531 m 1,0,-1
 95 1531 l 1,1,-1
 95 1588 l 1,2,-1
 1135 1588 l 1,3,-1
 1135 1531 l 1,0,-1
EndSplineSet
EndChar

StartChar: fraction
Encoding: 629 8260 373
Width: 1228
Flags: W
LayerCount: 2
Fore
SplineSet
115 -30 m 1,0,-1
 1069 1293 l 1,1,-1
 1115 1260 l 1,2,-1
 158 -65 l 1,3,-1
 115 -30 l 1,0,-1
EndSplineSet
EndChar

StartChar: zerosuperior
Encoding: 630 8304 374
Width: 1228
Flags: W
LayerCount: 2
Fore
SplineSet
781 588 m 1,0,1
 722 495 722 495 613 495 c 128,-1,2
 504 495 504 495 445 591 c 128,-1,3
 386 687 386 687 386 879.5 c 128,-1,4
 386 1072 386 1072 444 1171 c 128,-1,5
 502 1270 502 1270 614 1270 c 256,6,7
 726 1270 726 1270 784 1171 c 128,-1,8
 842 1072 842 1072 842 881 c 256,9,10
 842 690 842 690 781 588 c 1,0,1
431 883 m 0,11,12
 431 526 431 526 614.5 526 c 128,-1,13
 798 526 798 526 798 882 c 128,-1,14
 798 1238 798 1238 614 1238 c 0,15,16
 567 1238 567 1238 528.5 1208 c 128,-1,17
 490 1178 490 1178 471 1132.5 c 0,18,19
 431 1036.71 431 1036.71 431 883 c 0,11,12
EndSplineSet
EndChar

StartChar: foursuperior
Encoding: 631 8308 375
Width: 1228
Flags: W
LayerCount: 2
Fore
SplineSet
347 732 m 1,0,-1
 663 1266 l 1,1,-1
 696 1266 l 1,2,-1
 696 728 l 1,3,-1
 811 728 l 1,4,-1
 811 692 l 1,5,-1
 696 692 l 1,6,-1
 696 540 l 1,7,-1
 811 540 l 1,8,-1
 811 508 l 1,9,-1
 492 508 l 1,10,-1
 492 540 l 1,11,-1
 660 540 l 1,12,-1
 660 692 l 1,13,-1
 347 692 l 1,14,-1
 347 732 l 1,0,-1
660 728 m 1,15,-1
 660 1182 l 1,16,-1
 649 1182 l 1,17,-1
 385 728 l 1,18,-1
 660 728 l 1,15,-1
EndSplineSet
EndChar

StartChar: fivesuperior
Encoding: 632 8309 376
Width: 1228
Flags: W
LayerCount: 2
Fore
SplineSet
423 880 m 1,0,1
 409 886 409 886 403 890 c 1,2,-1
 403 1253 l 1,3,-1
 800 1253 l 1,4,-1
 800 1218 l 1,5,-1
 436 1218 l 1,6,-1
 436 932 l 1,7,8
 547 975 547 975 600 975 c 0,9,10
 714 975 714 975 775.5 907 c 128,-1,11
 837 839 837 839 837 733.5 c 128,-1,12
 837 628 837 628 767 562 c 128,-1,13
 697 496 697 496 586 496 c 0,14,15
 518 496 518 496 362 548 c 1,16,-1
 376 580 l 1,17,18
 494 531 494 531 587.5 531 c 128,-1,19
 681 531 681 531 738 585.5 c 128,-1,20
 795 640 795 640 795 732 c 128,-1,21
 795 824 795 824 738.5 881.5 c 128,-1,22
 682 939 682 939 592.727 939 c 128,-1,23
 503.455 939 503.455 939 423 880 c 1,0,1
EndSplineSet
EndChar

StartChar: sixsuperior
Encoding: 633 8310 377
Width: 1228
Flags: W
LayerCount: 2
Fore
SplineSet
835 1239 m 1,0,1
 816 1241 816 1241 807 1241 c 2,2,-1
 781 1241 l 1,3,4
 413.478 1245.22 413.478 1245.22 406 819 c 1,5,-1
 395 803 l 1,6,7
 426.17 878.174 426.17 878.174 495.5 922.5 c 0,8,9
 554.154 960 554.154 960 608.077 960 c 128,-1,10
 662 960 662 960 701 940.5 c 128,-1,11
 740 921 740 921 768 888.5 c 0,12,13
 827 820.018 827 820.018 827 723 c 0,14,15
 827 629.474 827 629.474 765.5 561.5 c 0,16,17
 702.619 492 702.619 492 613 492 c 128,-1,18
 523.195 492 523.195 492 455.5 561.5 c 0,19,20
 368 651.333 368 651.333 368 832 c 0,21,22
 368 1017.55 368 1017.55 457 1141 c 1,23,24
 488 1182 488 1182 537 1215.5 c 128,-1,25
 586 1249 586 1249 635 1259 c 0,26,27
 722.439 1276.84 722.439 1276.84 787 1275 c 1,28,-1
 835 1275 l 1,29,-1
 835 1239 l 1,0,1
452 845 m 1,30,31
 427.623 817.201 427.623 817.201 410 773 c 1,32,33
 417.098 643.468 417.098 643.468 489.5 577 c 0,34,35
 543.964 527 543.964 527 613 527 c 0,36,37
 686.154 527 686.154 527 736 581 c 0,38,39
 787 636.25 787 636.25 787 723 c 0,40,41
 787 805.913 787 805.913 738 864.5 c 0,42,43
 687.4 925 687.4 925 602.557 925 c 128,-1,44
 517.714 925 517.714 925 452 845 c 1,30,31
EndSplineSet
EndChar

StartChar: sevensuperior
Encoding: 634 8311 378
Width: 1228
Flags: W
LayerCount: 2
Fore
SplineSet
620 508 m 1,0,-1
 575 508 l 1,1,-1
 828 1213 l 1,2,-1
 429 1213 l 1,3,-1
 429 1097 l 1,4,-1
 391 1097 l 1,5,-1
 391 1248 l 1,6,-1
 862 1248 l 1,7,-1
 862 1205 l 1,8,-1
 620 508 l 1,0,-1
EndSplineSet
EndChar

StartChar: eightsuperior
Encoding: 635 8312 379
Width: 1228
Flags: W
LayerCount: 2
Fore
SplineSet
835 1076 m 0,0,1
 835 961.976 835 961.976 699 889 c 1,2,3
 786 851 786 851 817.5 797 c 128,-1,4
 849 743 849 743 849 701.5 c 0,5,6
 849 628.143 849 628.143 792 563 c 256,7,8
 729.875 492 729.875 492 614 492 c 256,9,10
 456.538 492 456.538 492 394 627.5 c 0,11,12
 379 660 379 660 379 705.5 c 128,-1,13
 379 751 379 751 412 802 c 1,14,-1
 412 801 l 1,15,16
 449 854 449 854 530 889 c 1,17,18
 474 918 474 918 435 961 c 1,19,-1
 435 960 l 1,20,21
 394 1010.11 394 1010.11 394 1083.56 c 128,-1,22
 394 1157 394 1157 457.5 1215 c 128,-1,23
 521 1273 521 1273 614 1273 c 256,24,25
 707 1273 707 1273 771 1215 c 128,-1,26
 835 1157 835 1157 835 1076 c 0,0,1
739.5 1197.5 m 128,-1,28
 684 1243 684 1243 624.5 1243 c 128,-1,29
 565 1243 565 1243 530.5 1226.5 c 128,-1,30
 496 1210 496 1210 474.5 1184.5 c 0,31,32
 433 1135.28 433 1135.28 433 1087.14 c 128,-1,33
 433 1039 433 1039 445.5 1012 c 128,-1,34
 458 985 458 985 484 958 c 0,35,36
 535 905 535 905 611 905 c 128,-1,37
 687 905 687 905 740 954 c 1,38,39
 795 1003.11 795 1003.11 795 1077.55 c 128,-1,27
 795 1152 795 1152 739.5 1197.5 c 128,-1,28
809 696.052 m 128,-1,41
 809 766 809 766 755 820.5 c 128,-1,42
 701 875 701 875 614 875 c 0,43,44
 519.192 875 519.192 875 469.096 818.5 c 128,-1,45
 419 762 419 762 419 710.5 c 128,-1,46
 419 659 419 659 433 630 c 128,-1,47
 447 601 447 601 476 575 c 0,48,49
 532 523 532 523 614 523 c 256,50,51
 696 523 696 523 752.5 574.552 c 128,-1,40
 809 626.103 809 626.103 809 696.052 c 128,-1,41
EndSplineSet
EndChar

StartChar: ninesuperior
Encoding: 636 8313 380
Width: 1228
Flags: W
LayerCount: 2
Fore
SplineSet
346 492 m 1,0,-1
 346 528 l 1,1,2
 365 526 365 526 374 526 c 2,3,-1
 400 526 l 1,4,5
 767.522 521.776 767.522 521.776 775 948 c 1,6,-1
 786 964 l 1,7,8
 754.83 888.826 754.83 888.826 685.5 844.5 c 0,9,10
 626.846 807 626.846 807 572.923 807 c 128,-1,11
 519 807 519 807 480 826.5 c 128,-1,12
 441 846 441 846 413 878.5 c 0,13,14
 354 946.982 354 946.982 354 1044 c 0,15,16
 354 1137.53 354 1137.53 415.5 1205.5 c 0,17,18
 478.381 1275 478.381 1275 568 1275 c 128,-1,19
 657.805 1275 657.805 1275 725.5 1205.5 c 0,20,21
 813 1115.67 813 1115.67 813 935 c 0,22,23
 813 749.452 813 749.452 724 626 c 1,24,25
 693 585 693 585 644 551.5 c 128,-1,26
 595 518 595 518 546 508 c 0,27,28
 458.561 490.155 458.561 490.155 394 492 c 1,29,-1
 346 492 l 1,0,-1
729 922 m 1,30,31
 753.377 949.799 753.377 949.799 771 994 c 1,32,33
 763.902 1123.53 763.902 1123.53 691.5 1190 c 0,34,35
 637.036 1240 637.036 1240 568 1240 c 0,36,37
 494.846 1240 494.846 1240 445 1186 c 0,38,39
 394 1130.75 394 1130.75 394 1044 c 0,40,41
 394 961.087 394 961.087 443 902.5 c 0,42,43
 493.6 842 493.6 842 578.443 842 c 128,-1,44
 663.286 842 663.286 842 729 922 c 1,30,31
EndSplineSet
EndChar

StartChar: plussuperior
Encoding: 637 8314 381
Width: 1228
Flags: W
LayerCount: 2
Fore
SplineSet
934 861 m 1,0,-1
 644 861 l 1,1,-1
 644 599 l 1,2,-1
 586 599 l 1,3,-1
 586 861 l 1,4,-1
 296 861 l 1,5,-1
 296 904 l 1,6,-1
 586 904 l 1,7,-1
 586 1166 l 1,8,-1
 644 1166 l 1,9,-1
 644 904 l 1,10,-1
 934 904 l 1,11,-1
 934 861 l 1,0,-1
EndSplineSet
EndChar

StartChar: minussuperior
Encoding: 638 8315 382
Width: 1228
Flags: W
LayerCount: 2
Fore
SplineSet
934 863 m 1,0,-1
 296 863 l 1,1,-1
 296 906 l 1,2,-1
 934 906 l 1,3,-1
 934 863 l 1,0,-1
EndSplineSet
EndChar

StartChar: parenleftsuperior
Encoding: 639 8317 383
Width: 1228
Flags: W
LayerCount: 2
Fore
SplineSet
826 1379 m 1,0,1
 673 1118.9 673 1118.9 673 914 c 0,2,3
 673 729.6 673 729.6 790 519 c 1,4,5
 797.304 503.174 797.304 503.174 826 451 c 1,6,-1
 771 451 l 1,7,8
 693.22 561.53 693.22 561.53 647.11 690.265 c 128,-1,9
 601 819 601 819 601 911.5 c 128,-1,10
 601 1004 601 1004 633 1100 c 0,11,12
 685.091 1256.27 685.091 1256.27 771 1379 c 1,13,-1
 826 1379 l 1,0,1
EndSplineSet
EndChar

StartChar: parenrightsuperior
Encoding: 640 8318 384
Width: 1228
Flags: W
LayerCount: 2
Fore
SplineSet
402 451 m 1,0,1
 554 704.333 554 704.333 554 914 c 0,2,3
 554 1059 554 1059 492 1197 c 0,4,5
 464 1257 464 1257 451 1282.5 c 128,-1,6
 438 1308 438 1308 433 1317 c 128,-1,7
 428 1326 428 1326 420 1342.5 c 128,-1,8
 412 1359 412 1359 401 1379 c 1,9,-1
 457 1379 l 1,10,11
 576.84 1207.8 576.84 1207.8 615 1017 c 0,12,13
 626 962 626 962 626 887.5 c 128,-1,14
 626 813 626 813 580.5 686 c 128,-1,15
 535 559 535 559 457 451 c 1,16,-1
 402 451 l 1,0,1
EndSplineSet
EndChar

StartChar: nsuperior
Encoding: 641 8319 385
Width: 1228
Flags: W
LayerCount: 2
Fore
SplineSet
1001 540 m 1,0,-1
 698 540 l 1,1,-1
 698 590 l 1,2,-1
 826 590 l 1,3,-1
 826 931 l 2,4,5
 826 1019 826 1019 784 1069 c 128,-1,6
 742 1119 742 1119 670 1119 c 0,7,8
 561 1119 561 1119 401 995 c 1,9,-1
 401 590 l 1,10,-1
 527 590 l 1,11,-1
 527 540 l 1,12,-1
 225 540 l 1,13,-1
 225 590 l 1,14,-1
 347 590 l 1,15,-1
 347 1101 l 1,16,-1
 225 1101 l 1,17,-1
 225 1152 l 1,18,-1
 401 1152 l 1,19,-1
 401 1049 l 1,20,21
 457.739 1099.87 457.739 1099.87 459.87 1100.43 c 0,22,23
 462.83 1101.22 462.83 1101.22 473.915 1109.11 c 128,-1,24
 485 1117 485 1117 497.5 1123 c 128,-1,25
 510 1129 510 1129 526 1137 c 0,26,27
 597 1174 597 1174 656 1174 c 0,28,29
 762.188 1174 762.188 1174 822 1108 c 1,30,31
 880 1039.26 880 1039.26 880 937 c 2,32,-1
 880 590 l 1,33,-1
 1001 590 l 1,34,-1
 1001 540 l 1,0,-1
EndSplineSet
EndChar

StartChar: franc
Encoding: 642 8355 386
Width: 1228
Flags: W
LayerCount: 2
Fore
SplineSet
1105 1153 m 1,0,-1
 1115 813 l 1,1,-1
 1067 813 l 1,2,-1
 1040 1102 l 1,3,-1
 384 1102 l 1,4,-1
 384 638 l 1,5,-1
 824 638 l 1,6,-1
 824 587 l 1,7,-1
 384 587 l 1,8,-1
 384 51 l 1,9,-1
 665 51 l 1,10,-1
 665 0 l 1,11,-1
 150 0 l 1,12,-1
 150 51 l 1,13,-1
 326 51 l 1,14,-1
 326 1102 l 1,15,-1
 150 1102 l 1,16,-1
 150 1153 l 1,17,-1
 1105 1153 l 1,0,-1
913 323 m 1,18,-1
 44 323 l 1,19,-1
 44 390 l 1,20,-1
 913 390 l 1,21,-1
 913 323 l 1,18,-1
EndSplineSet
EndChar

StartChar: Euro
Encoding: 643 8364 387
Width: 1228
Flags: W
LayerCount: 2
Fore
SplineSet
686 21 m 1,0,1
 931.4 21 931.4 21 1175 231 c 1,2,-1
 1214 190 l 1,3,4
 1086.06 75.8423 1086.06 75.8423 962 23 c 1,5,-1
 961 23 l 1,6,7
 821.8 -37 821.8 -37 698.9 -38 c 128,-1,8
 576 -39 576 -39 498.5 1 c 128,-1,9
 421 41 421 41 368.5 107 c 0,10,11
 276.625 222.5 276.625 222.5 241 422 c 1,12,-1
 69 422 l 1,13,-1
 69 479 l 1,14,-1
 233 479 l 1,15,16
 224.284 561.806 224.284 561.806 225.142 586.903 c 128,-1,17
 226 612 226 612 233 745 c 1,18,-1
 69 745 l 1,19,-1
 69 802 l 1,20,-1
 242 802 l 1,21,22
 296.049 1064.52 296.049 1064.52 494 1163.5 c 0,23,24
 571 1202 571 1202 681 1206 c 1,25,26
 846.55 1201.64 846.55 1201.64 941 1119 c 1,27,28
 978 1088 978 1088 995 1088 c 0,29,30
 1033 1088 1033 1088 1050 1193 c 1,31,-1
 1081 1193 l 1,32,33
 1081 1171 1081 1171 1081 1076.18 c 128,-1,34
 1081 981.364 1081 981.364 1101 825 c 1,35,36
 1073.56 820.667 1073.56 820.667 1049 815 c 1,37,38
 1021.71 940.968 1021.71 940.968 977 1009 c 1,39,40
 884 1143 884 1143 684 1148 c 1,41,42
 513.705 1144.34 513.705 1144.34 412 1036 c 0,43,44
 331.994 950.777 331.994 950.777 296 802 c 1,45,-1
 714 802 l 1,46,-1
 714 745 l 1,47,-1
 286 745 l 1,48,49
 272.688 580.812 272.688 580.812 284 479 c 1,50,-1
 714 479 l 1,51,-1
 714 422 l 1,52,-1
 292 422 l 1,53,54
 346.778 144.456 346.778 144.456 527 53 c 0,55,56
 594 19 594 19 686 21 c 1,0,1
EndSplineSet
EndChar

StartChar: ohm
Encoding: 645 8486 389
Width: 1228
Flags: W
LayerCount: 2
Fore
SplineSet
741 208 m 1,0,1
 1104 288.667 1104 288.667 1104 635 c 0,2,3
 1104 851.241 1104 851.241 952.5 995 c 0,4,5
 808.123 1132 808.123 1132 614 1132 c 256,6,7
 419.853 1132 419.853 1132 277 996.5 c 0,8,9
 126 853.272 126 853.272 126 638 c 0,10,11
 126 472.808 126 472.808 210.5 364 c 0,12,13
 306.682 240.149 306.682 240.149 489 207 c 1,14,-1
 489 0 l 1,15,-1
 68 0 l 1,16,-1
 68 191 l 1,17,-1
 107 191 l 1,18,-1
 107 50 l 1,19,-1
 435 50 l 1,20,-1
 435 175 l 1,21,22
 310.885 209.637 310.885 209.637 276.442 232.318 c 128,-1,23
 242 255 242 255 219 275 c 1,24,25
 145 344 145 344 102.5 442 c 128,-1,26
 60 540 60 540 60 648 c 128,-1,27
 60 756 60 756 101.5 855 c 128,-1,28
 143 954 143 954 217 1028.5 c 0,29,30
 377.416 1190 377.416 1190 614 1190 c 0,31,32
 852.181 1190 852.181 1190 1012.5 1027.5 c 0,33,34
 1168 869.884 1168 869.884 1168 648 c 0,35,36
 1168 508.328 1168 508.328 1099 386.5 c 0,37,38
 1018.54 244.446 1018.54 244.446 871 197.5 c 0,39,40
 838 187 838 187 795 175 c 1,41,-1
 795 50 l 1,42,-1
 1122 50 l 1,43,-1
 1122 191 l 1,44,-1
 1162 191 l 1,45,-1
 1162 0 l 1,46,-1
 741 0 l 1,47,-1
 741 208 l 1,0,1
EndSplineSet
EndChar

StartChar: oneeighth
Encoding: 646 8539 390
Width: 1228
Flags: W
LayerCount: 2
Fore
SplineSet
53 1186 m 1,0,1
 144 1226.44 144 1226.44 246 1268 c 1,2,-1
 268 1268 l 1,3,-1
 268 542 l 1,4,-1
 431 542 l 1,5,-1
 431 510 l 1,6,-1
 67 510 l 1,7,-1
 67 542 l 1,8,-1
 235 542 l 1,9,-1
 235 1229 l 1,10,-1
 65 1159 l 1,11,12
 56 1177 56 1177 53 1186 c 1,0,1
103 -153 m 1,13,14
 707.768 683.002 707.768 683.002 1145 1283 c 1,15,-1
 1167 1268 l 1,16,-1
 124 -170 l 1,17,-1
 103 -153 l 1,13,14
1201 409 m 0,18,19
 1201 294.976 1201 294.976 1065 222 c 1,20,21
 1152 184 1152 184 1183.5 130 c 128,-1,22
 1215 76 1215 76 1215 34.5 c 0,23,24
 1215 -38.8571 1215 -38.8571 1158 -104 c 256,25,26
 1095.88 -175 1095.88 -175 980 -175 c 256,27,28
 822.538 -175 822.538 -175 760 -39.5 c 0,29,30
 745 -7 745 -7 745 38.5 c 128,-1,31
 745 84 745 84 778 135 c 1,32,-1
 778 134 l 1,33,34
 815 187 815 187 896 222 c 1,35,36
 840 251 840 251 801 294 c 1,37,-1
 801 293 l 1,38,39
 760 343.111 760 343.111 760 416.556 c 128,-1,40
 760 490 760 490 823.5 548 c 128,-1,41
 887 606 887 606 980 606 c 256,42,43
 1073 606 1073 606 1137 548 c 128,-1,44
 1201 490 1201 490 1201 409 c 0,18,19
1105.5 530.5 m 128,-1,46
 1050 576 1050 576 990.5 576 c 128,-1,47
 931 576 931 576 896.5 559.5 c 128,-1,48
 862 543 862 543 840.5 517.5 c 0,49,50
 799 468.279 799 468.279 799 420.14 c 128,-1,51
 799 372 799 372 811.5 345 c 128,-1,52
 824 318 824 318 850 291 c 0,53,54
 901 238 901 238 977 238 c 128,-1,55
 1053 238 1053 238 1106 287 c 1,56,57
 1161 336.107 1161 336.107 1161 410.554 c 128,-1,45
 1161 485 1161 485 1105.5 530.5 c 128,-1,46
1175 29.0517 m 128,-1,59
 1175 99 1175 99 1121 153.5 c 128,-1,60
 1067 208 1067 208 980 208 c 0,61,62
 885.192 208 885.192 208 835.096 151.5 c 128,-1,63
 785 95 785 95 785 43.5 c 128,-1,64
 785 -8 785 -8 799 -37 c 128,-1,65
 813 -66 813 -66 842 -92 c 0,66,67
 898 -144 898 -144 980 -144 c 256,68,69
 1062 -144 1062 -144 1118.5 -92.4483 c 128,-1,58
 1175 -40.8966 1175 -40.8966 1175 29.0517 c 128,-1,59
EndSplineSet
EndChar

StartChar: threeeighths
Encoding: 647 8540 391
Width: 1228
Flags: W
LayerCount: 2
Fore
SplineSet
103 -153 m 1,0,1
 707.768 683.002 707.768 683.002 1145 1283 c 1,2,-1
 1167 1268 l 1,3,-1
 124 -170 l 1,4,-1
 103 -153 l 1,0,1
1201 409 m 0,5,6
 1201 294.976 1201 294.976 1065 222 c 1,7,8
 1152 184 1152 184 1183.5 130 c 128,-1,9
 1215 76 1215 76 1215 34.5 c 0,10,11
 1215 -38.8571 1215 -38.8571 1158 -104 c 256,12,13
 1095.88 -175 1095.88 -175 980 -175 c 256,14,15
 822.538 -175 822.538 -175 760 -39.5 c 0,16,17
 745 -7 745 -7 745 38.5 c 128,-1,18
 745 84 745 84 778 135 c 1,19,-1
 778 134 l 1,20,21
 815 187 815 187 896 222 c 1,22,23
 840 251 840 251 801 294 c 1,24,-1
 801 293 l 1,25,26
 760 343.111 760 343.111 760 416.556 c 128,-1,27
 760 490 760 490 823.5 548 c 128,-1,28
 887 606 887 606 980 606 c 256,29,30
 1073 606 1073 606 1137 548 c 128,-1,31
 1201 490 1201 490 1201 409 c 0,5,6
1105.5 530.5 m 128,-1,33
 1050 576 1050 576 990.5 576 c 128,-1,34
 931 576 931 576 896.5 559.5 c 128,-1,35
 862 543 862 543 840.5 517.5 c 0,36,37
 799 468.279 799 468.279 799 420.14 c 128,-1,38
 799 372 799 372 811.5 345 c 128,-1,39
 824 318 824 318 850 291 c 0,40,41
 901 238 901 238 977 238 c 128,-1,42
 1053 238 1053 238 1106 287 c 1,43,44
 1161 336.107 1161 336.107 1161 410.554 c 128,-1,32
 1161 485 1161 485 1105.5 530.5 c 128,-1,33
1175 29.0517 m 128,-1,46
 1175 99 1175 99 1121 153.5 c 128,-1,47
 1067 208 1067 208 980 208 c 0,48,49
 885.192 208 885.192 208 835.096 151.5 c 128,-1,50
 785 95 785 95 785 43.5 c 128,-1,51
 785 -8 785 -8 799 -37 c 128,-1,52
 813 -66 813 -66 842 -92 c 0,53,54
 898 -144 898 -144 980 -144 c 256,55,56
 1062 -144 1062 -144 1118.5 -92.4483 c 128,-1,45
 1175 -40.8966 1175 -40.8966 1175 29.0517 c 128,-1,46
471 1087 m 0,57,58
 471 964.484 471 964.484 353 915 c 1,59,60
 412.944 900.014 412.944 900.014 465 843 c 256,61,62
 511 792.619 511 792.619 511 705.81 c 128,-1,63
 511 619 511 619 442 557.5 c 128,-1,64
 373 496 373 496 267 496 c 0,65,66
 201.2 496 201.2 496 160.1 511.5 c 128,-1,67
 119 527 119 527 99 534.5 c 128,-1,68
 79 542 79 542 52 553 c 1,69,-1
 64 581 l 1,70,71
 182 527 182 527 267 527 c 128,-1,72
 352 527 352 527 413.5 578 c 128,-1,73
 475 629 475 629 475 718 c 0,74,75
 475 836.465 475 836.465 358 881 c 0,76,77
 322.714 894 322.714 894 262 894 c 2,78,-1
 243 894 l 1,79,-1
 243 924 l 1,80,81
 319 925 319 925 360 953 c 1,82,83
 434 1001 434 1001 434 1078 c 0,84,85
 434 1191.85 434 1191.85 331.5 1230.5 c 0,86,87
 250.031 1261.22 250.031 1261.22 169.5 1220.5 c 0,88,89
 125 1198 125 1198 84 1172 c 1,90,91
 75 1187 75 1187 69 1198 c 1,92,93
 182.176 1272 182.176 1272 267 1272 c 0,94,95
 349.312 1272 349.312 1272 407.5 1223 c 0,96,97
 471 1169.53 471 1169.53 471 1087 c 0,57,58
EndSplineSet
EndChar

StartChar: fiveeighths
Encoding: 648 8541 392
Width: 1228
Flags: W
LayerCount: 2
Fore
SplineSet
39 548 m 1,0,-1
 51 578 l 1,1,2
 170 529 170 529 264.5 529 c 128,-1,3
 359 529 359 529 419 586 c 1,4,-1
 419 585 l 1,5,6
 481 641 481 641 481 736 c 0,7,8
 481 824 481 824 421 884 c 128,-1,9
 361 944 361 944 270 944 c 128,-1,10
 179 944 179 944 96 886 c 1,11,-1
 80 895 l 1,12,-1
 80 1255 l 1,13,-1
 480 1255 l 1,14,-1
 480 1224 l 1,15,-1
 107 1224 l 1,16,-1
 107 929 l 1,17,18
 217 975 217 975 280 975 c 0,19,20
 382 975 382 975 451 908 c 1,21,22
 518 839 518 839 518 736 c 128,-1,23
 518 633 518 633 447.5 565.5 c 128,-1,24
 377 498 377 498 262 498 c 0,25,26
 169 498 169 498 51 544 c 1,27,-1
 39 548 l 1,0,-1
103 -153 m 1,28,29
 707.768 683.002 707.768 683.002 1145 1283 c 1,30,-1
 1167 1268 l 1,31,-1
 124 -170 l 1,32,-1
 103 -153 l 1,28,29
1201 409 m 0,33,34
 1201 294.976 1201 294.976 1065 222 c 1,35,36
 1152 184 1152 184 1183.5 130 c 128,-1,37
 1215 76 1215 76 1215 34.5 c 0,38,39
 1215 -38.8571 1215 -38.8571 1158 -104 c 256,40,41
 1095.88 -175 1095.88 -175 980 -175 c 256,42,43
 822.538 -175 822.538 -175 760 -39.5 c 0,44,45
 745 -7 745 -7 745 38.5 c 128,-1,46
 745 84 745 84 778 135 c 1,47,-1
 778 134 l 1,48,49
 815 187 815 187 896 222 c 1,50,51
 840 251 840 251 801 294 c 1,52,-1
 801 293 l 1,53,54
 760 343.111 760 343.111 760 416.556 c 128,-1,55
 760 490 760 490 823.5 548 c 128,-1,56
 887 606 887 606 980 606 c 256,57,58
 1073 606 1073 606 1137 548 c 128,-1,59
 1201 490 1201 490 1201 409 c 0,33,34
1105.5 530.5 m 128,-1,61
 1050 576 1050 576 990.5 576 c 128,-1,62
 931 576 931 576 896.5 559.5 c 128,-1,63
 862 543 862 543 840.5 517.5 c 0,64,65
 799 468.279 799 468.279 799 420.14 c 128,-1,66
 799 372 799 372 811.5 345 c 128,-1,67
 824 318 824 318 850 291 c 0,68,69
 901 238 901 238 977 238 c 128,-1,70
 1053 238 1053 238 1106 287 c 1,71,72
 1161 336.107 1161 336.107 1161 410.554 c 128,-1,60
 1161 485 1161 485 1105.5 530.5 c 128,-1,61
1175 29.0517 m 128,-1,74
 1175 99 1175 99 1121 153.5 c 128,-1,75
 1067 208 1067 208 980 208 c 0,76,77
 885.192 208 885.192 208 835.096 151.5 c 128,-1,78
 785 95 785 95 785 43.5 c 128,-1,79
 785 -8 785 -8 799 -37 c 128,-1,80
 813 -66 813 -66 842 -92 c 0,81,82
 898 -144 898 -144 980 -144 c 256,83,84
 1062 -144 1062 -144 1118.5 -92.4483 c 128,-1,73
 1175 -40.8966 1175 -40.8966 1175 29.0517 c 128,-1,74
EndSplineSet
EndChar

StartChar: seveneighths
Encoding: 649 8542 393
Width: 1228
Flags: W
LayerCount: 2
Fore
SplineSet
263 513 m 1,0,-1
 224 513 l 1,1,-1
 484 1222 l 1,2,-1
 67 1222 l 1,3,-1
 67 1107 l 1,4,-1
 36 1107 l 1,5,-1
 36 1253 l 1,6,-1
 509 1253 l 1,7,-1
 509 1212 l 1,8,-1
 263 513 l 1,0,-1
63 -153 m 1,9,10
 667.768 683.002 667.768 683.002 1105 1283 c 1,11,-1
 1127 1268 l 1,12,-1
 84 -170 l 1,13,-1
 63 -153 l 1,9,10
1201 409 m 0,14,15
 1201 294.976 1201 294.976 1065 222 c 1,16,17
 1152 184 1152 184 1183.5 130 c 128,-1,18
 1215 76 1215 76 1215 34.5 c 0,19,20
 1215 -38.8571 1215 -38.8571 1158 -104 c 256,21,22
 1095.88 -175 1095.88 -175 980 -175 c 256,23,24
 822.538 -175 822.538 -175 760 -39.5 c 0,25,26
 745 -7 745 -7 745 38.5 c 128,-1,27
 745 84 745 84 778 135 c 1,28,-1
 778 134 l 1,29,30
 815 187 815 187 896 222 c 1,31,32
 840 251 840 251 801 294 c 1,33,-1
 801 293 l 1,34,35
 760 343.111 760 343.111 760 416.556 c 128,-1,36
 760 490 760 490 823.5 548 c 128,-1,37
 887 606 887 606 980 606 c 256,38,39
 1073 606 1073 606 1137 548 c 128,-1,40
 1201 490 1201 490 1201 409 c 0,14,15
1105.5 530.5 m 128,-1,42
 1050 576 1050 576 990.5 576 c 128,-1,43
 931 576 931 576 896.5 559.5 c 128,-1,44
 862 543 862 543 840.5 517.5 c 0,45,46
 799 468.279 799 468.279 799 420.14 c 128,-1,47
 799 372 799 372 811.5 345 c 128,-1,48
 824 318 824 318 850 291 c 0,49,50
 901 238 901 238 977 238 c 128,-1,51
 1053 238 1053 238 1106 287 c 1,52,53
 1161 336.107 1161 336.107 1161 410.554 c 128,-1,41
 1161 485 1161 485 1105.5 530.5 c 128,-1,42
1175 29.0517 m 128,-1,55
 1175 99 1175 99 1121 153.5 c 128,-1,56
 1067 208 1067 208 980 208 c 0,57,58
 885.192 208 885.192 208 835.096 151.5 c 128,-1,59
 785 95 785 95 785 43.5 c 128,-1,60
 785 -8 785 -8 799 -37 c 128,-1,61
 813 -66 813 -66 842 -92 c 0,62,63
 898 -144 898 -144 980 -144 c 256,64,65
 1062 -144 1062 -144 1118.5 -92.4483 c 128,-1,54
 1175 -40.8966 1175 -40.8966 1175 29.0517 c 128,-1,55
EndSplineSet
EndChar

StartChar: arrowleft
Encoding: 650 8592 394
Width: 1228
Flags: W
LayerCount: 2
Fore
SplineSet
313 552 m 1,0,1
 393.471 431.294 393.471 431.294 409 364 c 1,2,3
 409 335 409 335 377 335 c 0,4,5
 362.031 335 362.031 335 320.016 380.5 c 128,-1,6
 278 426 278 426 239 457 c 128,-1,7
 200 488 200 488 166.5 510.5 c 0,8,9
 112.609 546.696 112.609 546.696 84.8044 560.348 c 0,10,11
 42 581.365 42 581.365 42 596 c 0,12,13
 42 604.638 42 604.638 113.5 645.319 c 128,-1,14
 185 686 185 686 215.5 709.5 c 0,15,16
 278.294 757.882 278.294 757.882 311.147 793.941 c 128,-1,17
 344 830 344 830 355.5 840.5 c 128,-1,18
 367 851 367 851 380 851 c 128,-1,19
 393 851 393 851 401 842 c 128,-1,20
 409 833 409 833 409 823 c 0,21,22
 409 777 409 777 314 632 c 1,23,-1
 1188 632 l 1,24,-1
 1188 552 l 1,25,-1
 313 552 l 1,0,1
EndSplineSet
EndChar

StartChar: arrowup
Encoding: 651 8593 395
Width: 1228
Flags: W
LayerCount: 2
Fore
SplineSet
664 0 m 1,0,-1
 582 0 l 1,1,-1
 582 942 l 1,2,3
 476.262 866.809 476.262 866.809 409.5 849.5 c 0,4,5
 396 846 396 846 393.5 846 c 128,-1,6
 391 846 391 846 387 847 c 128,-1,7
 383 848 383 848 378 851.5 c 0,8,9
 366 859.9 366 859.9 366 870.95 c 128,-1,10
 366 882 366 882 368 886.5 c 128,-1,11
 370 891 370 891 375.5 897.5 c 128,-1,12
 381 904 381 904 391.5 914 c 128,-1,13
 402 924 402 924 430 950.5 c 128,-1,14
 458 977 458 977 489.5 1017 c 128,-1,15
 521 1057 521 1057 544 1091 c 0,16,17
 598 1170.83 598 1170.83 598 1176.91 c 128,-1,18
 598 1183 598 1183 601 1189.5 c 0,19,20
 611.846 1213 611.846 1213 627 1213 c 0,21,22
 635 1213 635 1213 645.5 1194 c 128,-1,23
 656 1175 656 1175 673 1146 c 1,24,-1
 672 1146 l 1,25,26
 696 1100 696 1100 732 1050.5 c 0,27,28
 774.31 992.324 774.31 992.324 818.155 950.162 c 128,-1,29
 862 908 862 908 872.5 897.5 c 128,-1,30
 883 887 883 887 883 874.5 c 128,-1,31
 883 862 883 862 873.5 854 c 128,-1,32
 864 846 864 846 855 846 c 0,33,34
 808 846 808 846 664 941 c 1,35,-1
 664 0 l 1,0,-1
EndSplineSet
EndChar

StartChar: arrowright
Encoding: 652 8594 396
Width: 1228
Flags: W
LayerCount: 2
Fore
SplineSet
933 632 m 1,0,1
 843.981 759.17 843.981 759.17 837 822 c 0,2,3
 837 826 837 826 843 837.5 c 128,-1,4
 849 849 849 849 863 849 c 128,-1,5
 877 849 877 849 888.5 839.5 c 128,-1,6
 900 830 900 830 933 797 c 1,7,-1
 932 797 l 1,8,9
 1037.59 685.707 1037.59 685.707 1171 619 c 1,10,11
 1204 605.8 1204 605.8 1204 588 c 0,12,13
 1204 578.966 1204 578.966 1159 553.483 c 128,-1,14
 1114 528 1114 528 1085.5 512 c 128,-1,15
 1057 496 1057 496 1026 473 c 0,16,17
 988.563 445.224 988.563 445.224 945.281 399.612 c 0,18,19
 882.073 333 882.073 333 868.036 333 c 128,-1,20
 854 333 854 333 845.5 341.5 c 128,-1,21
 837 350 837 350 837 360 c 0,22,23
 837 407 837 407 932 552 c 1,24,-1
 58 552 l 1,25,-1
 58 632 l 1,26,-1
 933 632 l 1,0,1
EndSplineSet
EndChar

StartChar: arrowdown
Encoding: 653 8595 397
Width: 1228
Flags: W
LayerCount: 2
Fore
SplineSet
393 315 m 0,0,1
 442.645 315 442.645 315 582 219 c 1,2,-1
 582 1161 l 1,3,-1
 664 1161 l 1,4,-1
 664 220 l 1,5,6
 808 315 808 315 855 315 c 0,7,8
 864 315 864 315 873.5 307 c 128,-1,9
 883 299 883 299 883 286.5 c 128,-1,10
 883 274 883 274 872.5 263.5 c 2,11,-1
 845 236 l 1,12,13
 730.321 126.782 730.321 126.782 672 15 c 1,14,-1
 673 15 l 1,15,16
 656 -14 656 -14 645.5 -33 c 128,-1,17
 635 -52 635 -52 625.5 -52 c 0,18,19
 611.727 -52 611.727 -52 599 -24 c 0,20,21
 598 -22 598 -22 598 -21.5 c 128,-1,22
 598 -21 598 -21 596 -17 c 128,-1,23
 594 -13 594 -13 580.5 11.5 c 128,-1,24
 567 36 567 36 544 70 c 0,25,26
 481.651 162.169 481.651 162.169 441.825 199.084 c 128,-1,27
 402 236 402 236 391.5 246.5 c 128,-1,28
 381 257 381 257 375.5 263.5 c 0,29,30
 366 274.727 366 274.727 366 283.864 c 128,-1,31
 366 293 366 293 369.5 299.5 c 128,-1,32
 373 306 373 306 378 309.5 c 0,33,34
 385.857 315 385.857 315 393 315 c 0,0,1
EndSplineSet
EndChar

StartChar: arrowboth
Encoding: 654 8596 398
Width: 1228
Flags: W
LayerCount: 2
Fore
SplineSet
926 632 m 1,0,1
 852.9 730.228 852.9 730.228 832.5 806 c 0,2,3
 829 819 829 819 829 825 c 128,-1,4
 829 831 829 831 836 840 c 128,-1,5
 843 849 843 849 853.5 849 c 128,-1,6
 864 849 864 849 868.5 847.5 c 128,-1,7
 873 846 873 846 879 841 c 0,8,9
 890.143 831.714 890.143 831.714 926.571 790.357 c 0,10,11
 1007.86 698.069 1007.86 698.069 1168 618 c 0,12,13
 1196 604 1196 604 1196 590 c 256,14,15
 1196 579 1196 579 1187 573 c 128,-1,16
 1178 567 1178 567 1135 546.5 c 128,-1,17
 1092 526 1092 526 1028 472 c 128,-1,18
 964 418 964 418 927.5 376.5 c 128,-1,19
 891 335 891 335 880.5 326.5 c 128,-1,20
 870 318 870 318 857 318 c 128,-1,21
 844 318 844 318 836.5 326.5 c 128,-1,22
 829 335 829 335 829 343 c 0,23,24
 829 391 829 391 922 552 c 1,25,-1
 331 552 l 1,26,27
 387.059 454.634 387.059 454.634 405.03 404.317 c 128,-1,28
 423 354 423 354 423 345.5 c 128,-1,29
 423 337 423 337 415.5 327.5 c 128,-1,30
 408 318 408 318 397.5 318 c 128,-1,31
 387 318 387 318 383.5 319.5 c 128,-1,32
 380 321 380 321 374 326.5 c 0,33,34
 359.6 339.7 359.6 339.7 329 372 c 1,35,-1
 288 413 l 2,36,37
 183.6 517.4 183.6 517.4 72 567 c 0,38,39
 50 576.429 50 576.429 50 588 c 0,40,41
 50 598.875 50 598.875 69.5 609.438 c 128,-1,42
 89 620 89 620 110 631 c 0,43,44
 247 704 247 704 344 813 c 1,45,-1
 343 813 l 1,46,47
 345 815 345 815 346.5 817 c 128,-1,48
 348 819 348 819 357.5 830 c 0,49,50
 373.909 849 373.909 849 390.455 849 c 128,-1,51
 407 849 407 849 415 840 c 128,-1,52
 423 831 423 831 423 825.5 c 128,-1,53
 423 820 423 820 421 808.5 c 128,-1,54
 419 797 419 797 409.5 773.5 c 0,55,56
 384.601 711.907 384.601 711.907 328 632 c 1,57,-1
 926 632 l 1,0,1
EndSplineSet
EndChar

StartChar: SM760000
Encoding: 655 8597 399
Width: 1228
Flags: W
LayerCount: 2
Fore
SplineSet
654 314 m 1,0,1
 815 406 815 406 863 406 c 0,2,3
 871 406 871 406 880 398.5 c 128,-1,4
 889 391 889 391 889 378 c 0,5,6
 889 360.714 889 360.714 857 331 c 1,7,8
 711.103 204.133 711.103 204.133 651 86 c 1,9,10
 640 57 640 57 633.5 48 c 128,-1,11
 627 39 627 39 616 39 c 256,12,13
 605 39 605 39 599.5 48 c 128,-1,14
 594 57 594 57 591 63 c 128,-1,15
 588 69 588 69 587.5 69.5 c 128,-1,16
 587 70 587 70 567.5 109 c 128,-1,17
 548 148 548 148 503.5 208.5 c 128,-1,18
 459 269 459 269 426 299 c 128,-1,19
 393 329 393 329 382.5 338.5 c 128,-1,20
 372 348 372 348 366.5 354.5 c 0,21,22
 357 365.727 357 365.727 357 378.864 c 128,-1,23
 357 392 357 392 366.5 399 c 128,-1,24
 376 406 376 406 381 406 c 128,-1,25
 386 406 386 406 400 402.5 c 128,-1,26
 414 399 414 399 438.5 388.5 c 0,27,28
 504.769 360.099 504.769 360.099 574 309 c 1,29,-1
 574 983 l 1,30,31
 473 910.857 473 910.857 400 890 c 0,32,33
 386 886 386 886 381 886 c 128,-1,34
 376 886 376 886 366.5 893 c 128,-1,35
 357 900 357 900 357 911 c 128,-1,36
 357 922 357 922 358.5 926.5 c 128,-1,37
 360 931 360 931 365 937 c 128,-1,38
 370 943 370 943 381 952.5 c 0,39,40
 503.574 1058.36 503.574 1058.36 586 1220 c 0,41,42
 587 1222 587 1222 587.5 1222.5 c 128,-1,43
 588 1223 588 1223 591 1229 c 0,44,45
 603 1253 603 1253 616 1253 c 256,46,47
 627 1253 627 1253 633.5 1244 c 128,-1,48
 640 1235 640 1235 651 1206 c 1,49,50
 711.103 1087.87 711.103 1087.87 857 961 c 1,51,52
 889 931.286 889 931.286 889 916.143 c 128,-1,53
 889 901 889 901 880 893.5 c 128,-1,54
 871 886 871 886 863 886 c 0,55,56
 814 886 814 886 654 979 c 1,57,-1
 654 314 l 1,0,1
EndSplineSet
EndChar

StartChar: SM770000
Encoding: 656 8616 400
Width: 1228
Flags: W
LayerCount: 2
Fore
SplineSet
838 -183 m 1,0,-1
 414 -183 l 1,1,-1
 414 -103 l 1,2,-1
 838 -103 l 1,3,-1
 838 -183 l 1,0,-1
654 314 m 1,4,5
 815 406 815 406 863 406 c 0,6,7
 871 406 871 406 880 398.5 c 128,-1,8
 889 391 889 391 889 378 c 0,9,10
 889 360.714 889 360.714 857 331 c 1,11,12
 711.103 204.133 711.103 204.133 651 86 c 1,13,14
 640 57 640 57 633.5 48 c 128,-1,15
 627 39 627 39 616 39 c 256,16,17
 605 39 605 39 599.5 48 c 128,-1,18
 594 57 594 57 591 63 c 128,-1,19
 588 69 588 69 587.5 69.5 c 128,-1,20
 587 70 587 70 567.5 109 c 128,-1,21
 548 148 548 148 503.5 208.5 c 128,-1,22
 459 269 459 269 426 299 c 128,-1,23
 393 329 393 329 382.5 338.5 c 128,-1,24
 372 348 372 348 366.5 354.5 c 0,25,26
 357 365.727 357 365.727 357 378.864 c 128,-1,27
 357 392 357 392 366.5 399 c 128,-1,28
 376 406 376 406 381 406 c 128,-1,29
 386 406 386 406 400 402.5 c 128,-1,30
 414 399 414 399 438.5 388.5 c 0,31,32
 504.769 360.099 504.769 360.099 574 309 c 1,33,-1
 574 983 l 1,34,35
 473 910.857 473 910.857 400 890 c 0,36,37
 386 886 386 886 381 886 c 128,-1,38
 376 886 376 886 366.5 893 c 128,-1,39
 357 900 357 900 357 911 c 128,-1,40
 357 922 357 922 358.5 926.5 c 128,-1,41
 360 931 360 931 365 937 c 128,-1,42
 370 943 370 943 381 952.5 c 0,43,44
 503.574 1058.36 503.574 1058.36 586 1220 c 0,45,46
 587 1222 587 1222 587.5 1222.5 c 128,-1,47
 588 1223 588 1223 591 1229 c 0,48,49
 603 1253 603 1253 616 1253 c 256,50,51
 627 1253 627 1253 633.5 1244 c 128,-1,52
 640 1235 640 1235 651 1206 c 1,53,54
 711.103 1087.87 711.103 1087.87 857 961 c 1,55,56
 889 931.286 889 931.286 889 916.143 c 128,-1,57
 889 901 889 901 880 893.5 c 128,-1,58
 871 886 871 886 863 886 c 0,59,60
 814 886 814 886 654 979 c 1,61,-1
 654 314 l 1,4,5
EndSplineSet
EndChar

StartChar: carriagereturn
Encoding: 657 8629 401
Width: 1228
Flags: W
LayerCount: 2
Fore
SplineSet
313 552 m 1,0,1
 409 412.571 409 412.571 409 363 c 256,2,3
 409 335 409 335 377 335 c 0,4,5
 364.962 335 364.962 335 329.481 372 c 0,6,7
 218.809 487.411 218.809 487.411 97 553 c 0,8,9
 84 560 84 560 66.5 569 c 128,-1,10
 49 578 49 578 45.5 584 c 128,-1,11
 42 590 42 590 42 592.5 c 2,12,-1
 42 596 l 2,13,14
 42 606.565 42 606.565 78 624.783 c 0,15,16
 233.109 703.274 233.109 703.274 320 805 c 0,17,18
 334 821 334 821 343 831.5 c 0,19,20
 359.714 851 359.714 851 376.357 851 c 128,-1,21
 393 851 393 851 401 842 c 128,-1,22
 409 833 409 833 409 823 c 0,23,24
 409 777 409 777 314 632 c 1,25,-1
 1107 632 l 1,26,-1
 1107 1084 l 1,27,-1
 1188 1084 l 1,28,-1
 1188 552 l 1,29,-1
 313 552 l 1,0,1
EndSplineSet
EndChar

StartChar: summation
Encoding: 658 8721 402
Width: 1228
Flags: W
LayerCount: 2
Fore
SplineSet
919 1753 m 1,0,-1
 306 1753 l 1,1,-1
 306 1799 l 1,2,-1
 919 1799 l 1,3,-1
 919 1753 l 1,0,-1
919 -835 m 1,4,-1
 306 -835 l 1,5,-1
 306 -790 l 1,6,-1
 919 -790 l 1,7,-1
 919 -835 l 1,4,-1
EndSplineSet
EndChar

StartChar: minus
Encoding: 659 8722 403
Width: 1228
Flags: W
LayerCount: 2
Fore
SplineSet
1048 568 m 1,0,-1
 180 568 l 1,1,-1
 180 636 l 1,2,-1
 1048 636 l 1,3,-1
 1048 568 l 1,0,-1
EndSplineSet
EndChar

StartChar: radical
Encoding: 660 8730 404
Width: 1228
Flags: W
LayerCount: 2
Fore
SplineSet
395 164 m 1,0,-1
 809 1586 l 1,1,-1
 1359 1586 l 1,2,-1
 1359 1529 l 1,3,-1
 854 1529 l 1,4,-1
 404 0 l 1,5,-1
 337 0 l 1,6,-1
 186 576 l 1,7,-1
 34 576 l 1,8,-1
 34 634 l 1,9,-1
 271 634 l 1,10,-1
 390 164 l 1,11,-1
 395 164 l 1,0,-1
EndSplineSet
EndChar

StartChar: infinity
Encoding: 661 8734 405
Width: 1228
Flags: W
LayerCount: 2
Fore
SplineSet
612 578 m 1,0,1
 470.828 400 470.828 400 318 400 c 0,2,3
 228.071 400 228.071 400 167 457 c 0,4,5
 102 517.667 102 517.667 102 617 c 0,6,7
 102 720.619 102 720.619 171.5 783.5 c 0,8,9
 235.053 841 235.053 841 326 841 c 0,10,11
 403.5 841 403.5 841 492 782 c 0,12,13
 565.66 732.894 565.66 732.894 619 661 c 1,14,-1
 614 661 l 1,15,16
 700.637 790.956 700.637 790.956 828 829.5 c 0,17,18
 866 841 866 841 907.5 841 c 128,-1,19
 949 841 949 841 990 826 c 128,-1,20
 1031 811 1031 811 1061 783 c 0,21,22
 1126 722.333 1126 722.333 1126 623 c 0,23,24
 1126 528.691 1126 528.691 1069.5 465 c 0,25,26
 1010.06 398 1010.06 398 913 398 c 0,27,28
 777.789 398 777.789 398 612 578 c 1,0,1
907 784 m 0,29,30
 805 784 805 784 712 691 c 0,31,32
 688 667 688 667 652 620 c 1,33,34
 739.01 530.183 739.01 530.183 772.005 506.092 c 0,35,36
 841.978 455 841.978 455 911 455 c 0,37,38
 949.714 455 949.714 455 982.357 470 c 128,-1,39
 1015 485 1015 485 1032 507.5 c 128,-1,40
 1049 530 1049 530 1057 552.5 c 0,41,42
 1068 583.438 1068 583.438 1068 622.719 c 128,-1,43
 1068 662 1068 662 1053.5 692 c 128,-1,44
 1039 722 1039 722 1016 742.5 c 0,45,46
 969.439 784 969.439 784 907 784 c 0,29,30
539 578 m 2,47,48
 541 580 541 580 542.873 582.393 c 128,-1,49
 544.745 584.786 544.745 584.786 547.373 587.893 c 128,-1,50
 550 591 550 591 554.5 595.5 c 0,51,52
 570 611 570 611 574.5 616 c 128,-1,53
 579 621 579 621 581 623 c 1,54,55
 471.613 736.595 471.613 736.595 396 769 c 0,56,57
 361 784 361 784 326.5 784 c 128,-1,58
 292 784 292 784 262.5 774.5 c 128,-1,59
 233 765 233 765 210.5 745.5 c 0,60,61
 160 701.733 160 701.733 160 620 c 256,62,63
 160 540.818 160 540.818 210 496.5 c 0,64,65
 252.308 459 252.308 459 298.654 459 c 128,-1,66
 345 459 345 459 376 469 c 128,-1,67
 407 479 407 479 433.5 494 c 0,68,69
 474.302 517.095 474.302 517.095 519 559 c 2,70,-1
 539 578 l 2,47,48
EndSplineSet
EndChar

StartChar: rightangle
Encoding: 662 8735 406
Width: 1228
Flags: W
LayerCount: 2
Fore
SplineSet
1043 0 m 1,0,-1
 166 0 l 1,1,-1
 166 879 l 1,2,-1
 223 879 l 1,3,-1
 223 57 l 1,4,-1
 1043 57 l 1,5,-1
 1043 0 l 1,0,-1
EndSplineSet
EndChar

StartChar: intersection
Encoding: 663 8745 407
Width: 1228
Flags: W
LayerCount: 2
Fore
SplineSet
1063 0 m 1,0,-1
 1006 0 l 1,1,-1
 1006 504 l 2,2,3
 1006 702.756 1006 702.756 995 797.378 c 128,-1,4
 984 892 984 892 948 946 c 0,5,6
 881.923 1045.11 881.923 1045.11 793.462 1087.56 c 128,-1,7
 705 1130 705 1130 636.5 1130 c 128,-1,8
 568 1130 568 1130 521.5 1118.5 c 128,-1,9
 475 1107 475 1107 432.5 1085 c 0,10,11
 322.289 1027.95 322.289 1027.95 266 921 c 0,12,13
 238.764 869.253 238.764 869.253 233.382 803.126 c 0,14,15
 222 663.284 222 663.284 222 610.142 c 2,16,-1
 222 0 l 1,17,-1
 165 0 l 1,18,-1
 165 498 l 2,19,20
 165 719 165 719 173.5 791.5 c 0,21,22
 187.176 908.144 187.176 908.144 226.588 968.572 c 0,23,24
 296.937 1076.43 296.937 1076.43 401 1134 c 1,25,26
 509 1188 509 1188 621.5 1188 c 128,-1,27
 734 1188 734 1188 835.5 1127.5 c 0,28,29
 1026.6 1013.59 1026.6 1013.59 1052 821 c 1,30,31
 1063 713.2 1063 713.2 1063 498 c 2,32,-1
 1063 0 l 1,0,-1
EndSplineSet
EndChar

StartChar: integral
Encoding: 664 8747 408
Width: 1228
Flags: W
LayerCount: 2
Fore
SplineSet
1233 1373 m 1,0,1
 1101.47 1442 1101.47 1442 955 1442 c 0,2,3
 749.144 1442 749.144 1442 680.5 1286.5 c 0,4,5
 656 1231 656 1231 656 1150 c 2,6,-1
 656 -28 l 2,7,8
 656 -209.44 656 -209.44 547 -301 c 0,9,10
 451.762 -381 451.762 -381 295 -381 c 0,11,12
 139.2 -381 139.2 -381 -6 -304 c 1,13,14
 19 -266.5 19 -266.5 23 -261 c 1,15,16
 148.455 -330 148.455 -330 295 -330 c 0,17,18
 501.878 -330 501.878 -330 573.5 -168.5 c 0,19,20
 599 -111 599 -111 599 -28 c 2,21,-1
 599 1150 l 2,22,23
 599 1326.23 599 1326.23 707 1415.5 c 0,24,25
 800.765 1493 800.765 1493 955 1493 c 0,26,27
 1111.69 1493 1111.69 1493 1261 1415 c 1,28,29
 1233 1373 l 1,0,1
EndSplineSet
EndChar

StartChar: notequal
Encoding: 667 8800 411
Width: 1228
Flags: W
LayerCount: 2
Fore
SplineSet
671 826 m 1,0,-1
 809 1101 l 1,1,2
 832 1093 832 1093 848.5 1086 c 128,-1,3
 865 1079 865 1079 883 1072 c 1,4,-1
 757 826 l 1,5,-1
 1051 826 l 1,6,-1
 1051 753 l 1,7,-1
 719 753 l 1,8,-1
 585 481 l 1,9,-1
 1051 481 l 1,10,-1
 1051 408 l 1,11,-1
 548 408 l 1,12,-1
 416 150 l 1,13,14
 396 157 396 157 379 164.5 c 128,-1,15
 362 172 362 172 347 177 c 1,16,-1
 463 408 l 1,17,-1
 179 408 l 1,18,-1
 179 481 l 1,19,-1
 503 481 l 1,20,-1
 637 753 l 1,21,-1
 179 753 l 1,22,-1
 179 826 l 1,23,-1
 671 826 l 1,0,-1
EndSplineSet
EndChar

StartChar: equivalence
Encoding: 668 8801 412
Width: 1228
Flags: W
LayerCount: 2
Fore
SplineSet
1100 984 m 1,0,-1
 128 984 l 1,1,-1
 128 1041 l 1,2,-1
 1100 1041 l 1,3,-1
 1100 984 l 1,0,-1
1100 592 m 1,4,-1
 128 592 l 1,5,-1
 128 650 l 1,6,-1
 1100 650 l 1,7,-1
 1100 592 l 1,4,-1
1100 200 m 1,8,-1
 128 200 l 1,9,-1
 128 258 l 1,10,-1
 1100 258 l 1,11,-1
 1100 200 l 1,8,-1
EndSplineSet
EndChar

StartChar: lessequal
Encoding: 669 8804 413
Width: 1228
Flags: W
LayerCount: 2
Fore
SplineSet
245 730 m 1,0,1
 945 401 945 401 1098 329 c 1,2,-1
 1075 278 l 1,3,4
 952 336 952 336 834.5 392.5 c 128,-1,5
 717 449 717 449 600.5 505 c 128,-1,6
 484 561 484 561 366.5 617 c 128,-1,7
 249 673 249 673 127 732 c 1,8,9
 773.552 1032 773.552 1032 1075 1173 c 1,10,11
 1085.67 1150.33 1085.67 1150.33 1099 1121 c 1,12,-1
 245 730 l 1,0,1
1085 68 m 1,13,-1
 129 68 l 1,14,-1
 129 127 l 1,15,-1
 1085 127 l 1,16,-1
 1085 68 l 1,13,-1
EndSplineSet
EndChar

StartChar: greaterequal
Encoding: 670 8805 414
Width: 1228
Flags: W
LayerCount: 2
Fore
SplineSet
130 1120 m 1,0,-1
 153 1171 l 1,1,-1
 1102 730 l 1,2,-1
 153 276 l 1,3,-1
 131 327 l 1,4,-1
 983 728 l 1,5,-1
 130 1120 l 1,0,-1
1100 72 m 1,6,-1
 143 72 l 1,7,-1
 143 131 l 1,8,-1
 1100 131 l 1,9,-1
 1100 72 l 1,6,-1
EndSplineSet
EndChar

StartChar: SM790000
Encoding: 671 8962 415
Width: 1228
Flags: W
LayerCount: 2
Fore
SplineSet
614 1163 m 1,0,-1
 1080 639 l 1,1,-1
 1080 -1 l 1,2,-1
 148 -1 l 1,3,-1
 148 640 l 1,4,5
 266 772 266 772 381 901.5 c 128,-1,6
 496 1031 496 1031 614 1163 c 1,0,-1
1017 64 m 1,7,-1
 1017 611 l 1,8,-1
 614 1062 l 1,9,-1
 212 611 l 1,10,-1
 212 64 l 1,11,-1
 1017 64 l 1,7,-1
EndSplineSet
EndChar

StartChar: SF490000
Encoding: 672 9561 416
Width: 1228
Flags: W
LayerCount: 2
Fore
SplineSet
1226 442 m 1,0,-1
 393 442 l 1,1,-1
 393 1622 l 1,2,-1
 498 1622 l 1,3,-1
 498 548 l 1,4,-1
 705 548 l 1,5,-1
 705 1622 l 1,6,-1
 810 1622 l 1,7,-1
 810 548 l 1,8,-1
 1226 548 l 1,9,-1
 1226 442 l 1,0,-1
EndSplineSet
EndChar

StartChar: filledbox
Encoding: 673 9632 417
Width: 1228
Flags: W
LayerCount: 2
Fore
SplineSet
804 303 m 1,0,-1
 426 303 l 1,1,-1
 426 680 l 1,2,-1
 804 680 l 1,3,-1
 804 303 l 1,0,-1
EndSplineSet
EndChar

StartChar: SM600000
Encoding: 674 9650 418
Width: 1228
Flags: W
LayerCount: 2
Fore
SplineSet
1001 207 m 1,0,-1
 226 207 l 1,1,2
 314.856 372.515 314.856 372.515 390.928 515.758 c 128,-1,3
 467 659 467 659 515 748 c 128,-1,4
 563 837 563 837 613 931 c 1,5,-1
 1001 207 l 1,0,-1
EndSplineSet
EndChar

StartChar: SM590000
Encoding: 675 9654 419
Width: 1228
Flags: W
LayerCount: 2
Fore
SplineSet
1203 578 m 1,0,1
 1056 525 1056 525 918.5 476.5 c 128,-1,2
 781 428 781 428 646 380 c 0,3,4
 425.499 301.6 425.499 301.6 92 182 c 1,5,-1
 92 970 l 1,6,-1
 1203 578 l 1,0,1
EndSplineSet
EndChar

StartChar: SV040000
Encoding: 676 9660 420
Width: 1228
Flags: W
LayerCount: 2
Fore
SplineSet
613 220 m 1,0,1
 523.396 388.667 523.396 388.667 447.198 529.833 c 0,2,3
 349.077 711.615 349.077 711.615 226 943 c 1,4,-1
 1001 943 l 1,5,-1
 613 220 l 1,0,1
EndSplineSet
EndChar

StartChar: SM630000
Encoding: 677 9664 421
Width: 1228
Flags: W
LayerCount: 2
Fore
SplineSet
1139 183 m 1,0,1
 996 234 996 234 858 283 c 128,-1,2
 720 332 720 332 583 381 c 0,3,4
 235.426 505.315 235.426 505.315 29 578 c 1,5,6
 176 630 176 630 313 678.5 c 128,-1,7
 450 727 450 727 585 774.5 c 128,-1,8
 720 822 720 822 856.5 870.5 c 128,-1,9
 993 919 993 919 1139 970 c 1,10,-1
 1139 183 l 1,0,1
EndSplineSet
EndChar

StartChar: SM750000
Encoding: 678 9675 422
Width: 1228
Flags: W
LayerCount: 2
Fore
SplineSet
1059 577 m 128,-1,1
 1059 392 1059 392 928.5 262.5 c 128,-1,2
 798 133 798 133 613.5 133 c 128,-1,3
 429 133 429 133 299 262.5 c 128,-1,4
 169 392 169 392 169 577.5 c 128,-1,5
 169 763 169 763 299 892.5 c 128,-1,6
 429 1022 429 1022 613.5 1022 c 128,-1,7
 798 1022 798 1022 928.5 892 c 128,-1,0
 1059 762 1059 762 1059 577 c 128,-1,1
613 191 m 128,-1,9
 771 191 771 191 887 305 c 1,10,11
 1001 419 1001 419 1001 578 c 256,12,13
 1001 737 1001 737 887 851 c 1,14,15
 771 965 771 965 612.5 965 c 128,-1,16
 454 965 454 965 340.5 851.5 c 128,-1,17
 227 738 227 738 227 578 c 0,18,19
 227 421 227 421 341 306 c 128,-1,8
 455 191 455 191 613 191 c 128,-1,9
EndSplineSet
EndChar

